<?xml version="1.0" standalone="no"?>
<!DOCTYPE svg PUBLIC "-//W3C//DTD SVG 20010904//EN"
 "http://www.w3.org/TR/2001/REC-SVG-20010904/DTD/svg10.dtd">
<svg version="1.0" xmlns="http://www.w3.org/2000/svg"
 width="246.000000pt" height="246.000000pt" viewBox="0 0 246.000000 246.000000"
 preserveAspectRatio="xMidYMid meet">
<metadata>
Created by potrace 1.14, written by Peter Selinger 2001-2017
</metadata>
<g transform="translate(0.000000,246.000000) scale(0.100000,-0.100000)"
fill="#000000" stroke="none">
<path d="M542 2185 c-99 -28 -178 -87 -229 -172 -50 -85 -51 -106 -49 -630 l3
-488 27 -88 c46 -154 104 -247 219 -353 78 -72 197 -135 312 -166 76 -20 106
-21 558 -23 263 -2 497 1 520 6 166 36 286 183 292 359 6 172 -115 331 -281
370 -33 7 -159 12 -350 12 -206 1 -301 4 -306 12 -4 6 -8 23 -8 37 0 95 -106
192 -207 192 l-33 0 0 314 c0 291 -1 318 -21 376 -62 185 -262 293 -447 242z"/>
</g>
</svg>
