<svg width="193.28" height="193.27" viewBox="0 0 51.139 51.136" version="1.1" id="svg5" xmlns="http://www.w3.org/2000/svg" xmlns:i="&amp;ns_ai;"><g id="layer1" transform="translate(-62.603 -80.095)"><switch id="switch899" transform="matrix(.26458 0 0 .26458 55.816 74.19)"><g i:extraneous="self" id="g897"><g id="g895"><g id="g893"><g id="g833"><linearGradient id="SVGID_1_" gradientUnits="userSpaceOnUse" x1="-57.649" y1="219.666" x2="98.469" y2="40.319"><stop offset=".059" id="stop826" stop-color="#17dae3"/><stop offset="1" id="stop828" stop-color="#003bff"/></linearGradient><path d="M100.33 116.49V59.62c-.04-20.61-16.75-37.3-37.37-37.3-1.29 0-2.56.07-3.81.19-18.81 1.91-33.49 17.8-33.49 37.11v11.04c0-.11 0-.21.01-.31 0 0-.32 26.66 30.73 41.01 17.63 8.15 32.12 4.91 43.93 5.13z" id="path831" fill="url(#SVGID_1_)"/></g><linearGradient id="SVGID_2_" gradientUnits="userSpaceOnUse" x1="43.42" y1="121.4" x2="72.433" y2="66.439"><stop offset=".059" id="stop835" stop-color="#000"/><stop offset=".09" id="stop837" stop-color="#00030f" stop-opacity=".966"/><stop offset=".238" id="stop839" stop-color="#00124d" stop-opacity=".809"/><stop offset=".385" id="stop841" stop-color="#001e84" stop-opacity=".654"/><stop offset=".526" id="stop843" stop-color="#0029b0" stop-opacity=".504"/><stop offset=".661" id="stop845" stop-color="#0031d2" stop-opacity=".36"/><stop offset=".788" id="stop847" stop-color="#0036eb" stop-opacity=".225"/><stop offset=".904" id="stop849" stop-color="#003afa" stop-opacity=".102"/><stop offset="1" id="stop851" stop-color="#003bff" stop-opacity="0"/></linearGradient><path d="M100.33 116.49V59.62c-.01-3.51-.53-6.9-1.44-10.12H27.06c-.91 3.22-1.4 6.61-1.4 10.12v11.04c0-.11 0-.21.01-.31 0 0-.32 26.66 30.73 41.01 17.63 8.15 32.12 4.91 43.93 5.13z" id="path854" fill="url(#SVGID_2_)" opacity=".6"/><g id="g863"><linearGradient id="SVGID_3_" gradientUnits="userSpaceOnUse" x1="445.701" y1="723" x2="601.819" y2="543.653" gradientTransform="rotate(-90 744.59 0)"><stop offset=".059" id="stop856" stop-color="#17dae3"/><stop offset="1" id="stop858" stop-color="#003bff"/></linearGradient><path d="M124.77 140.91h56.86c20.61.04 37.3 16.75 37.3 37.37 0 1.29-.07 2.56-.19 3.81-1.91 18.81-17.8 33.49-37.11 33.49H170.6c.11 0 .21 0 .31-.01 0 0-26.66.32-41.01-30.73-8.15-17.63-4.92-32.12-5.13-43.93z" id="path861" fill="url(#SVGID_3_)"/></g><linearGradient id="SVGID_4_" gradientUnits="userSpaceOnUse" x1="120.984" y1="195.797" x2="188.919" y2="162.538"><stop offset=".059" id="stop865" stop-color="#000"/><stop offset=".09" id="stop867" stop-color="#00030f" stop-opacity=".966"/><stop offset=".238" id="stop869" stop-color="#00124d" stop-opacity=".809"/><stop offset=".385" id="stop871" stop-color="#001e84" stop-opacity=".654"/><stop offset=".526" id="stop873" stop-color="#0029b0" stop-opacity=".504"/><stop offset=".661" id="stop875" stop-color="#0031d2" stop-opacity=".36"/><stop offset=".788" id="stop877" stop-color="#0036eb" stop-opacity=".225"/><stop offset=".904" id="stop879" stop-color="#003afa" stop-opacity=".102"/><stop offset="1" id="stop881" stop-color="#003bff" stop-opacity="0"/></linearGradient><path d="M124.77 140.91h56.86c3.51.01 6.9.53 10.12 1.44v71.82c-3.22.91-6.61 1.4-10.12 1.4H170.6c.11 0 .21 0 .31-.01 0 0-26.66.32-41.01-30.73-8.15-17.62-4.92-32.11-5.13-43.92z" id="path884" fill="url(#SVGID_4_)" opacity=".6"/><linearGradient id="SVGID_5_" gradientUnits="userSpaceOnUse" x1="132.909" y1="114.91" x2="-60.693" y2="271.771"><stop offset=".059" id="stop886" stop-color="#17dae3"/><stop offset="1" id="stop888" stop-color="#003bff"/></linearGradient><path d="M129.9 184.84c-8.15-17.63-4.91-32.12-5.13-43.93-.12-6.69-1.34-12.52-6.38-17.56-.08-.08-.18-.15-.26-.23l-.01.01c-.08-.08-.14-.18-.23-.26-5.04-5.04-10.88-6.25-17.56-6.38-11.81-.21-26.3 3.02-43.93-5.13-31.05-14.35-30.74-41.01-30.74-41.01 0 .11 0 .21-.01.31v66.6c0 25.11 9.02 43.57 21.88 56.46l.01-.01c12.89 12.86 31.34 21.88 56.46 21.88h66.6c.11 0 .21-.01.31-.01 0 0-26.66.31-41.01-30.74z" id="path891" fill="url(#SVGID_5_)"/></g></g></g></switch></g><style type="text/css" id="style824"></style></svg>