<svg width="221" height="283" fill="none" xmlns="http://www.w3.org/2000/svg"><path fill-rule="evenodd" clip-rule="evenodd" d="M118.246 61.187c-7.421.633-14.721 2.696-21.3 6.131l-.129.067-.054-.135a13.96 13.96 0 00-1.047-2.092 15.363 15.363 0 00-1.417-1.953 17.883 17.883 0 00-1.316-1.387 21.098 21.098 0 00-1.544-1.326l-.116-.09.103-.105c5.868-5.956 13.036-10.601 20.824-13.667 7.784-3.063 16.189-4.549 24.539-4.187l.084.004.032.077a95.001 95.001 0 011.593 4.177c.504 1.42.985 2.877 1.441 4.373.584 1.911.915 3.894.992 5.964.077 2.068-.098 4.225-.528 6.488l-.027.145-.141-.045c-7.052-2.277-14.581-3.071-21.989-2.44zM92.219 26.479c-5.658 4.852-10.455 10.317-14.475 15.257-1.047 1.288-2.06 2.616-2.926 3.991-.863 1.37-1.58 2.789-2.039 4.26l-.051.164-.145-.094a44.296 44.296 0 01-2.32-1.618 34.015 34.015 0 01-2.138-1.733c-2.398-2.117-4.137-4.349-5.232-6.728-1.097-2.384-1.548-4.914-1.37-7.624.195-2.938.972-5.863 2.27-8.64 1.296-2.776 3.112-5.403 5.386-7.749a31.713 31.713 0 017.544-5.74A30.316 30.316 0 0185.5 7.04c2.954-.569 6.039-.73 9.167-.489 3.126.241 6.298.884 9.427 1.922a44.31 44.31 0 015.573 2.285 46.801 46.801 0 015.315 3.059l.261.174-.307.063c-.56.114-1.103.25-1.62.396-.519.146-1.009.3-1.462.452-7.464 2.49-13.981 6.728-19.636 11.577zm54.162 182.74a44.91 44.91 0 0013.078-.52l.067-.014a2.044 2.044 0 001.229-.831c.279-.406.407-.911.31-1.424l-.014-.066a1.884 1.884 0 00-.192-.511 2.045 2.045 0 00-.987-.903 2.284 2.284 0 00-1.121-.18 67.45 67.45 0 01-12.354-.023 67.031 67.031 0 01-12.116-2.261 1.576 1.576 0 00-.877-.019 1.473 1.473 0 00-.712.474 1.816 1.816 0 00-.31.504c-.155.377-.174.79-.077 1.176.097.386.311.745.623 1.014.154.133.333.244.533.326a47.3 47.3 0 0012.92 3.258zm-34.888-52.631c13.122.135 26.192 2.771 38.312 7.901 2.494 1.056 4.906 2.428 7.268 4.141 2.36 1.711 4.672 3.763 6.969 6.18 2.198 2.312 4.234 4.803 6.106 7.293 1.87 2.488 3.576 4.972 5.116 7.275l.983 1.476.983 1.482c3.053 4.607 6.158 9.291 9.647 13.672 3.486 4.378 7.357 8.455 11.947 11.855l.051.037.002.064a7.731 7.731 0 01-.695 3.416c-.492 1.099-1.238 2.151-2.221 3.11a1.596 1.596 0 00-.282 1.919 1.6 1.6 0 001.776.783l.004-.001c1.069-.256 2.101-.503 3.259-.697l.186-.032-.036.185a35.803 35.803 0 01-2.946 8.776 38.615 38.615 0 01-5.177 7.956 38.807 38.807 0 01-5.909 5.702 36.33 36.33 0 01-6.848 4.205l-.016.007-1.333.267a1.505 1.505 0 00-.997.696l-.023.038-.041.016a37.434 37.434 0 01-2.044.708l-.167.062-.052-.108a18.976 18.976 0 00-3.772-5.266c-2.034-1.993-4.553-3.622-7.417-4.829-2.866-1.207-6.079-1.992-9.501-2.295-4.087-.363-8.055 0-11.659 1.02-3.6 1.018-6.836 2.692-9.459 4.951a19.788 19.788 0 00-3.721 4.293 19.757 19.757 0 00-2.359 5.161 18.208 18.208 0 00-.666 3.575 16.23 16.23 0 00.086 3.497l.02.149c-11.785-.103-23.57-.205-35.354-.322l.016-.144c.125-1.096.137-2.215.034-3.347a18.148 18.148 0 00-.65-3.407 19.753 19.753 0 00-2.36-5.162 19.825 19.825 0 00-3.72-4.293c-2.624-2.258-5.859-3.932-9.459-4.95-3.604-1.02-7.573-1.384-11.66-1.022-3.421.304-6.635 1.089-9.5 2.296-2.864 1.207-5.383 2.836-7.417 4.829a18.693 18.693 0 00-2.098 2.448 19.053 19.053 0 00-1.66 2.789l-.202.415-.046-.459a1.523 1.523 0 00-1.216-1.339l-3.927-.785-.018-.01a38.03 38.03 0 01-6.13-4.138 40.267 40.267 0 01-5.336-5.33 40.013 40.013 0 01-5.041-7.707 37.316 37.316 0 01-3.026-8.473l-.054-.239.229.088a15.525 15.525 0 004.792 1.035 1.604 1.604 0 001.529-.901 1.602 1.602 0 00-.242-1.759 11.572 11.572 0 01-2.416-4.335c-.471-1.573-.59-3.218-.314-4.783l.01-.052.042-.031c8.906-6.528 15.216-15.473 21.323-24.129l.012-.018c.99-1.403 2.014-2.855 3.04-4.281 3.398-4.726 7.222-9.65 11.631-13.93 4.415-4.284 9.416-7.922 15.164-10.07l.03-.011c12.325-4.879 25.498-7.247 38.62-7.112v-.001zm6.866 88.374a3.442 3.442 0 00-1.835-2.158 3.43 3.43 0 00-1.411-.329l-3.813-.062c-.028-2.24-.055-4.48-.079-6.72l.118-.013a15.714 15.714 0 008.566-3.712 21.46 21.46 0 001.987-1.945 21.989 21.989 0 001.73-2.193l.054-.081a2.544 2.544 0 00-.707-3.471l-.082-.054c-2.116-1.347-4.299-2.349-6.516-3.011a22.868 22.868 0 00-6.806-.967 23.38 23.38 0 00-6.635 1.046 23.763 23.763 0 00-6.104 2.886c-.562.373-.931.93-1.075 1.538a2.525 2.525 0 00.272 1.851 19.25 19.25 0 002.282 3.156 15.008 15.008 0 004.464 3.426 15.293 15.293 0 005.446 1.556l.118.011c.025 2.228.052 4.457.079 6.686l-1.832.008-2.314.014a3.344 3.344 0 00-2.805 1.546 3.347 3.347 0 00-.231 3.197 6.3 6.3 0 001.066 1.611 3.316 3.316 0 01.85 2.019c.027.482.051.937.072 1.38.022.433.041.852.059 1.273v.008a3.113 3.113 0 00.346 1.529c.237.45.589.831 1.036 1.103.24.146.496.255.763.329.27.074.553.112.839.112.29 0 .583-.039.87-.116.283-.076.561-.19.826-.34.69-.392 1.238-.996 1.623-1.764.389-.776.611-1.72.644-2.782l.003-.086.078-.032a1.87 1.87 0 01.631-.103c.22-.006.495.009.831.061a5.898 5.898 0 003.042-.355 5.88 5.88 0 002.465-1.817c.312-.396.57-.835.769-1.303.199-.469.339-.968.414-1.484.072-.49.036-.983-.097-1.448h-.001zm-45.357-35.743a47.299 47.299 0 0012.92-3.258 1.973 1.973 0 001.156-1.34 1.89 1.89 0 00-.077-1.176 1.829 1.829 0 00-.31-.504 1.481 1.481 0 00-.713-.474 1.576 1.576 0 00-.877.019 67.05 67.05 0 01-12.116 2.261c-4.154.388-8.31.391-12.355.023a2.29 2.29 0 00-1.12.179 2.062 2.062 0 00-1.142 1.276 1.756 1.756 0 00-.037.139l-.014.066c-.097.513.03 1.018.31 1.424.281.408.715.715 1.23.831l.066.014c4.29.816 8.704.98 13.078.52zm42.23-112.405a33.022 33.022 0 00-8.66-.075 33.198 33.198 0 00-7.15 1.68 31.185 31.185 0 00-6.455 3.174l-.17.11-.03-.201a19.145 19.145 0 01-.21-2.949c.006-.98.09-1.955.249-2.923.194-1.173.451-2.349.745-3.519a89.94 89.94 0 01.965-3.494l.014-.047.04-.026a30.246 30.246 0 0116.232-4.835h.108c3.127-.001 6.238.498 9.202 1.453a30.128 30.128 0 018.329 4.192l.096.069-.059.102a146.192 146.192 0 00-2.607 4.73 81.287 81.287 0 00-2.338 4.816l-.053.12-.119-.053a30.755 30.755 0 00-8.129-2.324z" fill="#EC7B1D"/><path fill-rule="evenodd" clip-rule="evenodd" d="M47.436 185.805c3.955-2.794 8.07-6.87 12.572-10.305 5.703-4.351 12.028-7.673 19.263-10.186 7.235-2.512 15.38-4.216 22.341-5.198 6.96-.982 12.737-1.242 18.932-.708 6.195.534 12.809 1.863 18.715 3.524 5.907 1.661 11.106 3.653 15.929 6.44 4.026 2.327 7.789 5.206 8.84 5.423-2.292-2.41-4.6-4.457-6.956-6.165-2.361-1.713-4.773-3.085-7.267-4.141-12.12-5.13-25.19-7.766-38.312-7.901-13.122-.134-26.295 2.233-38.62 7.112l-.03.012c-5.749 2.148-10.75 5.786-15.164 10.07-3.819 3.706-7.199 7.896-10.244 12.023zM118.246 61.187a58.066 58.066 0 00-4.467.556c-.16-2.082-.225-4.322-.665-6.592-.483-2.49-1.418-5.016-2.944-7.657a61.291 61.291 0 0116.017-4.534c.228.813.428 1.644.597 2.491 1.042 5.232.909 11.09-.052 15.638a57.636 57.636 0 00-8.486.098zm-13.639-43.204a25.202 25.202 0 00-2.142-.75c-5.69-1.704-12.044-1.357-14.672.578s-1.53 5.459.982 8.434a20.1 20.1 0 001.706 1.767c.57-.517 1.15-1.029 1.738-1.534 3.743-3.21 7.864-6.15 12.388-8.495z" fill="#F09448"/><path fill-rule="evenodd" clip-rule="evenodd" d="M103.809 64.319a54.646 54.646 0 00-6.864 2.999l-.128.067-.054-.135a13.96 13.96 0 00-1.047-2.092 15.354 15.354 0 00-1.417-1.953c-.403-.474-.841-.936-1.316-1.387a21.077 21.077 0 00-1.544-1.326l-.116-.09.103-.105a58.145 58.145 0 016.161-5.421c2.556 2.981 4.707 6.028 6.222 9.443zM77.541 9.793c-2.854 3.424-6.057 7.572-5.326 12.709.65 4.576 4.424 9.937 8.969 15.127a178.66 178.66 0 00-3.44 4.107c-1.047 1.288-2.06 2.616-2.926 3.991-.863 1.37-1.58 2.789-2.039 4.26l-.051.164-.145-.094a44.296 44.296 0 01-2.32-1.618 34.02 34.02 0 01-2.138-1.733c-2.398-2.117-4.137-4.349-5.232-6.728-1.097-2.384-1.548-4.914-1.37-7.624.195-2.938.972-5.863 2.27-8.64 1.296-2.776 3.112-5.403 5.386-7.749a31.713 31.713 0 018.362-6.172zm29.816 74.13c.088 1.794.154 3.501.243 5.063.091 1.531.186 4.954.969 7.57-.664.04-1.33.102-1.997.183a33.2 33.2 0 00-7.15 1.68 31.19 31.19 0 00-6.455 3.174l-.17.11-.03-.201a19.141 19.141 0 01-.21-2.949c.006-.98.09-1.955.249-2.923.193-1.173.451-2.349.745-3.519a89.94 89.94 0 01.965-3.494l.014-.047.04-.026a30.246 30.246 0 0112.787-4.622zm10.199 13.313c2.917-2.388 5.689-6.062 8.102-9.654.958.538 1.888 1.13 2.783 1.772l.096.069-.059.102a144.293 144.293 0 00-2.607 4.73 81.287 81.287 0 00-2.338 4.816l-.053.12-.119-.053a30.503 30.503 0 00-5.806-1.902h.001zM168.98 247.565a49.407 49.407 0 002.661-.728c9.342-2.853 14.656-7.936 19.207-12.542 2.402-2.432 4.592-4.73 6.604-7.103h.003l.003-.001c1.07-.256 2.102-.503 3.26-.697l.186-.032-.036.185a35.845 35.845 0 01-2.946 8.776 38.615 38.615 0 01-5.177 7.956 38.853 38.853 0 01-5.909 5.702 36.33 36.33 0 01-6.848 4.205l-.016.007-1.333.267a1.49 1.49 0 00-.569.242 1.53 1.53 0 00-.428.454l-.023.038-.042.016a36.184 36.184 0 01-2.044.708l-.166.061-.052-.107a18.976 18.976 0 00-3.772-5.266 21.598 21.598 0 00-2.563-2.141zM26.531 212.132c-1.383 12.019.26 19.662 11.65 26.175 4.812 2.75 11.023 4.633 17.495 6.002a28.14 28.14 0 00-1.462.568c-2.864 1.207-5.383 2.836-7.417 4.829a18.693 18.693 0 00-2.098 2.448 19.043 19.043 0 00-1.66 2.788l-.202.416-.046-.46a1.52 1.52 0 00-1.216-1.338l-3.927-.786-.018-.009a38.03 38.03 0 01-6.13-4.138 40.327 40.327 0 01-5.336-5.33 40.013 40.013 0 01-5.041-7.707 37.307 37.307 0 01-3.026-8.474l-.054-.239.229.089a15.525 15.525 0 004.792 1.035 1.605 1.605 0 001.674-1.818 1.6 1.6 0 00-.387-.842 11.584 11.584 0 01-2.416-4.336c-.471-1.573-.59-3.217-.314-4.782l.01-.052.042-.031a56.633 56.633 0 004.858-4.008zm58.042 36.201a428.65 428.65 0 0018.367 1.498c.117.309.187.635.205.966a216.952 216.952 0 01.132 2.653v.008a3.096 3.096 0 00.346 1.528 2.83 2.83 0 001.036 1.104c.239.145.496.255.762.328.271.075.554.112.84.112.29 0 .583-.038.87-.115.283-.077.561-.19.825-.34.69-.393 1.239-.997 1.623-1.764.389-.777.612-1.72.645-2.782l.003-.086.078-.032c.113-.046.318-.096.631-.104.22-.005.495.01.83.061a5.88 5.88 0 003.043-.355c.407-.16.796-.364 1.158-.608a438.19 438.19 0 0015.52.165 19.99 19.99 0 00-1.701 2.276 19.725 19.725 0 00-2.359 5.161 18.208 18.208 0 00-.666 3.575 16.219 16.219 0 00.086 3.496l.02.15c-11.785-.103-23.57-.206-35.354-.322l.016-.144c.125-1.096.137-2.216.034-3.348a18.178 18.178 0 00-.65-3.407 19.761 19.761 0 00-2.36-5.161 19.823 19.823 0 00-3.98-4.513z" fill="#E2633A"/><path fill-rule="evenodd" clip-rule="evenodd" d="M185.527 232.191c3.11 7.234 1.812 13.619-1.923 19.136a35.79 35.79 0 01-3.616 1.959l-.016.007-1.333.267a1.49 1.49 0 00-.569.242 1.53 1.53 0 00-.428.454l-.023.038-.041.016a36.184 36.184 0 01-2.045.708l-.166.061-.052-.107a18.976 18.976 0 00-3.772-5.266c-2.034-1.993-4.553-3.622-7.417-4.829-2.866-1.207-6.08-1.992-9.501-2.295-4.087-.363-8.056 0-11.659 1.02-3.6 1.018-6.836 2.692-9.459 4.951a19.788 19.788 0 00-3.721 4.293 19.725 19.725 0 00-2.359 5.161 18.208 18.208 0 00-.666 3.575 16.23 16.23 0 00.086 3.497l.02.149c-11.785-.103-23.57-.205-35.354-.322l.016-.144c.125-1.096.137-2.215.034-3.348a18.178 18.178 0 00-.65-3.407 19.761 19.761 0 00-2.36-5.161 19.82 19.82 0 00-3.72-4.293c-2.624-2.258-5.859-3.932-9.459-4.951-3.604-1.019-7.573-1.383-11.66-1.021-3.421.304-6.635 1.089-9.5 2.296-2.864 1.207-5.383 2.836-7.418 4.829a18.693 18.693 0 00-2.097 2.448 19 19 0 00-1.66 2.789l-.202.415-.046-.459a1.52 1.52 0 00-1.216-1.339l-3.927-.785-.018-.01a36.972 36.972 0 01-1.714-.986c-4.029-4.528-5.893-9.398-2.52-17.232 4.285-9.76 14.339-18.62 25.534-17.816 6.136.482 10.265 2.429 15.974 3.638 7.812 1.654 12.212-.011 19.385-2.619 7.704-2.802 14.111-3.612 22.298-2.814 5.708.557 9.579 2.041 14.719 4.423 6.911 3.203 12.622 1.992 19.624-.241 7.873-2.51 11.914-3.774 19.978-.137 5.989 2.701 11.89 7.06 14.619 13.21zm-67.168 12.771a3.434 3.434 0 00-3.246-2.487l-3.813-.062c-.028-2.24-.055-4.48-.079-6.72l.118-.013a15.746 15.746 0 004.565-1.204 15.738 15.738 0 004.001-2.508 21.587 21.587 0 001.987-1.945 21.989 21.989 0 001.73-2.193l.054-.081a2.544 2.544 0 00-.707-3.471l-.082-.054c-2.116-1.347-4.299-2.349-6.516-3.011a22.868 22.868 0 00-6.806-.967 23.38 23.38 0 00-6.635 1.046 23.763 23.763 0 00-6.104 2.886c-.562.373-.931.93-1.075 1.538a2.525 2.525 0 00.272 1.851 19.25 19.25 0 002.282 3.156 15.008 15.008 0 004.464 3.426 15.293 15.293 0 005.446 1.556l.118.011c.025 2.228.052 4.457.079 6.686l-1.832.008-2.314.014a3.344 3.344 0 00-2.805 1.546 3.347 3.347 0 00-.231 3.197 6.3 6.3 0 001.066 1.611 3.311 3.311 0 01.85 2.019c.027.482.051.937.072 1.38.022.432.041.852.059 1.273v.008a3.107 3.107 0 00.346 1.528 2.83 2.83 0 001.036 1.104 3.047 3.047 0 001.602.44c.29 0 .583-.038.87-.115.283-.076.561-.19.826-.34.69-.392 1.238-.997 1.623-1.764.389-.776.611-1.72.644-2.782l.003-.086.078-.032c.113-.046.318-.096.631-.103.22-.006.495.009.831.06a5.887 5.887 0 003.042-.354 5.89 5.89 0 002.465-1.817c.312-.396.57-.835.769-1.304.199-.468.339-.967.414-1.483.072-.49.036-.983-.097-1.448h-.001z" fill="#fff"/><path fill-rule="evenodd" clip-rule="evenodd" d="M187.125 237.901c.625 4.931-.801 9.409-3.521 13.426a35.79 35.79 0 01-3.616 1.959l-.016.007-1.333.267a1.49 1.49 0 00-.569.242 1.53 1.53 0 00-.428.454l-.023.038-.041.016a36.184 36.184 0 01-2.045.708l-.166.061-.052-.107a18.976 18.976 0 00-3.772-5.266 21.598 21.598 0 00-2.563-2.141 49.407 49.407 0 002.661-.728c6.937-2.119 11.652-5.467 15.484-8.936zm-55.637 12.669a19.998 19.998 0 00-1.702 2.276 19.757 19.757 0 00-2.359 5.161 18.208 18.208 0 00-.666 3.575 16.23 16.23 0 00.086 3.497l.02.149c-11.785-.103-23.57-.205-35.354-.322l.016-.144c.125-1.096.137-2.215.034-3.347a18.156 18.156 0 00-.65-3.407 19.756 19.756 0 00-2.36-5.162 19.82 19.82 0 00-3.98-4.513 428.68 428.68 0 0018.367 1.498c.117.309.187.635.206.967.026.481.051.936.072 1.379.022.433.041.852.059 1.273v.008a3.113 3.113 0 00.346 1.529c.237.45.589.831 1.036 1.103.239.146.496.255.763.329.27.074.553.112.839.112.29 0 .583-.039.87-.116.283-.076.561-.19.826-.34.689-.392 1.238-.996 1.623-1.764.389-.776.611-1.72.644-2.782l.003-.085.078-.033a1.87 1.87 0 01.631-.103c.22-.006.495.009.83.061a5.9 5.9 0 003.043-.355 6.062 6.062 0 001.158-.609 441.677 441.677 0 0015.521.165zm-75.812-6.261c-.497.177-.985.367-1.462.568-2.864 1.207-5.383 2.836-7.417 4.829a18.692 18.692 0 00-2.098 2.448 19.001 19.001 0 00-1.66 2.789l-.202.415-.046-.459a1.521 1.521 0 00-1.216-1.339l-3.927-.785-.018-.01a37.845 37.845 0 01-1.714-.986c-3.965-4.456-5.833-9.244-2.675-16.862 1.394 1.172 3.03 2.297 4.941 3.39 4.811 2.75 11.022 4.633 17.494 6.002z" fill="#E6E6E6"/><path fill-rule="evenodd" clip-rule="evenodd" d="M175.764 254.945l-.23.072-.167.062-.052-.107a18.976 18.976 0 00-3.772-5.266c-2.034-1.993-4.553-3.622-7.417-4.829-2.866-1.207-6.079-1.992-9.501-2.295-3.247-.289-6.42-.119-9.394.475-1.863-7.685-5.622-15.511-10.556-21.186a23.564 23.564 0 00-1.838-1.867c4.923 1.869 9.306 1.524 14.116.28 6.451 4.44 12.613 9.738 15.745 13.047 4.718 5.057 9.75 13.402 13.066 21.614zM73.687 243.179c-3.14-.691-6.514-.904-9.973-.598-3.421.304-6.635 1.089-9.5 2.296-2.864 1.207-5.383 2.836-7.418 4.829a18.692 18.692 0 00-3.099 3.997c3.31-7.803 8.073-15.57 12.553-20.372 3.238-3.42 9.713-8.967 16.397-13.493.73.187 1.478.366 2.257.531 4.227.895 7.456.818 10.665.146-.44.424-.874.871-1.297 1.356-4.96 5.705-8.732 13.584-10.585 21.308z" fill="#903A1F"/><path fill-rule="evenodd" clip-rule="evenodd" d="M175.764 254.945l-.23.072-.167.062-.052-.107a18.976 18.976 0 00-3.772-5.266 21.598 21.598 0 00-2.563-2.141 49.407 49.407 0 002.936-.814 84.366 84.366 0 013.848 8.194zM49.315 242.75a96.373 96.373 0 006.36 1.559c-.496.177-.983.367-1.461.568-2.864 1.207-5.383 2.836-7.417 4.829a18.692 18.692 0 00-3.1 3.997 86.016 86.016 0 015.618-10.953z" fill="#69271A"/><path d="M37.163 194.464a1.17 1.17 0 00-.357-.372c-5.947-3.929-10.27-10.342-11.726-17.323 3.077-.451 6.125.346 8.504 2.256a1.18 1.18 0 001.92-.915c.003-.614.043-1.148.1-1.656 4.102.502 7.735 2.5 10.32 5.699l.044.049a179.422 179.422 0 00-2.627 3.564c-1.03 1.432-2.066 2.901-3.068 4.321a526.4 526.4 0 01-3.11 4.377zm55.733-92.981a18.702 18.702 0 01.039-5.832c.385-2.334 1.026-4.688 1.706-6.997a30.095 30.095 0 0116.161-4.815h.107a30.09 30.09 0 0117.456 5.621c-1.794 3.131-3.514 6.307-4.952 9.558-5.165-2.292-10.974-3.125-16.856-2.41-4.978.606-9.639 2.276-13.66 4.875zm29.317.448c-1.373 3.615-2.332 7.329-2.606 11.181a53.011 53.011 0 00-11.368-.58c-3.179.159-6.353.49-9.483 1.072-2.088-2.426-3.666-5.024-4.703-7.747a22.598 22.598 0 01-.385-1.096c3.825-2.703 8.373-4.431 13.269-5.026 5.346-.65 10.612.109 15.276 2.196zm-70.925 73.725a105.33 105.33 0 00-3.844 4.631c-3.219-3.772-7.743-6-12.795-6.289a1.182 1.182 0 00-1.236 1.013c-.045.315-.09.634-.131.967-2.934-1.653-6.424-2.127-9.856-1.289a1.18 1.18 0 00-.886 1.337c1.313 8.05 6.16 15.54 12.965 20.036.12.079.248.131.38.162a159.207 159.207 0 01-2.553 3.39c-11.003-7.925-18.711-20.443-20.892-33.827 13.581-2.218 27.973 1.436 38.848 9.869zm115.263-3.019c-3.939-4.162-8.329-7.754-13.388-10.269a31.18 31.18 0 0117.83-8.27 5.143 5.143 0 01-.258.748 1.703 1.703 0 001.991 2.32c10.166-2.608 21.229-.794 30.136 4.706-12.869-.896-26.02 2.956-36.311 10.765zm13.457 17.857a805.239 805.239 0 00-1.974-2.969 170.108 170.108 0 00-4.51-6.451c2.492-2.568 5.744-4.177 9.363-4.62.057.508.097 1.042.1 1.656a1.18 1.18 0 001.92.915c2.379-1.91 5.427-2.707 8.504-2.256-1.416 6.786-5.541 13.034-11.233 16.987-.729-1.087-1.451-2.177-2.17-3.262zm6.2 9.094a184.126 184.126 0 01-2.709-3.875c6.535-4.528 11.172-11.841 12.452-19.687a1.18 1.18 0 00-.886-1.337c-3.432-.837-6.921-.364-9.856 1.29a49.982 49.982 0 00-.131-.969 1.182 1.182 0 00-1.169-1.014l-.068.002c-4.529.259-8.633 2.077-11.754 5.169a92.393 92.393 0 00-3.243-3.989c10.798-8.093 24.899-11.566 38.22-9.391-2.179 13.37-9.873 25.874-20.856 33.801zm-77.08-81.968c3.821-.027 7.649.3 11.44.966a1.641 1.641 0 00.759.137c7.523 1.413 14.889 4.166 21.753 8.166 10.028 5.844 18.271 13.937 23.938 23.474-1.492.34-2.931.919-4.354 1.477-2.306.879-4.53 1.966-6.695 3.149-1.931 1.113-3.813 2.33-5.574 3.699a29.36 29.36 0 00-1.027.872c-5.111-2.103-11.891-3.989-17.961-5.231-3.888-.758-7.825-1.249-11.767-1.622-3.506-.328-7.022-.57-10.544-.6-7.071-.009-14.128.843-21.075 2.12-2.972.558-5.89 1.372-8.783 2.247-2.016.603-4.034 1.207-6.007 1.94-1.417.558-2.846 1.114-4.202 1.81a34.639 34.639 0 00-17.297-9.069c5.529-9.603 13.648-17.801 23.58-23.781 10.46-6.298 22.153-9.67 33.816-9.754zm-14.73-54.5a19.447 19.447 0 00-2.88-2.73c11.709-11.883 28.599-18.538 45.266-17.816a98.128 98.128 0 013.03 8.538c1.161 3.802 1.316 7.883.461 12.39-14.151-4.57-30.208-3.181-43.39 3.7-.583-1.458-1.41-2.814-2.486-4.081zm-5.513-4.541a44.45 44.45 0 00-4.355-2.31c-2.938-1.372-6.087-2.888-9.071-4.606.623-2.764 2.548-5.467 4.627-8.022 7.779-9.56 18.528-21.14 32.724-25.876 2.327-.776 4.261-1.119 5.894-1.03a46.99 46.99 0 011.745 1.503c6.013 5.447 11.019 12.531 14.955 21.145-17.233-.306-34.532 6.804-46.52 19.196h.001zm-16.23-8.631c-1.593-1.04-3.097-2.15-4.444-3.34-4.767-4.21-6.912-8.869-6.556-14.245.386-5.845 3.091-11.636 7.617-16.307 4.422-4.563 10.195-7.72 16.254-8.887 5.884-1.134 12.292-.64 18.529 1.428 3.78 1.254 7.451 3.062 10.856 5.329a26.76 26.76 0 00-3.097.852c-14.966 4.993-26.123 16.986-34.17 26.876-2.102 2.583-4.064 5.33-4.99 8.293zm66.898 16.63c-.072.26-.147.52-.225.783-1.816 6.093-5.1 12.058-7.412 16.016l-1.107 1.887c-.286.486-.572.973-.857 1.461a33.257 33.257 0 00-19.043-6.035h-.119a33.238 33.238 0 00-14.849 3.592c1.007-3.486 1.884-7.075 1.985-10.798a17.29 17.29 0 00-.193-3.167c12.632-6.82 28.183-8.224 41.82-3.74zm-92.775 90.588a1.704 1.704 0 001.99-2.32 5.112 5.112 0 01-.257-.747 31.172 31.172 0 0117.683 8.132c-.112.298-.075.608.06.869-3.617 2.009-7.117 4.649-10.59 7.982a70.755 70.755 0 00-2.06 2.059c-10.384-8.146-23.82-12.184-36.962-11.269 8.907-5.499 19.97-7.314 30.136-4.706zm-20.676 93.166l-12.7-2.541c-3.638-.727-6.76-4.223-7.422-8.312-.62-3.819.647-8.057 3.473-11.626a22.262 22.262 0 013.008-3.098c.186 1.261.48 2.504.796 3.739.427 1.665.84 3.339 1.407 4.963.532 1.454 1.24 2.831 1.97 4.194 2.39 4.631 5.55 8.844 9.271 12.489l.197.192zm-9.23-28.684l.209-.122c.03.071.059.141.09.211l-.3-.089zm31.855 47.414c-3.162-2.192-4.674-5.94-3.853-9.547.63-2.77 2.128-5.422 4.216-7.468 3.531-3.459 8.828-5.662 14.914-6.201.94-.083 1.874-.124 2.795-.124 6.22 0 11.904 1.878 15.896 5.314 5.044 4.343 7.01 11.391 4.673 16.759-1.453 3.337-4.365 5.495-8.903 6.599-4.465 1.086-9.485.883-12.873.636a33.956 33.956 0 01-16.865-5.968zm120.886 0a33.96 33.96 0 01-16.866 5.968c-3.388.247-8.408.45-12.873-.636-4.538-1.104-7.45-3.262-8.902-6.599-2.337-5.368-.372-12.416 4.673-16.759 3.992-3.436 9.674-5.314 15.896-5.314.92 0 1.854.041 2.795.124 6.086.539 11.382 2.742 14.914 6.201 2.088 2.046 3.585 4.698 4.215 7.468.822 3.608-.691 7.355-3.852 9.547zm9.001-15.631a1.65 1.65 0 00-1.083.757c-.672.256-1.351.492-2.037.705l-.061.022a19.034 19.034 0 00-3.798-5.302c-4.093-4.009-10.13-6.553-16.999-7.162-8.207-.728-15.939 1.461-21.215 6.003a20.085 20.085 0 00-6.119 9.517c-.702 2.421-.895 4.829-.585 7.125l-35.058-.319c.251-2.2.048-4.497-.621-6.806a20.093 20.093 0 00-6.12-9.517c-5.276-4.542-13.009-6.73-21.215-6.003-6.869.609-12.905 3.153-16.998 7.162a19.022 19.022 0 00-3.784 5.273 1.655 1.655 0 00-1.32-1.455l-3.909-.781c-4.286-2.316-8.166-5.51-11.428-9.437-3.994-4.808-6.738-10.328-8.04-16.125a15.66 15.66 0 004.832 1.044 1.733 1.733 0 001.393-2.877c-2.236-2.528-3.242-5.927-2.699-9.009 8.924-6.542 15.24-15.496 21.353-24.162.998-1.414 2.03-2.877 3.05-4.296 6.79-9.442 15.277-19.672 26.737-23.954l.031-.012c24.62-9.745 52.626-9.458 76.833.787 4.969 2.104 9.611 5.47 14.194 10.291 4.39 4.619 8.129 9.948 11.207 14.551.656.981 1.311 1.968 1.966 2.957 6.11 9.219 12.424 18.746 21.626 25.56.072 2.272-.932 4.53-2.877 6.428a1.732 1.732 0 001.616 2.923c1.067-.255 2.096-.502 3.254-.697-1.174 6.008-3.947 11.732-8.095 16.673-3.582 4.266-7.916 7.622-12.712 9.873l-1.319.263zm28.198-5.64l-13.969 2.795c.881-.98 1.74-1.98 2.562-3.01 3.754-4.555 6.889-9.627 9.123-15.098.874-2.087 1.473-4.285 1.834-6.517.072-.693.27-1.442.225-2.148 1.646 1.255 3.031 2.596 4.175 4.04 2.825 3.569 4.091 7.807 3.472 11.626-.663 4.089-3.784 7.585-7.422 8.312zm-3.841-26.357l.107.061-.113-.009.006-.052zm12.456 2.516c-3.224-4.123-7.436-7.231-13.597-11.168-3.197-3.37-6.483-6.835-9.67-10.278 5.225-4.487 9.708-9.874 13.347-16.039a67.88 67.88 0 008.207-21.692 2.047 2.047 0 00-.524-1.796c-9.367-9.888-23.478-14.488-37.29-12.291l-.124-1.395a2.05 2.05 0 00-2.229-1.857c-.829.078-1.577.147-2.527.107-2.622-6.565-9.098-14.002-18.004-20.621-8.759-6.511-18.718-11.338-27.711-13.479.569-9.574 6.007-18.547 10.822-26.489 3.095-5.104 6.048-10.126 8.162-15.447 2.846-7.16 3.35-14.959 1.458-22.553-2.317-9.296-6.646-18.151-12.519-25.607a67.203 67.203 0 00-13.455-12.884 67.196 67.196 0 00-16.46-8.723 2.055 2.055 0 00-.364-.095c-8.377-1.38-15.04-1.412-20.966-.1-7.346 1.625-13.904 5.504-18.468 10.924-4.849 5.758-7.31 13.146-6.768 20.294-.5 6.787 2.717 13.844 8.842 19.387 5.248 4.75 11.769 7.83 18.04 10.45.374.187.746.394 1.107.616 5.283 3.252 7.87 9.572 6.44 15.725-.986 4.237-1.934 8.655-2.853 12.93-2.022 7.95-.148 16.405 4.785 22.482-9.683 2.582-18.276 6.308-25.587 11.096-9.199 6.025-16.416 13.826-20.923 22.604l-3.854 1.271a2.048 2.048 0 00-1.344 1.448c-12.067-1.374-24.804 2.677-33.966 10.972a2.048 2.048 0 00-.67 1.616c.73 15.213 8.665 30.238 20.853 39.715a35.09 35.09 0 01-8.649 7.65l-.068.042c-.85.529-2.015 1.253-2.638 2.574a3.789 3.789 0 00-.278 2.303c-4.41 1.919-8.129 4.659-10.819 7.994-3.445 4.271-5.19 9.597-4.785 14.612a17.237 17.237 0 001.107 4.823c2.035 5.268 6.624 9.102 12.277 10.256 9.392 1.917 17.907 4.249 25.332 6.935.341 5.635 3.326 11.162 8.18 15.024 4.513 3.591 10.441 5.693 17.142 6.078 1.603.093 3.116.137 4.55.137 15.79-.001 21.512-5.359 23.315-10.635 11.229.13 22.78.271 34.103.579 1.13 2.8 3.667 5.235 7.433 7.108 4.227 2.103 8.936 3.308 13.996 3.582.741.04 1.484.06 2.227.06 4.026 0 8.086-.587 12.097-1.752 5.822-1.691 9.947-4.223 12.611-7.742 3.012-3.979 3.895-8.975 4.674-13.383l.077-.432c9.893-2.456 19.867-4.459 29.263-6.303 5.734-.966 10.571-6.226 11.507-12.522.788-5.294-.977-11.167-4.844-16.111zm-100.352 20.914c.412.006.665.233.78.368.199.233.283.529.239.832a3.484 3.484 0 01-.696 1.655c-.753.955-2.067 1.473-3.269 1.289-3.33-.511-4.091 1.267-4.245 1.824-.031.113-.046.23-.045.348.021 1.986-.737 2.633-1.063 2.819-.366.208-.7.157-.875.051-.062-.038-.252-.154-.236-.55a1.803 1.803 0 000-.104 194.99 194.99 0 00-.135-2.732 5.684 5.684 0 00-1.466-3.491 3.852 3.852 0 01-.659-.992.96.96 0 01.067-.923.957.957 0 01.809-.446c2.447-.015 3.897-.023 4.971-.023 1.4 0 2.162.013 3.665.039l2.158.036zm7.882-20.75c-4.283-2.727-8.839-4.047-13.393-3.998-4.531.048-9.034 1.451-12.81 3.953a2.668 2.668 0 00-.844 3.563 19.148 19.148 0 002.298 3.178c2.679 3 6.272 4.678 9.996 5.025l.076 6.437c-.969.003-2.227.01-4.015.021a3.475 3.475 0 00-2.914 1.607c-.64.999-.73 2.24-.24 3.32a6.34 6.34 0 001.088 1.646c.487.536.776 1.224.816 1.939.055.974.096 1.818.131 2.65-.028 1.153.51 2.176 1.445 2.746a3.2 3.2 0 001.67.461 3.56 3.56 0 001.76-.474c1.427-.811 2.267-2.496 2.334-4.655.176-.072.609-.155 1.392-.035 2.103.323 4.314-.549 5.63-2.22a6.015 6.015 0 001.21-2.85 3.566 3.566 0 00-3.472-4.083l-2.155-.036c-.598-.01-1.08-.018-1.531-.024l-.076-6.475a15.828 15.828 0 008.637-3.743 21.82 21.82 0 003.739-4.163 2.677 2.677 0 00-.771-3.79h-.001zm-37.891-21.753c-7.994 2.278-16.426 3.007-24.424 2.279-.807-.073-1.615.257-2.086.916a2.197 2.197 0 00-.353.781c-.258 1.147.542 2.271 1.696 2.49 8.632 1.643 17.76.651 26.071-2.745 1.284-.525 1.725-2.175.82-3.226-.395-.458-.972-.71-1.724-.495zm76.023 3.679a2.179 2.179 0 00-.262-.484c-.472-.659-1.28-.989-2.087-.916-7.998.728-16.43-.001-24.423-2.279-.752-.215-1.33.037-1.724.495-.905 1.051-.465 2.701.819 3.226 8.312 3.396 17.439 4.388 26.071 2.745 1.155-.219 1.955-1.343 1.696-2.49a1.952 1.952 0 00-.09-.297z" fill="#570701"/><path fill-rule="evenodd" clip-rule="evenodd" d="M110.204 44.35c-7.952 3.28-15.25 8.142-21.225 14.319l-.073.076-.09-.055a38.37 38.37 0 00-2.04-1.16 50.96 50.96 0 00-2.301-1.143c-1.47-.687-2.993-1.41-4.522-2.175a89.718 89.718 0 01-4.56-2.436l-.083-.048.021-.094c.315-1.398.958-2.777 1.784-4.129.822-1.345 1.826-2.664 2.87-3.946 3.893-4.785 8.53-10.076 13.971-14.764 5.446-4.692 11.697-8.78 18.813-11.154 1.17-.39 2.242-.672 3.226-.844.987-.174 1.889-.238 2.716-.193l.043.002.033.027a44.03 44.03 0 011.749 1.508c3.013 2.73 5.773 5.868 8.273 9.402 2.501 3.535 4.742 7.469 6.714 11.786l.086.188-.207-.003c-8.606-.153-17.23 1.548-25.198 4.836zm49.993 122.638c-2.215-1.727-4.57-3.25-7.092-4.503l-.168-.084.137-.129a31.223 31.223 0 018.285-5.601 31.158 31.158 0 019.62-2.703l.188-.021-.047.183c-.03.118-.066.241-.11.369a6.787 6.787 0 01-.154.398 1.578 1.578 0 00.252 1.643 1.573 1.573 0 001.585.499c5.074-1.301 10.37-1.505 15.512-.702a39.763 39.763 0 0114.726 5.424l.45.278-.528-.037c-6.435-.448-12.941.294-19.122 2.127-6.151 1.823-11.981 4.727-17.101 8.612l-.094.071-.08-.085c-1.965-2.076-4.042-4.011-6.259-5.74v.001zm-99.213-.289a57.895 57.895 0 00-5.23 4.477c-.344.33-.687.666-1.03 1.008-.35.351-.692.7-1.026 1.047l-.082.085-.093-.073c-5.164-4.051-11.085-7.083-17.348-8.993-6.3-1.921-12.95-2.705-19.525-2.248l-.528.037.451-.278a39.778 39.778 0 0114.726-5.424c5.142-.803 10.438-.599 15.51.703a1.576 1.576 0 001.838-2.143c-.059-.14-.11-.272-.153-.398a4.675 4.675 0 01-.11-.368l-.047-.183.188.021a31.129 31.129 0 019.527 2.66 31.245 31.245 0 018.23 5.506l.065.06-.031.082a.909.909 0 00-.055.38c.009.134.047.265.108.384l.058.112-.11.061a45.84 45.84 0 00-5.333 3.485zm26.941 92.297c.838 3.004.743 6.139-.438 8.851a10.176 10.176 0 01-3.336 4.19c-1.49 1.105-3.369 1.928-5.655 2.484-2.243.545-4.624.767-6.868.821-2.245.054-4.35-.058-6.045-.182a33.961 33.961 0 01-8.86-1.857 34.197 34.197 0 01-8.07-4.133 9.635 9.635 0 01-3.468-4.302 9.002 9.002 0 01-.438-5.382 15.053 15.053 0 011.575-4.041 15.726 15.726 0 012.676-3.491c1.778-1.742 4-3.167 6.54-4.223s5.398-1.745 8.454-2.015a32.489 32.489 0 012.807-.126c3.131 0 6.13.475 8.846 1.384 2.705.904 5.132 2.239 7.135 3.963 2.542 2.188 4.308 5.059 5.145 8.059zm74.876-11.265c2.541 1.056 4.762 2.481 6.54 4.223a15.745 15.745 0 012.677 3.491 15.06 15.06 0 011.575 4.041 9.01 9.01 0 01-.439 5.382 9.638 9.638 0 01-3.467 4.302 34.196 34.196 0 01-8.072 4.133 33.992 33.992 0 01-8.859 1.857c-1.695.124-3.8.236-6.044.182-2.245-.054-4.626-.276-6.868-.821-2.287-.556-4.165-1.379-5.656-2.484a10.168 10.168 0 01-3.336-4.19c-1.181-2.712-1.275-5.847-.438-8.851.837-3 2.603-5.871 5.145-8.059 2.003-1.725 4.43-3.059 7.135-3.964 2.717-.908 5.715-1.383 8.847-1.383a31.803 31.803 0 012.806.126c3.056.27 5.915.959 8.454 2.015zm37.701-7.556a55.899 55.899 0 003.906-7.746c.427-1.022.788-2.07 1.088-3.135.31-1.102.554-2.222.736-3.349.024-.23.062-.468.1-.709.076-.472.153-.957.124-1.415l-.018-.285.228.173c.827.63 1.589 1.283 2.288 1.959a21.515 21.515 0 011.91 2.105c1.423 1.797 2.454 3.764 3.051 5.762.598 2.001.761 4.035.448 5.964a10.934 10.934 0 01-2.627 5.484c-1.336 1.496-3.051 2.568-4.898 2.937l-14.356 2.871.264-.293c.442-.492.876-.986 1.301-1.483a59.54 59.54 0 001.255-1.52l.002-.002a61.691 61.691 0 005.198-7.318zm-179.664 3.962a49.969 49.969 0 005.159 5.909l.512.5-13.133-2.626c-1.847-.37-3.562-1.441-4.898-2.938a10.94 10.94 0 01-2.627-5.483c-.313-1.929-.15-3.963.448-5.964.597-1.998 1.628-3.965 3.051-5.763.435-.549.904-1.083 1.407-1.601a23.783 23.783 0 011.62-1.516l.18-.154.034.234c.091.626.211 1.25.347 1.871.136.62.288 1.239.446 1.856l.117.457c.387 1.512.774 3.028 1.286 4.493.265.724.573 1.428.905 2.12a53.1 53.1 0 001.057 2.057l.001.002a47.638 47.638 0 004.089 6.546zm23.943-60.127c-.444.602-.889 1.213-1.334 1.832-1.02 1.419-2.061 2.894-3.067 4.32-.512.725-1.025 1.453-1.547 2.189a378.09 378.09 0 01-1.564 2.189l-.115.16-.102-.168a1.05 1.05 0 00-.318-.331c-2.983-1.971-5.56-4.565-7.574-7.54-2.02-2.984-3.476-6.354-4.208-9.865l-.029-.136.138-.02c1.559-.229 3.112-.14 4.576.248a10.889 10.889 0 014.029 2.035 1.044 1.044 0 001.11.129 1.052 1.052 0 00.597-.943 14.562 14.562 0 01.1-1.67l.016-.132.13.016c2.07.254 4.023.886 5.783 1.858a15.685 15.685 0 014.624 3.89l.112.123-.065.087c-.428.564-.859 1.141-1.293 1.729zm132.947-6.162a15.982 15.982 0 015.143-1.524l.131-.017.015.132a14.74 14.74 0 01.1 1.67 1.052 1.052 0 001.708.814 10.868 10.868 0 014.029-2.035 11.383 11.383 0 014.576-.248l.137.02-.028.136c-.712 3.411-2.105 6.687-4.035 9.606-1.929 2.916-4.393 5.477-7.251 7.462l-.109.076-.074-.111c-.38-.566-.741-1.107-1.09-1.633l-2.068-3.117-.986-1.481a208.12 208.12 0 00-2.213-3.245 148.162 148.162 0 00-2.294-3.202l-.065-.089.077-.079a15.568 15.568 0 014.297-3.135zm-62.877-60.137c1.918.162 3.833.411 5.739.746l.015.002.015.007a1.515 1.515 0 00.609.129l.108-.003.014.003a66.988 66.988 0 0111.169 3.127 69.89 69.89 0 0110.625 5.054 69.266 69.266 0 0113.624 10.365 64.806 64.806 0 0110.361 13.156l.092.154-.176.04c-1.404.32-2.767.855-4.113 1.384l-.221.087c-1.153.439-2.282.93-3.392 1.457a65.6 65.6 0 00-3.288 1.684 56.373 56.373 0 00-2.842 1.748 43.377 43.377 0 00-2.714 1.94 25.794 25.794 0 00-1.021.867l-.061.054-.075-.031c-2.453-1.01-5.292-1.969-8.251-2.831a124.243 124.243 0 00-9.685-2.393 101.98 101.98 0 00-5.856-.954c-1.963-.264-3.931-.48-5.899-.666a157.776 157.776 0 00-5.261-.411 100.99 100.99 0 00-5.272-.188c-3.529-.005-7.057.206-10.57.577s-7.01.903-10.48 1.54a65.205 65.205 0 00-4.412 1.003c-1.453.38-2.906.803-4.356 1.241-1.005.301-2.01.602-3.019.921a66.037 66.037 0 00-2.98 1.016l-.164.065c-1.36.535-2.73 1.075-4.025 1.739l-.083.043-.067-.066a34.511 34.511 0 00-17.232-9.034l-.179-.035.091-.158a64.849 64.849 0 0110.167-13.283 69.274 69.274 0 0113.46-10.545 69.146 69.146 0 0116.488-7.22c5.7-1.645 11.551-2.511 17.394-2.552a62.47 62.47 0 015.724.221h-.001zm-18.954-7.804a24.532 24.532 0 01-2.167-4.555 20.292 20.292 0 01-.186-.551l-.029-.092.078-.055a28.084 28.084 0 016.269-3.321 30.213 30.213 0 017.06-1.728 30.12 30.12 0 017.924.071 27.853 27.853 0 017.421 2.136l.112.05-.043.115a44.93 44.93 0 00-1.711 5.486 34.933 34.933 0 00-.888 5.658l-.01.142-.14-.023a53.19 53.19 0 00-11.341-.578 78.78 78.78 0 00-4.752.378 65.332 65.332 0 00-4.714.692l-.074.014-.049-.057a28.318 28.318 0 01-2.76-3.782zm24.952-27.54a32.944 32.944 0 00-9.94-1.546h-.119a32.8 32.8 0 00-7.585.923A33.282 33.282 0 0096 84.398l-.268.136.084-.288c.502-1.739.972-3.503 1.329-5.3.356-1.792.6-3.614.65-5.465.015-.547.007-1.083-.025-1.608a16.23 16.23 0 00-.166-1.536l-.014-.091.081-.044c6.335-3.42 13.403-5.482 20.596-6.126 7.185-.642 14.496.13 21.327 2.377l.118.04-.143.511-.116.394c-.91 3.055-2.188 6.076-3.528 8.829-1.338 2.751-2.739 5.235-3.896 7.216l-2.037 3.47-.116-.081a33.05 33.05 0 00-9.027-4.465z" fill="#903B1F"/><path fill-rule="evenodd" clip-rule="evenodd" d="M110.204 44.35c-.538.221-1.073.451-1.605.687-2.453-3.504-5.955-7.23-9.657-10.301-2.113-1.753-4.29-3.291-6.239-4.838.413-.37.83-.738 1.253-1.103 4.171-3.593 8.815-6.833 13.957-9.22 3.501 1.978 6.697 4.729 9.571 7.97 3.192 3.598 5.987 7.802 7.795 12.633a64.347 64.347 0 00-15.075 4.172zm15.194 21.03c.201-.449.39-.933.565-1.448a54.714 54.714 0 00-11.838.675c.489 2.606 1.548 4.778 3.668 5.476 2.204.727 5.554-.14 7.605-4.703zM65.314 134.589c12.569-6.573 21.243-12.318 35.855-13.829 11.584-1.197 23.512-.297 34.54 3.584 4.263 1.516 7.751 3.173 11.735 5.149a70.572 70.572 0 00-14.924-7.77 66.896 66.896 0 00-11.169-3.128l-.014-.003-.108.003a1.502 1.502 0 01-.609-.129l-.015-.007-.015-.002a64.527 64.527 0 00-5.739-.746 62.443 62.443 0 00-5.724-.221c-5.843.041-11.694.907-17.394 2.551a69.188 69.188 0 00-16.488 7.221 69.701 69.701 0 00-10.183 7.454l.252-.127zM200.6 160.431c-1.938-.414-5.327-1.779-8.861-2.488-4.004-.803-8.194-.764-11.719-.456-3.525.309-6.385.886-8.161.886-1.776 0-2.469-.577-3.307-.837-.837-.26-1.819-.202-3.986.765-2.166.968-5.516 2.845-7.841 3.885-1.009.451-1.825.745-2.486.887a37.997 37.997 0 00-1.135-.588l-.168-.084.137-.129a31.223 31.223 0 018.285-5.601 31.158 31.158 0 019.62-2.703l.188-.021-.047.184a4.66 4.66 0 01-.11.368 6.787 6.787 0 01-.154.398 1.579 1.579 0 00.252 1.643 1.573 1.573 0 001.585.499c5.074-1.301 10.37-1.505 15.512-.702a39.906 39.906 0 0112.396 4.094zm-180.477-.615c3.009-.662 7.343-1.83 11.12-2.363 5.011-.708 9.042-.298 12.472.225 3.431.523 6.261 1.158 7.749 1.144 1.487-.015 1.632-.679 1.752-1.409.12-.73.215-1.526 2.831-1.053.804.145 1.846.411 2.942.719a31.155 31.155 0 00-10.465-3.111l-.188-.021.046.184a5.813 5.813 0 00.265.766 1.576 1.576 0 01-.973 2.119 1.586 1.586 0 01-.865.023c-5.073-1.301-10.37-1.505-15.51-.702a39.934 39.934 0 00-11.176 3.479zm65.535 94.341c-.9-.788-2.041-1.853-3.294-2.816-2.159-1.658-4.647-3.012-7.776-3.749-3.13-.737-6.899-.857-10.458-.462-3.56.395-6.91 1.305-9.045 1.898-1.891.526-2.827.804-3.252.654a22.494 22.494 0 013.705-1.952c2.539-1.055 5.398-1.744 8.454-2.015a31.764 31.764 0 012.806-.125c3.132 0 6.13.475 8.846 1.383 2.706.905 5.132 2.24 7.135 3.964a16.653 16.653 0 012.88 3.22zm45.875 1.982c.953-.758 2.758-2.867 4.823-4.499 2.065-1.632 4.39-2.787 6.787-3.567 2.397-.78 4.867-1.184 7.82-1.198 2.953-.015 6.39.361 8.982.974 2.592.614 4.34 1.466 5.693 2.122 1.096.531 1.933.932 2.468.882-1.535-1.249-3.323-2.298-5.306-3.123-2.539-1.055-5.398-1.744-8.454-2.014a32.585 32.585 0 00-2.806-.126c-3.132 0-6.13.475-8.847 1.383-2.705.905-5.132 2.239-7.135 3.964a16.707 16.707 0 00-4.054 5.224l.028-.023.001.001z" fill="#9B4F35"/><path fill-rule="evenodd" clip-rule="evenodd" d="M28.918 186.297c1.754.004 3.507-.436 5.26-1.249 2.997-1.388 5.994-3.863 7.708-6.589 1.56.937 2.959 2.15 4.14 3.612l.113.123-.066.087a185.435 185.435 0 00-2.626 3.561c-1.02 1.419-2.061 2.894-3.067 4.32-.512.725-1.025 1.453-1.547 2.189-.511.721-1.031 1.45-1.563 2.19l-.116.16-.102-.169a1.045 1.045 0 00-.318-.331c-2.983-1.971-5.56-4.565-7.574-7.54a29.826 29.826 0 01-.242-.364zM178.478 177.502c.067.345.141.68.226 1.003.867 3.294 2.773 5.258 5.604 6.442 1.585.664 3.461 1.082 5.398 1.144l-.202.311c-1.929 2.916-4.393 5.477-7.251 7.462l-.046.031c-.385-.528-.789-1.089-1.213-1.678l-.014-.021-2.068-3.117-.986-1.481a208.12 208.12 0 00-2.213-3.245 149.124 149.124 0 00-2.293-3.202l-.066-.089.077-.08a15.6 15.6 0 015.047-3.48z" fill="#692614"/><path fill-rule="evenodd" clip-rule="evenodd" d="M55.183 171.73c-.573-1.205-1.926-2.515-3.359-3.577-1.733-1.285-3.581-2.21-4.231-2.267-.65-.058-.101.751-.563.592-.463-.159-1.935-1.286-3.943-2.325-2.007-1.04-4.549-1.993-6.44-2.686-1.892-.694-3.134-1.127-3.495-1.084-.361.044.159.564-.029.795-.188.231-1.083.173-2.802-.087-1.718-.26-4.26-.722-7.596-.476-2.145.157-4.62.608-6.093 1.109l-.059.037-.45.278.527-.037c6.576-.458 13.224.327 19.525 2.248 6.263 1.909 12.184 4.942 17.348 8.993l.093.073.082-.085a73.546 73.546 0 011.485-1.502v.001zm110.674-1.252c1.466-.982 4.167-2.917 6.708-4.477 2.542-1.56 4.925-2.744 5.863-2.946.939-.202.434.578.498.744.065.166.701-.282 2.094-.78 1.394-.498 3.546-1.047 5.546-1.61 2-.564 3.848-1.141 4.39-1.206.541-.065-.224.383-.13.614.094.23 1.047.245 3.097.317 2.051.072 5.199.202 7.517.455.577.063 1.102.134 1.547.207l.394.243-.528-.037c-6.435-.448-12.941.294-19.122 2.127-6.151 1.824-11.981 4.727-17.101 8.612l-.094.071-.08-.085a64.447 64.447 0 00-1.572-1.606c.236-.16.554-.363.973-.644v.001z" fill="#fff"/><path fill-rule="evenodd" clip-rule="evenodd" d="M95.662 52.716a60.85 60.85 0 00-6.683 5.953l-.073.076-.09-.055a38.44 38.44 0 00-2.04-1.16 51.013 51.013 0 00-2.301-1.143c-1.47-.686-2.993-1.41-4.522-2.175a89.76 89.76 0 01-4.56-2.436l-.083-.048.021-.094c.315-1.398.958-2.777 1.783-4.129.822-1.345 1.827-2.664 2.87-3.946a176.62 176.62 0 013.146-3.765 197.366 197.366 0 004.646 4.854c2.792 2.833 5.473 5.453 7.885 8.068zm9.184 14.296c1.483 4.472 2.05 9.425 2.349 14.022A33.276 33.276 0 0096 84.399l-.268.135.084-.288c.502-1.739.972-3.503 1.329-5.3.356-1.792.6-3.614.65-5.465.015-.547.007-1.083-.025-1.608a16.23 16.23 0 00-.166-1.536l-.014-.091.081-.044a51.693 51.693 0 017.175-3.19zm5.302 32.37c.289.241.612.413.974.497.834.047 1.668-.081 2.499-.352.41.041.819.09 1.225.15a27.853 27.853 0 017.421 2.135l.112.05-.043.115a44.93 44.93 0 00-1.711 5.486 34.933 34.933 0 00-.888 5.658l-.01.142-.14-.023a53.19 53.19 0 00-11.341-.578 78.78 78.78 0 00-4.752.378 65.332 65.332 0 00-4.714.692l-.074.014-.049-.057a28.308 28.308 0 01-2.76-3.782 24.525 24.525 0 01-2.167-4.554 21.593 21.593 0 01-.186-.552l-.03-.092.08-.055a28.084 28.084 0 016.268-3.321 30.215 30.215 0 017.06-1.728 30.874 30.874 0 013.226-.223zm17.097-14.22c1.614-2.51 3.016-4.816 4.127-6.402 3.356-4.795 6.082-7.41 8.218-12.308l.004.001.118.04-.143.511-.116.394c-.91 3.055-2.188 6.076-3.528 8.829-1.338 2.751-2.739 5.235-3.896 7.216l-2.037 3.47-.116-.081a32.732 32.732 0 00-2.631-1.67zM60.888 138.73c-.49 2.192-1.203 5.337.136 7.733 1.588 2.845 6.065 4.636 12.231 4.65 6.167.015 14.023-1.747 22.167-2.556 8.145-.808 16.579-.664 23.135-.361 6.556.303 11.235.766 15.611 1.805 4.375 1.04 8.448 2.658 12.693 2.585 4.246-.072 8.665-1.834 11.206-3.451 2.542-1.618 3.206-3.09 2.499-5.56-.381-1.329-1.159-2.946-1.623-4.2a64.405 64.405 0 018.187 10.922l.092.154-.176.04c-1.404.32-2.767.855-4.113 1.384l-.221.087a46.024 46.024 0 00-3.392 1.457 65.6 65.6 0 00-3.288 1.684 56.373 56.373 0 00-2.842 1.748 43.377 43.377 0 00-2.714 1.94 25.794 25.794 0 00-1.021.867l-.061.053-.075-.03c-2.453-1.01-5.292-1.969-8.251-2.831a124.243 124.243 0 00-9.685-2.393 101.98 101.98 0 00-5.856-.954c-1.963-.264-3.931-.48-5.899-.666a157.776 157.776 0 00-5.261-.411 100.99 100.99 0 00-5.272-.188c-3.529-.005-7.057.206-10.57.577a138.78 138.78 0 00-10.48 1.54 64.617 64.617 0 00-4.412 1.003c-1.453.38-2.906.803-4.356 1.241-1.005.301-2.01.601-3.019.921a66.037 66.037 0 00-2.98 1.016l-.164.065c-1.36.535-2.73 1.074-4.025 1.739l-.083.042-.067-.065a34.511 34.511 0 00-17.232-9.034l-.179-.035.091-.158a64.665 64.665 0 019.27-12.36h-.001z" fill="#692614"/><path fill-rule="evenodd" clip-rule="evenodd" d="M14.773 233.372c-.604.901-1.007 1.957-1.22 2.884-.575 2.499.233 4.059.985 5.417.75 1.357 1.444 2.512-.087 3.466-.855.532-2.403 1.001-3.709 1.739a8.208 8.208 0 002.634 1.042l13.133 2.626-.512-.499a50.147 50.147 0 01-5.159-5.909 47.708 47.708 0 01-4.088-6.547v-.001a53.283 53.283 0 01-1.058-2.058 23.655 23.655 0 01-.905-2.12l-.014-.04zm42.882 33.173c6.795 2.665 17.437 3.219 24.22.275 4.503-2.014 3.939-5.091 5.785-8.679.097.284.185.569.265.855.838 3.004.743 6.139-.438 8.851a10.175 10.175 0 01-3.336 4.19c-1.49 1.105-3.369 1.928-5.655 2.484-2.243.545-4.623.767-6.868.821-2.244.054-4.35-.058-6.045-.182a33.961 33.961 0 01-8.86-1.857 34.197 34.197 0 01-8.07-4.133 9.635 9.635 0 01-3.467-4.302l-.016-.039v-.002a9.462 9.462 0 01-.116-.304l-.003-.01-.016-.043-.012-.037-.002-.005a8.74 8.74 0 01-.127-.397l-.014-.047-.01-.034-.013-.048-.001-.004-.017-.06-.005-.018-.009-.032-.013-.05-.008-.032-.003-.013-.017-.067v-.004l-.018-.073-.002-.007-.012-.052-.007-.03-.012-.053-.006-.029-.003-.016-.014-.067-.012-.054-.005-.028-.011-.056-.005-.027-.01-.056-.005-.027-.01-.057-.01-.058-.004-.026-.004-.025-.01-.059-.003-.025-.003-.018-.009-.061v-.005l-.008-.059-.004-.024v-.01a10.49 10.49 0 01-.02-.155v-.003l-.006-.062v-.003a8.47 8.47 0 01-.023-.25v-.002l-.005-.07-.001-.015-.002-.019-.003-.066-.001-.019-.004-.066v-.019l-.003-.066v-.018l-.003-.068v-.017l-.002-.068v-.017l-.001-.069v-.186l.002-.071v-.014l.002-.072v-.013l.003-.073.004-.086v-.012l.004-.074.004-.062.002-.024v-.01l.006-.076v-.01l.007-.076.001-.009.007-.077.001-.009.008-.077.001-.008.009-.078v-.007l.01-.079.001-.007.01-.079.002-.006.01-.08.002-.006.012-.081v-.004l.014-.082v-.004l.015-.082v-.003l.015-.083v-.002l.017-.084.017-.085v-.002l.019-.084v-.001l.019-.085.008-.038.007-.028.002-.009.009-.037.004-.019.005-.019.009-.037.002-.01.007-.028.009-.037.01-.037.006-.028.002-.009.01-.038.005-.018.005-.019.01-.037.002-.01.007-.027.01-.038.01-.037.008-.028.002-.009.01-.037.006-.019.005-.018.01-.038.003-.009.008-.028.01-.037.011-.037.008-.028.003-.009.01-.037.006-.018.006-.019.011-.037.003-.009.008-.028.012-.037.011-.037.009-.027.003-.01.011-.036.006-.019.006-.018.012-.037.003-.009.009-.028.012-.037.012-.037.01-.027.002-.009.013-.037.006-.018.006-.019.013-.036.003-.009.01-.028.012-.037.013-.036.01-.028.003-.009.013-.036.006-.019.007-.018.013-.036.003-.009.01-.028.014-.036.013-.037.01-.027.004-.009.014-.036.006-.018.007-.019.014-.036.004-.009.024-.063v-.001l.025-.063.004-.009.014-.036.008-.018.007-.018.014-.036.004-.009.011-.027.015-.036.015-.036a15.726 15.726 0 013.498-5.178c.43-.421.884-.822 1.363-1.205-1.587 3.28-1.997 5.654.424 9.685 1.677 2.793 3.902 4.774 6.87 6.111v.002zm72.826-7.778c.144 1.126.404 2.347 1.07 3.546 1.3 2.339 4.146 4.597 9.468 5.322 5.322.725 13.12-.084 18.579-1.846 5.459-1.762 8.578-4.477 10.056-6.666 1.447-2.145 1.319-3.786 1.352-5.246.368.503.707 1.028 1.012 1.569a15.054 15.054 0 011.575 4.04 9.01 9.01 0 01-.439 5.382 9.638 9.638 0 01-3.467 4.302 34.209 34.209 0 01-8.071 4.133 33.968 33.968 0 01-8.859 1.857c-1.696.124-3.801.236-6.045.182-2.245-.054-4.626-.276-6.868-.821-2.287-.556-4.165-1.379-5.656-2.484a10.176 10.176 0 01-3.336-4.19c-1.181-2.712-1.275-5.847-.437-8.851.021-.076.043-.153.066-.229zm72.748-23.664c1.072.502 1.834 1.555 2.363 2.7.896 1.935 1.126 4.13.26 6.758a14.53 14.53 0 01-2.06 3.968l-11.311 2.262.264-.293c.443-.492.877-.986 1.301-1.483.426-.499.845-1.006 1.256-1.52l.002-.002a61.773 61.773 0 005.198-7.318 56.983 56.983 0 002.727-5.072z" fill="#68281A"/><path fill-rule="evenodd" clip-rule="evenodd" d="M111.047 244.668c.555.007 1.121.017 1.872.029l2.158.036a1.165 1.165 0 01.878.414 1.167 1.167 0 01.268.936c-.047.32-.132.629-.253.917-.123.29-.28.559-.469.799a3.627 3.627 0 01-1.521 1.113 3.633 3.633 0 01-1.87.225c-1.23-.188-2.098-.06-2.708.202-.988.425-1.301 1.2-1.392 1.527a1.181 1.181 0 00-.041.312c.009.798-.107 1.388-.27 1.82-.259.689-.645.992-.859 1.114a1.194 1.194 0 01-.514.159.868.868 0 01-.492-.109.544.544 0 01-.19-.183c-.065-.101-.119-.255-.11-.485v-.092a153.809 153.809 0 00-.134-2.731 5.553 5.553 0 00-1.433-3.41 4.178 4.178 0 01-.386-.495 3.797 3.797 0 01-.295-.531 1.084 1.084 0 01.076-1.047 1.14 1.14 0 01.293-.308 1.07 1.07 0 01.625-.198l3.001-.018c.875-.004 1.512-.006 1.971-.006.668 0 1.212.004 1.795.01z" fill="#FA8EB1"/><path fill-rule="evenodd" clip-rule="evenodd" d="M75.97 186.352c1.856-.214 3.487.25 4.033 2.246.754 2.752-2.937 3.63-4.856 4.181-2.637.758-4.835 1.334-7.402 2.402-.95.409-4.114 2.024-4.993 1.57-1.28-.662.274-3.57.858-4.374 2.07-2.854 5.499-4.226 8.757-5.218 1.172-.354 2.386-.657 3.602-.807zm68.839 0c-1.857-.214-3.488.25-4.034 2.246-.754 2.752 2.936 3.63 4.856 4.181 2.636.758 4.835 1.334 7.402 2.402.95.409 4.113 2.024 4.992 1.57 1.281-.662-.274-3.57-.857-4.374-2.07-2.854-5.499-4.226-8.757-5.218-1.172-.354-2.386-.657-3.602-.807zM49.493 177.955a114.81 114.81 0 00-1.946 2.413l-.098.125-.104-.121a17.696 17.696 0 00-5.672-4.42 18.242 18.242 0 00-7.03-1.823 1.053 1.053 0 00-1.1.9l-.068.476c-.02.15-.042.311-.063.489l-.024.194-.17-.096a13.014 13.014 0 00-4.711-1.565 13.757 13.757 0 00-5.05.288 1.047 1.047 0 00-.788 1.19c.653 4.007 2.186 7.875 4.403 11.301 2.217 3.425 5.117 6.409 8.505 8.647a1.078 1.078 0 00.338.143l.192.046-.117.159c-.411.561-.832 1.128-1.266 1.704-.426.567-.856 1.131-1.29 1.689l-.077.1-.102-.074c-5.51-3.969-10.196-9.087-13.78-14.888-3.588-5.811-6.07-12.309-7.164-19.024l-.021-.129.129-.021c6.81-1.112 13.822-.752 20.494.943 6.67 1.694 13.003 4.724 18.455 8.952l.11.085-.093.105a93.73 93.73 0 00-1.892 2.212zm142.098 9.081c2.124-3.359 3.595-7.129 4.231-11.031a1.05 1.05 0 00-.788-1.19 13.754 13.754 0 00-5.05-.288 13.019 13.019 0 00-4.711 1.566l-.17.095-.024-.194c-.041-.333-.084-.635-.126-.934l-.005-.031a1.046 1.046 0 00-1.039-.902l-.061.001a18.345 18.345 0 00-6.348 1.507 17.632 17.632 0 00-5.321 3.624l-.105.105-.09-.117a101.753 101.753 0 00-1.595-2.019 86.296 86.296 0 00-1.644-1.965l-.092-.106.112-.084c5.416-4.059 11.66-6.959 18.22-8.57 6.554-1.611 13.424-1.935 20.099-.845l.129.02-.021.129c-1.092 6.708-3.57 13.198-7.153 19.005-3.576 5.796-8.254 10.912-13.754 14.881l-.106.077-.077-.106a193.886 193.886 0 01-2.711-3.877l-.073-.108.107-.074c3.255-2.255 6.038-5.206 8.165-8.57l.001.001z" fill="#fff"/><path fill-rule="evenodd" clip-rule="evenodd" d="M49.493 177.955a114.81 114.81 0 00-1.946 2.413l-.098.125-.104-.121a17.77 17.77 0 00-4.495-3.785c.936-2.259 1.129-4.459 1.287-5.683a49.132 49.132 0 017.23 4.649l.111.085-.092.105a93.73 93.73 0 00-1.893 2.212zm-23.258 7.98c.267.464.546.921.837 1.371 2.217 3.426 5.117 6.409 8.505 8.647a.993.993 0 00.338.143l.193.046-.117.159c-.412.561-.833 1.128-1.267 1.704-.426.567-.856 1.131-1.29 1.689l-.077.1-.102-.074c-5.51-3.969-10.196-9.087-13.779-14.888a53.649 53.649 0 01-2.586-4.697c2.01 1.369 4.927 4.016 7.844 5.274.5.216 1 .391 1.501.526zM177.963 169.632c.012 1.565.014 3.676.214 5.722a17.617 17.617 0 00-5.998 3.906l-.105.104-.09-.117a98.861 98.861 0 00-1.595-2.018 86.35 86.35 0 00-1.644-1.966l-.092-.106.112-.084a49.624 49.624 0 019.198-5.441zm14.276 16.33a13.508 13.508 0 002.033-.437c3.094-.926 5.872-3.037 8.359-5.426a53.5 53.5 0 01-2.592 4.713c-3.433 5.565-7.883 10.502-13.1 14.401-.473-.22-.941-.619-1.484-1.197-.58-.618-1.244-1.44-1.997-2.433 3.241-2.253 6.012-5.195 8.133-8.547.223-.354.439-.712.648-1.074z" fill="#E4E4E3"/><path fill-rule="evenodd" clip-rule="evenodd" d="M109.156 259.51c-.123.308-.293.508-.492.771-1.616 1.919-5.492 1.594-6.095-1.302-.353-2.837.781-5.254 1.087-8.028.058-.535.081-1.957.886-1.789.418.088 1.132.458 1.661.605 1.536.425 5.855-.427 5.756.887-.069.911-3.194-.147-2.625 3.496.275 1.763.526 3.601-.177 5.36h-.001z" fill="#0CF"/><path fill-rule="evenodd" clip-rule="evenodd" d="M109.156 259.38c-.123.309-.293.508-.492.771-1.616 1.918-5.492 1.594-6.095-1.302-.353-2.837.781-5.254 1.087-8.028.058-.535.081-1.957.886-1.789.185.039.428.133.686.238-.194.41-.396.71-.618 1.476-.275.951-.581 2.619-.344 4.005.237 1.387 1.017 2.493 1.723 2.645.705.152 1.336-.65 1.609-1.563.273-.914.187-1.939.63-2.903.368-.801 1.101-1.56 1.944-1.567-.614.348-1.091 1.038-.838 2.657.275 1.763.526 3.601-.177 5.36h-.001z" fill="#00BDF5"/><path d="M109.978 259.84c-.152.379-.33.611-.537.881l-.073.097-.028.031c-.629.747-1.512 1.224-2.453 1.419a4.917 4.917 0 01-2.025-.002 4.279 4.279 0 01-1.857-.895 3.866 3.866 0 01-1.303-2.212l-.014-.072c-.242-1.951.151-3.66.551-5.4.214-.929.43-1.868.536-2.833.09-.911.178-2.468 1.36-2.553.989-.072 1.894.639 2.972.706 1.392.088 4.536-.364 5.464.723.488.572.325 1.676-.365 2.018-.702.346-1.338.121-1.896.935-.204.41-.162.893-.103 1.332.143.913.279 1.848.289 2.81.01 1.005-.119 2.016-.518 3.015zm-1.941-.196c.127-.164.235-.305.298-.463.304-.76.401-1.548.393-2.342-.008-.838-.135-1.704-.268-2.554-.164-1.205-.225-2.206.674-3.147.38-.398.314-.396-.235-.386-1.678.031-1.885.165-3.549-.393-1.126-.382-.822.077-.864 1.049-.047.73-.29 1.667-.457 2.394l-.043.19-.021.089c-.362 1.577-.718 3.125-.518 4.77.116.504.366.892.695 1.168.303.255.681.426 1.088.513.424.092.872.092 1.297.003.56-.116 1.076-.383 1.434-.791l.076-.1zm3.041-9.041c-.02-.111-.072.062-.002.036.004-.018.003-.018.002-.036z" fill="#570701"/><path fill-rule="evenodd" clip-rule="evenodd" d="M105.528 251.304c.179-.079.46.007.813.033.354.027.78-.006 1.049.052.269.058.381.206.368.35-.012.145-.15.286-.375.34-.226.054-.54.021-.766.034a.954.954 0 00-.485.146c-.123.076-.231.17-.385.109-.153-.062-.352-.278-.413-.509-.061-.23.015-.475.194-.555z" fill="#46DAFF"/></svg>