<svg xmlns="http://www.w3.org/2000/svg" width="1021.368" height="762.353" viewBox="0 0 5699.86 4254.4" shape-rendering="geometricPrecision" text-rendering="geometricPrecision" image-rendering="optimizeQuality" fill-rule="evenodd" clip-rule="evenodd"><defs><style>.fil4{fill:#772d18}.fil3{fill:#903a1f}.fil0{fill:#ec7b1d}.fil1{fill:#fff}.fil5{fill:#570701;fill-rule:nonzero}</style></defs><g id="Layer_x0020_1"><g id="_3096001879824"><path class="fil0" d="M3211.58 596.29a28.098 28.098 0 0013.44-12.02c1.44-2.58 2.46-5.33 3.05-8.16l.17-.8.62-.51c56.47-46.67 120.2-87.41 189.84-121.47 69.45-33.97 144.76-61.29 224.59-81.25 89.25-22.31 183.48-35.45 279.97-39.28 96.49-3.83 195.23 1.62 293.54 16.48 96.5 14.58 190.57 37.92 279.73 69.14 89.16 31.22 173.4 70.32 250.22 116.43 80.68 48.42 152.24 104.22 213.01 165.67 60.8 61.48 110.82 128.65 148.35 199.79l.41.75c51.59 91.03 112.97 176.84 183.67 256.88 70.71 80.05 150.76 154.36 239.65 222.37l.96.74-.05 1.2c-1.05 25.46-7.97 50.07-17.84 72.72-12.78 29.34-30.48 55.39-46.71 75.72-3.47 4.34-5.51 9.5-6.03 14.8-.54 5.3.43 10.77 2.95 15.7a28.33 28.33 0 0011.01 11.6 28.12 28.12 0 0015.52 3.76c12.73-.61 25.45-2.29 37.97-4.97 12.63-2.7 25.05-6.41 37.08-11.07l3.91-1.51-.8 4.12c-10.5 54.47-26.18 107.69-46.91 159.37-20.72 51.67-46.51 101.8-77.23 150.13-33.87 53.27-73.03 103.33-117.15 149.84-44.11 46.5-93.18 89.45-146.9 128.51-91.75 66.72-208.03 119.15-339.93 154.89-131.88 35.73-279.4 54.79-433.65 54.79l-7.93-.03c-53.1-.22-105.39.44-156.86 1.52-51.41 1.08-102.06 2.59-151.86 4.08-158.17 4.72-311.97 9.32-465.85-.95-153.99-10.28-308.11-35.44-466.85-90.23-107.84-37.22-199.06-75.31-278.17-116.63-79.19-41.36-146.27-85.95-205.74-136.12-53.49-45.13-99.89-95.37-138.07-148.76-38.55-53.9-68.73-111.02-89.42-169.36l-.05-.17c-4.4-16.29-7.93-31.64-10.64-45.2-3.1-15.55-5.12-28.83-6.09-38.55l-.39-.92-.04-.34c-.14-1.28-.25-2.58-.32-3.9-.07-1.3-.09-2.62-.05-3.97l.05-.44c.42-1.89.8-3.79.96-5.69.14-1.76.06-3.52-.4-5.25l-.07-.27v-.34c.01-1.74-.33-3.43-.91-5.04-.61-1.67-1.48-3.29-2.48-4.83l-1.7-2.6 2.98-.89c20.32-6.06 40.4-10.94 60.57-15.28 19.95-4.28 40.29-8.08 61.09-11.95a28.13 28.13 0 0013.83-6.89c3.81-3.47 6.68-7.98 8.15-13.13 1.47-5.15 1.42-10.51.02-15.47-1.4-4.97-4.17-9.54-8.11-13.15-28.62-26.18-52.97-49.32-69.43-70.96-16.74-22-25.38-42.5-22.23-63.1 1.85-12.07 7.64-23.56 15.85-35.02 8.08-11.28 18.55-22.57 29.93-34.39 36.05-37.49 72.53-75.67 108.89-113.86 36.21-38.02 72.21-75.95 107.6-113.25 70.6-74.38 142.4-150.03 215.28-225.82 72.81-75.71 146.31-151.16 219.93-224.78 4.99-4.97 10.13-9.97 15.41-14.97 5.23-4.96 10.51-9.84 15.85-14.65l.6-.54.82-.05c3.2-.2 6.39-.93 9.4-2.21zm635.28 763.14c.52-.56 1.09-1.11 1.75-1.59 2.25-1.71 4.01-4.55 4.88-7.79.86-3.1.88-6.53-.21-9.63-.29-.82-.66-1.62-1.09-2.36-.44-.77-.97-1.51-1.57-2.22-2.16-2.56-5.08-4.21-8.24-4.94-3.29-.75-6.85-.49-10.11.81-25.93 10.32-52.23 20.59-79.02 29.17-26.88 8.59-54.28 15.49-82.38 19.05-37.74 4.77-76.21 3.2-112.4-3.95-36.49-7.22-70.71-20.13-99.56-37.98-4.36-2.58-9.53-3.65-14.61-3.29-5.07.36-10.04 2.16-13.99 5.32l-.77.65c-3.81 3.3-7.29 8.15-9.05 13.1-1.63 4.61-1.74 9.26.92 12.62l.3.35c3.91 4.43 58.14 45.81 146.55 60.23 46.81 7.64 103.15 7.64 166.55-9.53 20.56-5.57 41.82-11.5 61.12-20.13 19.17-8.58 36.52-19.87 49.54-36.21.43-.54.89-1.1 1.39-1.64zm789.09 38.47c1.65 2.91 4.05 5.24 6.67 6.33.73.31 1.43.7 2.08 1.12.63.41 1.2.83 1.75 1.24 16.63 12.64 36.23 19.3 56.94 22.89 20.9 3.62 42.92 4.13 64.2 4.46 65.67 1 120.26-12.89 163.75-31.83 82.28-35.84 124.64-89.44 127.2-94.52l.16-.35c1.78-3.91.53-8.42-2.19-12.48-2.92-4.36-7.49-8.19-11.99-10.46l-.91-.44c-4.63-2.1-9.89-2.63-14.88-1.73-4.99.9-9.72 3.21-13.32 6.78-23.56 24.42-53.55 45.38-87.15 61.38-33.32 15.86-70.22 26.86-107.95 31.54-28.09 3.48-56.36 3.55-84.53 1.84-28.07-1.7-56.09-5.18-83.78-8.79-3.49-.45-7 .18-10.01 1.71-2.88 1.48-5.3 3.8-6.76 6.82-.39.81-.71 1.65-.96 2.53-.24.85-.41 1.72-.49 2.57-.3 3.27.58 6.58 2.17 9.39zm-291.4 4.28c-72.22 1.24-143.24 21.56-205.5 58.8a58.297 58.297 0 00-6.24 4.3c-11.99 9.47-19.52 23.09-22.06 37.7-2.54 14.63-.06 30.25 7.97 43.67 1.38 2.31 2.92 4.55 4.61 6.69 26.68 33.76 66.57 74.6 113.5 105.76 35.56 23.62 75.14 41.67 116 46.81l2.06.26c-.17 13.65-1.01 28.35-.45 41.85l-1 .73c-18.91 13.91-38.32 24.04-57.76 30.23-19.46 6.19-38.94 8.42-57.98 6.52-20.25-2.02-40.19-8.92-57.88-19.52-17.69-10.61-33.16-24.94-44.48-41.86a18.87 18.87 0 00-12.06-8.04c-4.76-.94-9.89-.07-14.23 2.84-4.34 2.91-7.1 7.31-8.04 12.07-.94 4.76-.07 9.89 2.84 14.23 9.3 13.89 20.59 26.31 33.34 36.96a182.083 182.083 0 0042.81 26.64l1.32.59.06 1.44c.63 15.49 2.12 29.84 4.31 43.12 2.33 14.11 5.47 27.02 9.22 38.8l.21.65-.18.66c-1.79 6.54-2.06 13.69-.82 21.08 1.24 7.35 3.98 14.95 8.21 22.41 1.95 3.44 4.06 6.66 6.21 9.74 2.14 3.06 4.43 6.1 6.67 9.09 2.24 2.98 4.43 5.9 6.45 8.81 2.04 2.92 3.92 5.87 5.55 8.92 5.66 10.62 8.23 22.69 9.25 35.08 1.02 12.21.54 24.78.09 36.57l-2.87 75.64c-.57 15.08 1.28 27.26 5.51 36.46 4.11 8.94 10.54 15.09 19.23 18.33 1.67.62 3.44 1.11 5.3 1.43 1.84.32 3.78.48 5.76.48 6.63 0 13.72-1.87 20.17-5.88 5.75-3.58 11-8.86 14.97-16.06 3.09-5.59 5.68-11.89 7.58-18.31 1.89-6.42 3.12-12.96 3.48-19.06 2.04-33.83 4.33-67.71 6.11-101.54l2.67.58c6.21 1.35 12.45 2.36 18.7 3.04 6.26.67 12.59 1.01 18.97 1.01 22.44.01 44.99-4.13 66.21-12.15 20.74-7.84 40.19-19.39 57.01-34.43 23.33-20.85 39.15-46.1 46.96-73.93 7.82-27.87 7.62-58.35-1.1-89.58l-.55-1.96 1.86-.8a155.953 155.953 0 0041.6-26.34c12.13-10.72 22.58-23.36 30.67-37.48 2.6-4.54 3.11-9.71 1.84-14.38a18.875 18.875 0 00-8.76-11.41l-.12-.07c-4.53-2.59-9.7-3.11-14.38-1.84-4.65 1.27-8.83 4.3-11.43 8.8l-.04.07c-8.95 15.63-21.77 28.85-36.84 38.59-15.06 9.74-32.37 16.02-50.31 17.78-16.78 1.66-33.8-.69-49.57-6.43-15.85-5.78-30.47-15-42.33-27.05l-.74-.75c.96-13.42.47-28.35.65-41.96l2.05-.22c33.3-3.59 66.89-17.13 99.36-44.42 29.27-24.6 57.64-60.36 84.1-110.07 9.28-17.42 10.72-37.2 5.65-54.98-5.09-17.84-16.72-33.65-33.56-43.03-65.19-36.31-136.08-52.9-205.84-51.69z"/><path class="fil0" d="M5537.79 1682.62a869.425 869.425 0 01-14.88 39.86c-20.72 51.67-46.51 101.8-77.23 150.13-33.87 53.27-73.03 103.33-117.15 149.84-22.17 23.37-45.6 45.85-70.24 67.38-11.94 8.41-24.34 16.82-37.27 25.25-95.73 62.42-219.47 125.69-355.44 184.06-7.91 2.3-15.87 4.53-23.89 6.71-131.88 35.73-279.4 54.79-433.65 54.79l-7.93-.03c-53.1-.22-105.39.44-156.86 1.52-51.41 1.08-102.06 2.59-151.86 4.08-158.17 4.72-311.97 9.32-465.85-.95-153.99-10.28-308.11-35.44-466.85-90.23-107.84-37.22-199.06-75.31-278.17-116.63-79.19-41.36-146.27-85.95-205.74-136.12-53.49-45.13-99.89-95.37-138.07-148.76-38.55-53.9-68.73-111.02-89.42-169.36l-.05-.17c-4.4-16.29-7.93-31.64-10.64-45.2-3.1-15.55-5.12-28.83-6.09-38.55l-.39-.92-.04-.34c-.14-1.28-.25-2.58-.32-3.9-.07-1.3-.09-2.62-.05-3.97l.05-.44c.42-1.89.8-3.79.96-5.69.14-1.76.06-3.52-.4-5.25l-.07-.27v-.34c.01-1.74-.33-3.43-.91-5.04-.61-1.67-1.48-3.29-2.48-4.83l-1.7-2.6 2.98-.89c20.32-6.06 40.4-10.94 60.57-15.28 19.95-4.28 40.29-8.08 61.09-11.95a28.13 28.13 0 0013.83-6.89c3.81-3.47 6.68-7.98 8.15-13.13 1.47-5.15 1.42-10.51.02-15.47-1.4-4.97-4.17-9.54-8.11-13.15-28.62-26.18-52.97-49.32-69.43-70.96-16.74-22-25.38-42.5-22.23-63.1 1.85-12.07 7.64-23.56 15.85-35.02 8.08-11.28 18.55-22.57 29.93-34.39 36.05-37.49 72.53-75.67 108.89-113.86 33.45-35.13 66.73-70.18 99.51-104.72.09.94.15 1.93.14 2.97-.17 41.38-76.09 165.68-102.77 235.01-26.68 69.33-4.1 83.7 8.22 113.97 12.31 30.27 14.37 76.45-2.05 116.99-16.42 40.54-51.31 75.43-6.68 152.4 44.64 76.97 168.82 196.01 351.06 299.67 182.24 103.65 422.54 191.9 684.75 240.14 262.21 48.23 546.32 56.45 792.54 36.43 246.22-20.01 454.55-68.24 626.82-166.77 172.27-98.53 308.47-247.36 394.67-353.06 26.12-32.02 47.64-60.08 64.88-82.98z"/><path class="fil1" d="M5246.27 2100.17a1101.624 1101.624 0 01-64.64 50.77c-91.75 66.72-208.03 119.15-339.93 154.89-131.88 35.73-279.4 54.79-433.65 54.79l-7.93-.03c-53.1-.22-105.39.44-156.86 1.52-51.41 1.08-102.06 2.59-151.86 4.08-158.17 4.72-311.97 9.32-465.85-.95-153.99-10.28-308.11-35.44-466.85-90.23-105.77-36.5-195.54-73.85-273.6-114.25-33.76-96.85-45.05-203.65-12.11-301.8 62.56-186.43 242.25-282.16 419.82-334.07 99.35-29.04 206.61-45.94 310.14-48.01 62.57-1.15 119.04 3.63 181.17 7.29 36.92 2.17 73.06 3.2 109.2-6.01l2.51-.64c52.85-13.86 107.24-48.75 173.95-75.94 66.71-27.19 145.73-46.69 222.18-49.26 76.46-2.56 150.35 11.8 204.74 29.76 54.39 17.96 89.29 39.51 112.38 56.95 23.09 17.45 34.38 30.79 65.68 43.61 91.75 37.07 225.97 35.18 326.49 50.57 138.48 21.21 271.01 78.89 305.54 227.93 26.5 114.41-5.84 237.55-60.5 339.03zM3714.11 962.55c-31.29-10.74-87.88-16.26-139.51-11.64-51.62 4.62-98.27 19.37-127.5 32.92-29.24 13.54-41.07 25.87-40.03 38.14 1.04 12.27 14.94 24.48 34.91 26.15 19.97 1.66 45.99-7.24 87.34-11.5s98.03-3.9 138.59-8.36c40.56-4.46 65.01-13.74 74.24-26.36 9.24-12.63 3.25-28.6-28.04-39.35zm872.13-30.66c31.8-9.13 88.61-11.74 139.92-4.48 51.32 7.26 97.14 24.38 125.65 39.41 28.51 15.02 39.7 27.94 38.03 40.14-1.66 12.2-16.18 23.69-36.2 24.32-20.02.63-45.56-9.58-86.64-15.96-41.08-6.38-97.7-8.92-137.98-15.45-40.28-6.53-64.22-17.04-72.8-30.13-8.57-13.08-1.78-28.73 30.02-37.85zm-241.68 470.28c-72.22 1.24-143.24 21.56-205.5 58.8a58.297 58.297 0 00-6.24 4.3c-11.99 9.47-19.52 23.09-22.06 37.7-2.54 14.63-.06 30.25 7.97 43.67 1.38 2.31 2.92 4.55 4.61 6.69 26.68 33.76 66.57 74.6 113.5 105.76 35.56 23.62 75.14 41.67 116 46.81l2.06.26c-.17 13.65-1.01 28.35-.45 41.85l-1 .73c-18.91 13.91-38.32 24.04-57.76 30.23-19.46 6.19-38.94 8.42-57.98 6.52-20.25-2.02-40.19-8.92-57.88-19.52-17.69-10.61-33.16-24.94-44.48-41.86a18.87 18.87 0 00-12.06-8.04c-4.76-.94-9.89-.07-14.23 2.84-4.34 2.91-7.1 7.31-8.04 12.07-.94 4.76-.07 9.89 2.84 14.23 9.3 13.89 20.59 26.31 33.34 36.96a182.083 182.083 0 0042.81 26.64l1.32.59.06 1.44c.63 15.49 2.12 29.84 4.31 43.12 2.33 14.11 5.47 27.02 9.22 38.8l.21.65-.18.66c-1.79 6.54-2.06 13.69-.82 21.08 1.24 7.35 3.98 14.95 8.21 22.41 1.95 3.44 4.06 6.66 6.21 9.74 2.14 3.06 4.43 6.1 6.67 9.09 2.24 2.98 4.43 5.9 6.45 8.81 2.04 2.92 3.92 5.87 5.55 8.92 5.66 10.62 8.23 22.69 9.25 35.08 1.02 12.21.54 24.78.09 36.57l-2.87 75.64c-.57 15.08 1.28 27.26 5.51 36.46 4.11 8.94 10.54 15.09 19.23 18.33 1.67.62 3.44 1.11 5.3 1.43 1.84.32 3.78.48 5.76.48 6.63 0 13.72-1.87 20.17-5.88 5.75-3.58 11-8.86 14.97-16.06 3.09-5.59 5.68-11.89 7.58-18.31 1.89-6.42 3.12-12.96 3.48-19.06 2.04-33.83 4.33-67.71 6.11-101.54l2.67.58c6.21 1.35 12.45 2.36 18.7 3.04 6.26.67 12.59 1.01 18.97 1.01 22.44.01 44.99-4.13 66.21-12.15 20.74-7.84 40.19-19.39 57.01-34.43 23.33-20.85 39.15-46.1 46.96-73.93 7.82-27.87 7.62-58.35-1.1-89.58l-.55-1.96 1.86-.8a155.953 155.953 0 0041.6-26.34c12.13-10.72 22.58-23.36 30.67-37.48 2.6-4.54 3.11-9.71 1.84-14.38a18.875 18.875 0 00-8.76-11.41l-.12-.07c-4.53-2.59-9.7-3.11-14.38-1.84-4.65 1.27-8.83 4.3-11.43 8.8l-.04.07c-8.95 15.63-21.77 28.85-36.84 38.59-15.06 9.74-32.37 16.02-50.31 17.78-16.78 1.66-33.8-.69-49.57-6.43-15.85-5.78-30.47-15-42.33-27.05l-.74-.75c.96-13.42.47-28.35.65-41.96l2.05-.22c33.3-3.59 66.89-17.13 99.36-44.42 29.27-24.6 57.64-60.36 84.1-110.07 9.28-17.42 10.72-37.2 5.65-54.98-5.09-17.84-16.72-33.65-33.56-43.03-65.19-36.31-136.08-52.9-205.84-51.69z"/><path d="M4865.59 2299.13c-7.91 2.3-15.87 4.53-23.89 6.71-131.88 35.73-279.4 54.79-433.65 54.79l-7.93-.03c-53.1-.22-105.39.44-156.86 1.52-51.41 1.08-102.06 2.59-151.86 4.08-158.17 4.72-311.97 9.32-465.85-.95-153.99-10.28-308.11-35.44-466.85-90.23-105.77-36.5-195.54-73.85-273.6-114.25-25.26-72.48-37.94-150.53-28.92-226.36 35.97 25.16 75.37 50.22 117.95 74.44 182.24 103.65 422.54 191.9 684.75 240.14 262.21 48.23 546.32 56.45 792.54 36.43 246.22-20.01 454.55-68.24 626.82-166.77 84.57-48.37 160.44-108.87 225.98-170.43-11.84 52.1-31.73 102.65-56.28 148.81-8.72 6.01-17.68 12.02-26.92 18.04-95.73 62.42-219.47 125.69-355.44 184.06z" fill="#e6e6e6"/><path class="fil3" d="M5176.25 2154.82c-90.89 64.88-205.2 115.97-334.55 151.01-3.66.99-7.34 1.97-11.02 2.94 4.53-45.55 15.69-112.42 19.82-171.75 4.98-71.6-.28-132.21-14.18-201.39-13.89-69.19-36.41-146.96-60.91-210.01-24.49-63.05-50.96-111.38-87.57-159.86-36.61-48.48-83.35-97.1-140.29-142.31-19.32-15.34-39.82-30.28-59.83-44.25 3.05.94 6.04 1.9 8.98 2.87 54.39 17.96 89.29 39.51 112.38 56.95 23.09 17.45 34.38 30.79 65.68 43.61 52.78 21.32 119.6 29.75 185.99 36 85.49 74.42 147.38 157.48 191.91 237.36 47.21 84.67 74.92 165.74 92.88 234.76 17.06 65.57 25.33 120.26 30.73 164.06zM3636.97 2365.99c-3.81-.24-7.61-.47-11.42-.73-153.99-10.28-308.11-35.44-466.85-90.23l-4.55-1.58c9.86-33.68 21.81-68.33 35.1-103.2 45.16-118.53 105.7-239.63 165.23-336.61 59.52-96.98 118.02-169.84 174.37-224.98 56.35-55.13 110.55-92.54 159.21-127.33l3.76-2.7 1.42.07.46.02.96.05 5.69.3 1.42.08.28.01 2.56.14.22.01 1.2.06 1.59.09 1.26.07 1.42.08.11.01 1.32.07 1.42.08h.05l1.38.08 1.42.08h.01l1.42.08 1.36.08h.07l1.43.09 1.3.08.13.01 1.43.08 1.24.08.19.01 1.43.09 1.18.08.25.01 1.43.09 1.12.07.31.02 1.43.09 1.07.07.37.03 1.43.09 1.01.06.42.03 1.44.09.95.06.49.03 1.43.09.89.06.55.03 1.44.09.83.05.61.04 1.44.09.78.05.67.04 1.44.09.72.05.73.04 1.44.09.66.04.79.05 1.45.09.6.04.85.05 1.45.09.54.03.92.06 1.45.09.49.03.98.07 1.46.09.42.03 1.04.06 1.46.09.36.02 1.1.07 1.47.09.3.02 1.17.07 1.47.09.24.01 1.23.08 1.47.09.18.01 1.3.08 1.47.09.12.01 1.36.08 1.48.09h.06l1.42.09 1.48.09 1.59.09.14.01 1.44.08.28.02 1.3.07.43.03 1.16.06.57.03 1.01.06.72.04.87.05.86.04.73.04 1 .05.58.03 1.14.05.44.02 1.28.06.3.01 1.42.06.16.01 1.56.06h.02l1.58.07h.13l1.45.06.27.01 1.31.05.41.01 1.17.04.55.02 1.02.03.7.02.88.03.84.02.74.02.97.02.6.01 1.12.02.46.01 1.26.02.31.01 1.4.02h.17l1.54.02h.03l1.57.01h3.52l1.17-.01h1.57l.68-.01.89-.01.82-.01.75-.01.96-.02.6-.01 1.1-.03.47-.01 1.24-.04.32-.01 1.38-.04h.18l1.52-.06h.05l1.56-.07.1-.01 1.7-.08 1.32-.07.38-.02 1.19-.07.52-.03 1.04-.07.66-.04.9-.06.8-.05.76-.05.94-.07.62-.05 1.08-.09.48-.04 1.22-.11.34-.03 1.36-.13.19-.02 1.5-.15h.06l1.56-.16.08-.01 1.47-.17.22-.03.19-.02 1.51-.18 1.19-.14.5-.07 1.05-.14.64-.09.91-.13.78-.11.77-.11.92-.14.63-.09 1.07-.16.49-.08 1.21-.2.35-.06 1.35-.23.21-.04 1.48-.26.07-.01 1.55-.29.07-.01 1.48-.28.21-.04 1.34-.27.35-.08 1.2-.25c-1.43 2.2-2.95 4.46-4.57 6.77-20.01 28.73-53.55 66.32-92.9 136.94-39.35 70.62-84.51 174.27-111.7 285.62-27.2 111.35-36.43 230.39-37.97 352-.44 34.97-.25 70.14-.24 104.41z"/><path class="fil4" d="M3636.97 2365.99c-3.81-.24-7.61-.47-11.42-.73-153.99-10.28-308.11-35.44-466.85-90.23l-4.55-1.58c9.86-33.68 21.81-68.33 35.1-103.2 6.3-16.53 12.9-33.12 19.75-49.68 130.07 51.7 275.33 94.81 428.47 124.39-.1 5.54-.19 11.08-.26 16.63-.44 34.97-.25 70.14-.24 104.41zm1539.28-211.16c-90.89 64.88-205.2 115.97-334.55 151.01-3.66.99-7.34 1.97-11.02 2.94 2.85-28.67 8.33-65.79 13.03-104.15 4.35-1.3 8.69-2.62 13.01-3.96 92.42-28.68 177.47-67.74 234.56-99.9 30.23-17.03 52.62-32.12 69.7-42.55 7.26 36.59 11.84 68.8 15.27 96.61z"/><path class="fil5" d="M3784.42 1338.43c15.41-6.28 31.18-12.71 44.94-15.42l.49-.06c2.94-.39 6.18-.6 9.39-.48h.03c5.06.2 10.16 1.25 14.4 3.75 5.01 2.94 8.61 7.54 9.53 14.46.18 1.36.24 2.8.19 4.31-.52 13.23-9.06 25.03-20.68 35.01-16.06 13.8-38.36 24.41-51.63 29.9-43.75 18.09-91.51 28.83-139.59 31.29-46.76 2.4-93.88-3.04-137.99-17.13h-.06c-9.08-2.96-18.4-6.44-27.57-10.18-9.77-3.98-19.68-8.41-29.15-12.95l-3.24-1.52c-8.78-4.14-20.75-9.8-29.91-17.33-13.63-11.21-20.88-25.54-6.3-43.26 10.01-12.17 21.04-15.17 32.44-13.56 10.19 1.43 19.95 6.67 29.44 11.93 40.45 22.4 83.65 32.95 127.54 34.79 50.49 2.12 101.98-7.27 151.33-23.41 8.2-2.72 17.24-6.41 26.41-10.15zm902.42 29.73c33.69 3.78 64.42 7.23 99.1 5.97 34.56-1.86 69.59-7.69 102.79-18.59 29.7-9.75 57.93-23.59 82.99-42.3 4.21-3.15 8.86-7.5 13.76-12.1 17.51-16.44 37.96-35.62 61.51-26.01 4.3 1.75 7.89 3.82 10.84 6.15 5.41 4.28 8.48 9.35 9.62 14.95 1.09 5.42.29 11.01-2 16.63-1.84 4.5-4.69 9.09-8.3 13.67-17.06 21.59-43.15 41.6-71.84 58.53-34.22 20.19-72.4 36.14-103.26 45.09l-.15.06c-25.9 6.99-54.95 11.42-84.23 13.23-29.83 1.85-59.98 1-87.34-2.58-13.13-1.72-36.92-7.32-55.36-16.5-13.78-6.87-24.99-15.97-28.16-27.55-.97-3.57-1.24-6.8-.92-9.71.62-5.52 3.15-9.77 6.93-13.01 3.24-2.78 7.37-4.67 11.86-5.91 9.86-2.7 21.89-2.25 29.12-1.46l13.04 1.46zM2986.51 700.32c-34.3 37.03-67.27 75.32-99.65 114.06-4.56 4.32-9.12 8.62-13.68 12.92-26.35 25.28-52.98 50.29-79.5 75.39-14.46-29.09-27.22-56.91-34.31-80.4-4.44-14.75-6.61-27.59-7.07-38.5-.49-11.62.9-20.99 3.43-28.02 2.2-6.15 5.63-11.11 8.75-15.63 5.23-7.56 9.95-14.4 12.21-24.89 2.06-9.54 1.23-20.15-1.46-32.03-2.29-10.13-5.96-21.27-10.27-33.68l-2.07-5.91c-7.39-21.09-16-45.66-16.61-65.14l-.03-1.01c-.13-8.12 1.05-15.1 4.04-19.49 1.98-2.91 5.63-4.8 11.43-4.98l.54-.02c10.41-.16 25.18 3.97 42.67 11.63 18.94 8.29 40.51 20.65 62.88 36.23 22.51 15.67 45.77 34.62 69.41 55.2 17.36 15.12 33.52 29.77 49.29 44.27zm-222.57 230.64c-17.27 16.51-34.43 33.13-51.4 49.96-122.69-212.86-186.07-521.18-151.77-772.94 134.76.21 254.07 62.61 331.88 116.51 92.26 63.91 172.53 145.66 249.26 227.78-19.53 16.28-38.65 33.03-57.39 50.16-24.49 22.34-48.11 45.53-71.08 69.36-17.64-16.26-34.8-31.91-50.36-45.45-24.53-21.36-48.87-41.16-72.79-57.82-24.24-16.88-48.14-30.51-69.65-39.93-22.57-9.88-42.99-15.16-59.14-14.86l-.85.02c-20.01.62-33.88 9.05-42.83 22.22-7.93 11.66-11.11 26.52-10.81 42.27l.03 1.32c.8 25.73 10.47 53.32 18.77 76.99l2.06 5.9c3.89 11.2 7.16 21.1 9.03 29.37 1.48 6.52 2.06 11.7 1.3 15.25-.61 2.86-3.19 6.59-6.05 10.73-4.63 6.7-9.7 14.03-13.52 24.71-4.04 11.29-6.3 25.67-5.58 42.8.6 14.24 3.24 30.39 8.61 48.2 8.71 28.91 24.75 62.67 42.29 97.43zM5003.26 622.9c-21.79-21.55-44.6-42.07-68.45-61.31 151.04-124.61 337.72-206.46 531.79-232.18.66-.09 1.3-.23 1.94-.36 3.38 115.79-14.95 234.92-53.64 346.8-35.97 104.01-89.62 202.09-156.59 286.87-21.04-32.02-41.95-64.18-63.26-96.08 32.2-64.92 64.04-129.39 80.8-175.8 9.09-25.16 13.78-45.41 13.88-61 .16-21.78-7.74-36.2-24.02-43.6-18.81-8.55-45.31-2.9-69.93 2.34-6.32 1.35-12.49 2.66-18.18 3.64-10.87 1.87-19.54 2.39-26.41 1.61-5.25-.6-9.23-1.98-12.25-4.13-1.4-1-3.31-2.73-5.19-4.45-12.64-11.5-25.08-22.82-54.61-11.79-19.3 7.21-46.53 26.67-75.89 49.43zm166.48 206.31c-34.39-50.12-70.29-99.15-109.78-145.42a1042.87 1042.87 0 00-29.13-32.53c25.41-19.62 48.09-35.8 62.02-41.01 7.04-2.63 10.71.71 14.44 4.1 2.63 2.39 5.29 4.81 8.88 7.37 8.53 6.06 18.53 9.82 30.73 11.21 10.56 1.2 22.81.57 37.34-1.92 6.19-1.06 12.88-2.49 19.72-3.95 18.53-3.95 38.47-8.2 45.61-4.96.66.3.97 2.81.93 7.58-.08 10.96-3.99 26.9-11.58 47.91-14.13 39.15-40.86 94.36-69.17 151.6zM2517.21 2521.26c1.48 6.39 2.85 12.84 4.12 19.33-3.21-6.44-6.64-12.75-10.28-18.95 2.1-.15 4.14-.27 6.16-.38zM779.49 3114.33c-152.14-39.94-296.52-100.87-429.29-181.05 7.6-52.23 7.71-105.49-4.09-158.81-14.11-63.77-44.12-120.93-73.83-176.11 117.74 42.46 241.47 68.05 368.87 76.09 28.81 1.82 57.53 2.73 86.17 2.73 118.1 0 234.5-15.48 347.21-46.16 52.52 139.68 95.05 276.71 120.09 420.01 6.29 35.99 11.83 75.3 15.79 117.07-144.45 1.43-289.22-16.58-430.92-53.77zm4649.48-1064.08c44.71 16.52 84.81 48.58 114.99 92.44 35.62 51.77 53.55 115.52 49.17 174.92-8.73 118.51-96.06 233.61-217.31 286.4-104.05 45.32-228.49 45.73-332.85 1.11-86.31-36.9-159.81-105-204.81-187.72 101.44-38.34 199.64-85.35 292.57-141.28 61.33-36.54 119.86-77.57 175.93-121.74 36.85-27.93 82.5-67.17 122.31-104.14zM4787.51 180.82a30.522 30.522 0 0029.42 14.52c195.54-21.12 398.59 8.37 581.14 83.24-188.35 35.89-367.49 121.41-513.7 245.43-60.58-41.08-127.05-72.32-194.03-101.49-81.54-36.06-164.71-68.42-249.65-95.58-30.07-9.52-60.17-19-90.59-27.34-6.1-1.98-12.21-3.94-18.31-5.9-28.42-9.1-56.89-18.1-85.58-26.32 71.9-46.34 151.51-83.03 234.54-107.73 104.52-31.1 214.88-43.39 321.4-36-3.13 6.85-7.54 14.72-13.97 24.38a30.584 30.584 0 00-.66 32.8zm-1628.06 2092c-215.44-74.35-364.45-152.19-483.16-252.33-107.2-90.44-185.77-201.39-226.79-317.12-9.47-35.1-14.94-65.79-16.7-83.73-.13-.31-.26-.61-.39-.92-.27-2.51-.44-5.03-.36-7.56.89-3.99 1.62-8.02.53-12.04.03-4.09-1.57-7.78-3.76-11.15 40.52-12.09 80.04-19.46 121.41-27.18a30.605 30.605 0 0023.8-21.66 30.61 30.61 0 00-8.76-30.97c-57.09-52.2-97.02-92.22-90.93-132 3.57-23.31 22.56-44.66 45.15-68.15 72.52-75.41 145.72-152.53 216.5-227.11 141.39-148.97 287.61-303.01 435.17-450.56 10.08-10.08 20.49-19.91 31.16-29.54 6.81-.41 13.52-3.07 18.91-8.06 4.84-4.49 7.87-10.17 9.12-16.17 112.55-93.02 253.94-162.36 413.51-202.26 178.23-44.56 376.24-52.43 572.61-22.75 192.75 29.13 375.72 93.19 529.11 185.26 160.99 96.63 285.65 222.69 360.5 364.56.14.27.28.54.44.81 103.33 182.35 245.92 343.76 423.93 479.95-2.39 57.82-35.5 111.32-64.05 147.09-7.49 9.39-8.8 22.3-3.33 33 5.47 10.7 16.72 17.22 28.7 16.62 25.85-1.25 51.56-6.81 75.78-16.19-20.95 108.63-62.48 212.23-123.82 308.69-67.6 106.31-156.24 199.74-263.45 277.71-183.08 133.14-464.17 209.24-772.23 209.24-2.64 0-5.29-.01-7.92-.02-106.27-.44-209.23 2.62-308.79 5.6-316.19 9.45-614.87 18.38-931.88-91.05zm-622.91-273.94c20.7 140.54 32.03 283.05 34.02 426.83l-153.19-.35c-4.21-4.7-8.37-9.46-12.39-14.32-1.5-2.04-3.02-4.06-4.43-6.16-2.36-3.58-4.48-7.34-6.39-11.19-.48-1.42-.93-2.84-1.38-4.26-.56-1.95-1.14-3.9-1.63-5.88-.09-2.59.01-5.17.22-7.75 7.41-41.87 17.64-83.19 25.3-125.02 13.45-73.81 25.17-148.01 33.23-222.61 4.76-46.48 7.65-93.27 7.72-140.03 12.44 20.56 25.67 40.64 39.83 60.09 12.85 17 25.77 33.99 39.08 50.66zM3276.3 233.03c8.5 4.32 18.54 4.43 27.14.28a30.605 30.605 0 0016.67-21.41c2.44-11.95 2.9-22.59 2.06-32.15 104.94 19.32 207.17 60.38 296.55 118.92-40.5 12.76-81.16 27.96-120.79 44-73.57 30.89-146.4 64.27-214.45 106.15-32.23 20.2-63.42 42.04-93.65 65.14-79.92-85.66-163.71-171.43-262.35-239.75-65.85-45.62-159.23-96.79-267.81-117.72 83.66-19.08 171.08-26.33 257.81-20.91 124.61 7.77 248.69 41.46 358.81 97.44zM380.77 1585.43c94.61 85.65 219.3 134.82 346.82 136.99 19.18 73.94 42.31 146.84 67.87 218.82-87.9 17.83-181.16 15.91-271.57-5.92-100-24.13-192-71.45-266.2-136.82 15.79-35.04 33.44-69.57 52.89-103.29 21.78-37.76 45.28-74.29 70.18-109.78zm222.79-263.23c23.31 39.1 60.58 69.98 103.38 85.46-6.11 77.51-3.2 156.28 8.49 234.36-2.81 5.62-3.87 12.14-2.75 18.74-109.38-5.63-215.29-50.23-295.63-125.09 57.02-75.23 120.16-145.83 186.52-213.47zm142.89-122.76c-14.59 47.22-25.35 95.71-32.44 144.94-28.64-14.04-52.38-38.29-65.13-67.5 34.36-33.72 69.38-66.75 104.69-99.35-2.46 7.29-4.86 14.59-7.11 21.91zm-575.21 899.82c10.14-80.27 31.08-161.79 61.72-241.48 78.74 65.01 173.89 112.21 276.59 136.99 54.46 13.15 109.9 19.72 164.85 19.72 48.14 0 95.9-5.06 142.27-15.15 26.77 71.52 55.56 142.13 84.83 211.93-109.79 43.22-230.46 67.23-350.86 69.56-129.9 2.52-261.19-20.12-379.59-65.48-2.3-.88-4.64-1.43-6.98-1.74-.13-37.26 2.24-75.4 7.17-114.37zm58.44 416.73c-1.25-2.67-2.51-5.35-3.72-8.03-32.3-71.1-51.98-147.67-58.99-228.92 116.69 42.26 240.2 63.37 363.76 63.37 134.49 0 269-24.98 394.56-74.74 7.32 17.26 14.64 34.48 21.94 51.64 5.75 13.53 11.51 27.07 17.25 40.59 30.96 72.93 60.59 143.79 88.01 213.7-131.72 35.14-268.67 48.55-407.47 39.79-144.71-9.13-284.41-41.93-415.34-97.41zm-73.93 912.04c10.36-22.36 20.89-44.88 31.23-66.96 239.46 229.13 570.22 360.44 901.5 360.44 14.67 0 29.36-.27 44.04-.79-4.75 10.6-9.72 21.16-14.95 31.67-111.68 224.31-326.27 378.87-546.69 393.74-127.33 8.61-247.58-29.32-329.93-104.04-61.19-55.53-103.6-131.74-126.06-226.52-30.26-127.71-15.75-265.34 40.85-387.55zm1001.9 230.28c-343.26 20.15-693.49-110.8-938.97-351.67a31.142 31.142 0 00-4.52-3.65c16.99-36.38 34.08-73.28 50.55-109.94 27.51-61.26 55.24-127.44 72.71-196.19 132.56 77.69 275.91 137.07 426.57 176.62 141.57 37.17 286.1 55.92 430.5 55.92 6.8 0 13.6-.09 20.41-.18 6.75 131.95-4.59 282.56-57.24 429.1zm1055.28-763.95c-210.67-6.23-426.59-30.27-641.82-71.46-57.39-31.98-103.59-85.1-127.17-146.38-22.94-59.63-25.49-131.37-6.09-170.56 1.03-2.08 1.82-4.27 2.35-6.54 44.79-189.53 59.27-384.04 43.06-578.12-1.4-16.83-16.21-29.34-33.01-27.93-16.84 1.4-29.33 16.19-27.93 33.02 14.38 172.13 3.76 344.62-31.51 513.41a30.445 30.445 0 00-17.7-2.08l-3.34.6c-221.27-121.41-399.05-301.98-501.31-509.43-110.7-224.59-133.86-483.88-63.56-711.41 14.35-46.43 32.88-92.17 55.28-136.76 10-8.97 19.99-17.93 29.95-26.87 11.01-9.88 13.18-25.93 5.99-38.2 47.19-78.22 106.54-152.04 176.46-218.87 120.25-114.92 269.93-208.37 432.83-270.26 149.28-56.71 317.43-92.5 499.79-106.37 141.78-10.78 293.11-8.99 460.99 5.51 1.98 50.43 6.5 100.73 14.95 150.59 11.97 70.86 28.71 140.93 48.8 209.92 24.36 80.64 51.02 160.71 85 237.86 12.38 28.83 7.88 18.12 17.3 40.96-45.88 50.63-90.06 102.8-136.57 152.85-20.78 22.6-41.86 45.21-58.37 71.23-12.22 19.44-24.3 39.34-31.61 61.21-15.31 49.02-1.95 99.38 33.27 136.42 6.05 6.56 12.63 12.6 19.48 18.31-10.47 1.74-20.95 3.4-31.4 5.24-20.73 3.73-47.12 10.56-63.19 25.68-30.33-79.28-73.35-149.13-127.98-206.18-122.68-128.13-309.9-195.47-500.84-180.13-171.48 13.78-343.75 92.51-485.1 221.7-12.46 11.39-13.33 30.74-1.94 43.2 11.4 12.46 30.74 13.34 43.2 1.94 131.37-120.08 290.74-193.19 448.74-205.89 172.78-13.89 341.67 46.48 451.77 161.46 107.71 112.48 165.75 281.73 163.44 476.55-1.5 125.91-26.5 251.52-52.96 384.51-10.69 53.74-21.75 109.3-31.63 166.75-2.44 14.11 5.25 28.02 18.51 33.47 22.55 9.27 43.65 22.17 62.66 37.77 3.34 5.76 8.48 10.35 14.68 12.95 42.96 40.91 72.8 96.39 80.36 154.57.24 1.84.46 3.68.65 5.55 6.84 64.32-14.69 128.68-59.05 176.56-45.17 48.75-109.07 75.6-175.4 73.62zm1073.97 220.72c-.04.12-.08.26-.12.38-32.09 106.25-113.51 197.66-217.81 244.52-106.87 48.01-233.13 43.69-329.5-11.27-40.27-22.98-76.06-55.9-103.49-95.21-44.69-64.05-62.22-143.09-49.37-222.57 51.87-320.89 59.32-640.27 22.37-951.1 41.87 41.3 87.03 79.31 134.65 113.79 57.67 41.51 121.19 73.9 185.31 104.14 58.21 27.38 117.05 53.85 177.76 75.21 49.67 15.65 100.59 26.96 151.55 37.55a3255.34 3255.34 0 0088.4 17.5c30.52 229.63 10.08 466.21-59.73 687.06zm2375.05-959.5c-36.47-79.07-93.82-139.43-164.08-173.72 9.27-10.2 16.36-18.81 20.5-25.12 8.45-8.92 10.51-19.43 8.29-28.74 80.54-144.85 131.33-296.87 148.06-444.66a33.246 33.246 0 00-11.73-29.25c-8.58-7.16-20.19-9.54-30.88-6.31l-6.28 1.89c10.19-21.79 19.06-43.7 27.79-65.26 6.54-16.15-.5-34.61-16.14-42.3-130.04-63.96-240.47-167.51-312.96-292.98 83.34-110.96 146.05-234.97 186.52-368.91 42.25-139.84 58.17-283.49 47.32-426.97a33.197 33.197 0 00-18.57-27.36c-201.22-98.13-415.57-142.76-623.23-130.25 4.36-12.32 7.44-22.11 10.48-31.74a33.242 33.242 0 00-2.83-26.48 33.243 33.243 0 00-21.36-15.91c-138.31-32.04-286.5-28.26-428.57 10.96-137.05 37.82-262.09 106.87-362.57 200.08-134.21-9.95-272.55-4.54-411.68 16.06-137.67-98.4-298.36-163.84-465.65-189.54a33.225 33.225 0 00-27.19 8.07 33.29 33.29 0 00-11.08 26.12c.34 8.35.62 15.42-.23 22.37-103.33-40.98-216.2-62.53-328.7-62.53h-1.52c-128.47.22-252.85 27.09-369.69 79.87-7.07 3.2-12.8 8.76-16.19 15.73-26.91 55.24-41.74 118.7-45.89 197.46-338.69-56.06-664.28-32.21-943.93 69.45-153 55.61-290.53 134.05-408.79 233.11-123.08 103.1-225.44 228.77-304.29 373.6-208.02 178.87-422.48 374.71-565.94 626.05-74.19 129.99-123.43 271.88-142.43 410.33-21.13 154.05-5.33 297.96 46.96 427.74 14.49 35.98 31.88 70.99 48.69 104.86 41.13 82.83 80 161.09 80.81 254.02-10.18 126.69-56.85 248.16-112.2 382.39-57.1 138.46-105.92 264.12-125.14 399.82-13.42 94.78-9.16 182.07 12.65 259.47 19.4 68.88 52.79 130.48 99.22 183.11 129.02 146.23 320.08 184.27 407.38 184.26 1.54 0 3.05-.01 4.53-.03 73.87-1.17 150.54-16.54 227.86-45.68 143.92-54.25 268.83-149.69 361.24-276 154.55-211.25 231.22-499.59 210.37-791.08-11.99-167.65-51.85-335.82-121.86-514.13-32.1-81.76-70.37-165.04-115.53-251.22 76.91 64.11 161.26 119.36 250.81 163.93-6.35 35.92-6.17 73.21.57 111.25 12.86 72.57 48.35 137.85 102.64 188.78 53.81 50.48 121.05 82.22 194.46 91.79 186.38 24.3 367.81 47.63 537.67 69.45 106.14 13.63 213.24-22.72 286.57-97.23 14.83-15.08 27.93-31.16 39.2-48.13a822.58 822.58 0 01-22.69 70.42c-.45 1.23-.84 2.49-1.15 3.76-34.35 141.87.55 291.32 93.35 399.79 10.8 12.62 22.33 24.67 34.29 35.82a439.953 439.953 0 0038.13 31.72c150.53 111.64 357.74 113.75 515.61 5.25 125.95-86.57 218.68-226.13 261.09-393 47.46-186.69 34.31-384.87 16.06-566.02 242.04 37.44 487.87 48.93 732.65 41.83 175.05-3.57 349.96-14.74 523.75-36.26 8.24-1.05 16.49-2.11 24.72-3.21 3.09 1.13 6.28 1.89 9.5 2.14 50.03 68.91 109.66 129.41 174.44 176.67 85.85 62.64 177.2 100.61 271.54 112.84 98.31 12.74 202.25-6.23 292.67-53.45 93.66-48.91 165.76-125.05 203.04-214.39 40.02-95.91 36.11-213.45-10.46-314.42zm-1410.82-329.2c40.75 0 82-14.14 120.95-41.48 31.6 27.71 74.69 42 116.64 37.91 1.24-.12 2.46-.33 3.7-.48 18.13 64.35-13.26 104.6-33.83 122.99-25.18 22.49-58.78 34.99-92.13 36.07 1.61-4.56 2.68-9.32 3.05-14.21 1.78-23.46-11.88-46.74-33.23-56.62-5.6-2.59-11.4-4.18-16.52-5.58-6.99-1.92-13.03-3.56-16.32-6.88-2.16-2.18-3.88-5.84-5.87-10.09-1.71-3.65-3.64-7.77-6.3-11.76-10.77-16.2-30.94-25.3-50.22-22.64-4.77.66-9.33 2.02-13.63 3.86-2.22-10.59-3.87-21.74-4.88-33.46 3.71.61 7.43 1.14 11.18 1.52 5.79.57 11.6.86 17.42.86zm49.39 174.26c-5.03 6.42-5.46 13.69-5.73 18.03l-5.95 98.5c-.37 6.2-2.63 16.72-7.74 25.95-3.01 5.46-9.44 9.27-13.2 7.86-5.15-1.93-7.88-12.6-7.27-28.55l2.87-75.64c.97-25.75 2.19-57.79-12.49-85.34-4.18-7.87-9.3-14.67-14.23-21.25-4.1-5.45-7.98-10.61-11-15.95-4.42-7.79-7.88-19.4-3.27-26.72 4.8-6.42 13.81-13.76 22.54-14.97 8.26-1.12 17.25 2.91 21.86 9.85 1.46 2.19 2.78 5.01 4.18 7.99 2.75 5.86 5.86 12.49 11.58 18.26 8.8 8.87 19.72 11.86 29.37 14.49 4.41 1.21 8.58 2.35 11.95 3.91 10.17 4.71 17.2 16.68 16.35 27.85-.85 11.18-9.61 21.95-20.36 25.06-.57.17-1.16.32-1.74.48-4.92 1.31-12.35 3.31-17.71 10.15zm-121.45-189.72c1.31 32.19 6.29 59.45 13.64 82.53-3.74 13.66-1.18 29.74 7.61 45.24 3.96 6.98 8.58 13.13 13.06 19.08 4.46 5.95 8.68 11.57 11.81 17.43 10.96 20.58 9.96 47.09 9.07 70.48l-2.87 75.64c-1.16 30.9 7.66 50.1 26.24 57.05 3.62 1.36 7.66 2.07 11.87 2.07 13.28 0 28.27-7.04 37.18-23.16 6.34-11.46 10.59-25.8 11.35-38.35l5.95-98.51c0-.09.01-.2.02-.31a179.13 179.13 0 0038.15 4.1c44.96 0 90.28-16.36 124.76-47.18 47.37-42.33 64.21-102.59 46.55-165.86 30.49-13.1 56.82-35.89 73.36-64.8 5.84-10.19 2.31-23.19-7.89-29.03s-23.19-2.3-29.02 7.89c-17.53 30.62-50.24 51.78-85.36 55.22-32.94 3.25-66.84-9.26-90.02-32.81.01-.24.04-.48.04-.73l.5-38.26c64-6.9 128.99-50.02 185.26-155.71 19.19-36.03 5.91-81.78-28.82-101.12-133.42-74.31-290.56-66.48-413.66 7.14-32.58 19.5-40.45 65.29-16.34 95.79 47.17 59.7 135.46 141.4 231.03 153.42l-.5 38.19c-.01.16.02.32.02.48-37.39 27.51-76.64 40.06-114.14 36.32-39.82-3.98-78.39-27.11-100.66-60.37-6.53-9.76-19.75-12.37-29.51-5.84-9.76 6.54-12.38 19.75-5.84 29.51 19.01 28.38 46.14 50.68 77.14 64.43z"/><path class="fil0" d="M552.87 1626.24c-50.37-21.31-97.1-51.3-137.41-88.85l-1.54-1.44 1.27-1.66c28.51-37.62 58.59-74.12 89.86-109.71 31.25-35.56 63.66-70.16 96.85-103.99l2.1-2.15 1.54 2.58c11.53 19.33 26.52 36.64 43.93 51.03 17.37 14.36 37.14 25.8 58.25 33.44l1.67.61-.14 1.76c-3.05 38.63-3.85 77.56-2.44 116.51 1.41 39.09 5.06 78.28 10.91 117.32l.11.72-.33.65a28.285 28.285 0 00-2.65 8.43c-.42 2.88-.4 5.88.11 8.89l.48 2.84-2.89-.14c-55.03-2.83-109.19-15.48-159.69-36.85zm50.48 1998.51c153.98 61.56 319.49 94.45 485.13 94.45 7.66 0 14.98-.07 21.98-.19 7.28-.13 14.61-.33 21.98-.59l3.72-.13-1.52 3.4c-2.42 5.39-4.86 10.7-7.31 15.92-2.55 5.41-5.11 10.71-7.67 15.85-56 112.49-137.83 207.5-233.29 276.26-95.51 68.78-204.68 111.3-315.33 118.77-63.95 4.32-126.13-3.05-182.67-20.87-56.59-17.85-107.55-46.18-148.98-83.77-30.77-27.92-56.83-61.06-78.02-99.13-21.17-38.04-37.47-80.99-48.74-128.56-15.19-64.1-19.14-130.7-12.2-196.62 6.95-65.9 24.8-131.11 53.2-192.44l15.63-33.6 16.97-36.29 2.33 2.23c119.29 114.14 261.32 203.98 414.77 265.34zM993.5 3158c-71.99-8.98-143.66-22.8-214.58-41.42-76.14-19.99-150.35-45.23-222.14-75.51-71.86-30.31-141.29-65.65-207.77-105.8l-1.32-.8.23-1.52c3.78-26.01 5.7-52.27 5.21-78.63-.49-26.35-3.4-52.85-9.26-79.35-7.02-31.71-18-61.8-30.92-90.83-12.92-29.04-27.84-57.1-42.69-84.67l-2.87-5.34 5.7 2.06c58.81 21.21 119.12 38.2 180.65 50.9 61.42 12.67 124.04 21.05 187.59 25.06 14.45.91 28.82 1.6 43.07 2.04 14.16.45 28.48.67 42.95.67 58.98 0 117.5-3.86 175.29-11.55 57.81-7.68 115-19.21 171.31-34.53l2.03-.56.75 1.98c26.27 69.85 50.05 139.09 70.41 208.82 20.35 69.74 37.27 139.91 49.8 211.61 3.26 18.65 6.33 38.27 9.09 58.75a1480.5 1480.5 0 016.71 58.5l.24 2.51-2.53.03c-72.41.72-144.88-3.43-216.94-12.43zm-637.39-889.64c-64.01-11.04-126.57-28.08-185.89-50.81-1.08-.41-2.16-.75-3.19-1-1.11-.27-2.19-.47-3.26-.61l-2.01-.27-.01-2.03c-.06-18.76.5-37.7 1.7-56.81 1.19-19.02 3.02-38.3 5.49-57.84 5.08-40.18 12.84-80.62 23.14-120.94 10.35-40.51 23.31-81 38.71-121.07l1.16-3.02 2.49 2.06c39.26 32.42 82.61 60.4 128.94 83.34 46.3 22.92 95.57 40.85 146.71 53.19a706.822 706.822 0 0081.78 14.71c27.5 3.29 55.07 4.93 82.52 4.93 24.05 0 47.97-1.26 71.63-3.78 23.61-2.51 47.04-6.29 70.15-11.31l1.96-.42.7 1.89c13.36 35.69 27.25 71.22 41.46 106.56 14.16 35.21 28.68 70.33 43.34 105.29l.92 2.18-2.22.87c-55.07 21.68-112.89 38.54-172.03 50.26-58.99 11.69-119.34 18.28-179.63 19.45-65.12 1.26-130.57-3.78-194.56-14.82z"/><path d="M601.5 2669.05c19.73 98.13 29.23 218.4 29.96 326.81.17 25.43-.14 50.21-1.02 74.2-24.82-9.08-49.38-18.75-73.67-28.99a1621.786 1621.786 0 01-177.76-88.12c10.12-54.99 19.48-110.78 25.65-164.4 6.12-53.15 9.1-104.17 11.87-149.71 12.35 2.92 24.74 5.66 37.18 8.23 48.56 10.01 97.86 17.35 147.79 21.97z" fill="#ef9448"/><path d="M668.1 1385.73c12.43 8.06 25.74 14.74 39.63 19.76l1.67.61-.14 1.76c-3.05 38.63-3.85 77.56-2.44 116.51 1.41 39.09 5.06 78.28 10.91 117.32l.11.72-.33.65a28.285 28.285 0 00-2.65 8.43c-.42 2.88-.4 5.88.11 8.89l.48 2.84-2.89-.14c-36.06-1.86-71.76-7.93-106.29-17.91.46-8.48 1.08-16.97 1.88-25.47 7.57-79.57 31.02-160.43 59.94-233.99zM304.09 4090.8c46.78-19.24 91.6-44.77 134.62-76.64 109.72-81.27 207.81-203.67 280.33-349.19 119.81 35.55 244.58 54.24 369.42 54.24 7.66 0 14.98-.07 21.98-.19 7.28-.13 14.61-.33 21.98-.59l3.72-.13-1.52 3.4c-2.42 5.39-4.86 10.7-7.31 15.92-2.55 5.41-5.11 10.71-7.67 15.85-56 112.49-137.83 207.5-233.29 276.26-95.51 68.78-204.68 111.3-315.33 118.77-63.95 4.32-126.13-3.05-182.67-20.87-29.85-9.41-58.13-21.74-84.27-36.81zm548.18-956.72c9.2-159.5-2.34-319.79-23.09-463.08 24.59-1.88 49.07-4.44 73.43-7.67 57.81-7.68 115-19.21 171.31-34.53l2.03-.56.75 1.98c26.27 69.85 50.05 139.09 70.41 208.82 20.35 69.74 37.27 139.91 49.8 211.61 3.26 18.65 6.33 38.27 9.09 58.75a1480.5 1480.5 0 016.71 58.5l.24 2.51-2.53.03c-72.41.72-144.88-3.43-216.94-12.43a1641.37 1641.37 0 01-141.22-23.93zm-112.52-872.27c-18.73-66.23-37.81-128.42-55.68-187.75-6.32-20.98-12.49-41.61-18.41-61.93a676.472 676.472 0 0080.37-3.72c23.61-2.51 47.04-6.29 70.15-11.31l1.96-.42.7 1.89c13.36 35.69 27.25 71.22 41.46 106.56 14.16 35.21 28.68 70.33 43.34 105.29l.92 2.18-2.22.87c-52.14 20.52-106.73 36.73-162.58 48.34z" fill="#e2633a"/><path class="fil3" d="M2562.87 2210.79c5.68 71.18 9.01 142.85 10 214.91l.03 2.35c-52.19-.11-104.39-.13-156.58-.36l-.69-.77a491.26 491.26 0 01-6.29-7.13 431.32 431.32 0 01-6.16-7.26l-.81-1.09c-1.26-1.71-2.54-3.44-3.75-5.26a99.193 99.193 0 01-3.45-5.64c-1.1-1.93-2.12-3.87-3.09-5.81-.57-1.12-1.33-3.97-1.72-5.32-.52-1.78-1.04-3.58-1.47-5.29l-.05-.22-.01-.27c-.04-1.33-.04-2.67 0-4.01.04-1.43.12-2.76.23-4l.03-.21c3.88-21.94 8.53-43.73 13.19-65.51 4.25-19.9 8.5-39.8 12.12-59.53 6.69-36.73 12.97-73.68 18.62-110.93 5.62-37.12 10.57-74.3 14.59-111.5 2.37-23.2 4.28-46.48 5.61-69.8 1.32-23.35 2.07-46.7 2.1-69.99l.01-8.3 4.3 7.1a869.801 869.801 0 0019.22 30.38 803.673 803.673 0 0020.48 29.51c6.62 8.75 13.15 17.37 19.35 25.43 6.44 8.38 12.98 16.77 19.69 25.18l.39.49.09.62a3203.456 3203.456 0 0124.03 212.23zM1208.78 3454.93c-8.99 67.43-24.55 136.24-48.95 204.18l-.52 1.45-1.53.09c-172.01 10.1-345.78-17.68-507.28-78.17-161.38-60.44-310.52-153.55-433.45-274.17-.63-.62-1.3-1.21-1.98-1.76-.71-.57-1.45-1.11-2.2-1.61l-1.67-1.11.85-1.81a11043.7 11043.7 0 0025.46-54.85c8.53-18.53 16.94-36.95 25.07-55.05 13.71-30.54 27.5-62.34 40.07-95.17 12.52-32.72 23.8-66.37 32.5-100.65l.76-2.99 2.67 1.57c66.2 38.8 135.1 73.03 206.27 102.49 71.12 29.45 144.51 54.14 219.7 73.88 70.7 18.56 142.11 32.52 213.84 41.84 71.75 9.32 143.91 14 216.08 14 6.82 0 12.45-.07 18.1-.14l4.51-.06.11 2.23c3.63 71.04 2.03 147.49-8.42 225.81zM673.62 1317.76c-11.21-11.61-20.42-25.15-26.88-39.93l-.64-1.46 1.14-1.12a4132.21 4132.21 0 0152.02-50.12c17.45-16.54 35.05-32.96 52.73-49.28l6.66-6.15-2.89 8.59c-1.15 3.44-2.35 7.02-3.62 10.93-1.21 3.72-2.38 7.38-3.47 10.93a924.846 924.846 0 00-18.9 71.13 968.89 968.89 0 00-13.47 73.46l-.46 3.16-2.86-1.41c-14.64-7.18-28.03-16.98-39.36-28.73zm-13.24 637.73c-45.71-1-91.73-6.95-137.03-17.89-50.17-12.11-98.34-30.03-143.26-53.12-44.96-23.1-86.68-51.39-123.92-84.21l-1.29-1.14.71-1.56c7.92-17.56 16.33-35.06 25.24-52.45 8.79-17.17 18.05-34.21 27.76-51.05a1424.6 1424.6 0 0133.97-55.84c11.72-18.3 23.84-36.34 36.31-54.12l1.5-2.15 1.95 1.77c47.06 42.61 101.63 76.16 160.3 99.32 58.72 23.19 121.53 35.99 185.01 37.07l1.76.03.45 1.71c9.57 36.89 20.14 73.57 31.52 110.04 11.37 36.45 23.54 72.65 36.3 108.59l.89 2.51-2.63.54c-44.18 8.96-89.7 12.95-135.54 11.95zm191.16 656.82c-68.15 6.65-137.19 7.82-206.67 3.43-72.47-4.57-143.68-15.07-213.15-31.36-69.51-16.3-137.32-38.42-202.95-66.23l-.82-.35-4.12-8.86c-16.18-35.62-29.21-72.64-39.08-110.95-9.89-38.37-16.6-77.98-20.1-118.73l-.31-3.61 3.42 1.24c57.94 20.98 117.57 36.74 178.04 47.28 61.05 10.64 122.98 15.95 184.93 15.95 67.44 0 134.88-6.3 201.16-18.85 65.67-12.44 130.22-31.03 192.55-55.73l2.11-.84 40.08 94.32c15.43 36.34 30.56 72.26 45.34 108.01 14.75 35.68 29.03 70.91 42.69 105.75l.95 2.42-2.52.67c-65.98 17.61-133.31 29.77-201.53 36.43zm2538.1-2218.58c-35.81 17.39-70.96 36.17-104.95 57.09-15.98 10-31.8 20.49-47.46 31.4a1285.964 1285.964 0 00-46 33.6l-1.67 1.28-1.44-1.54c-39.92-42.79-80.82-85.61-124.05-126.27-43.2-40.63-88.72-79.08-137.92-113.16-36.5-25.29-81.5-52.29-132.87-74.88-40.99-18.02-86.04-33.22-134.05-42.48l-10.84-2.09 10.77-2.46a908.323 908.323 0 01128.48-19.72c43.11-3.49 86.63-3.94 129.98-1.23 62.48 3.89 124.82 14.29 185.31 30.71 60.5 16.43 119.21 38.91 174.41 66.97 3.94 2 8.22 3.03 12.51 3.08a28.246 28.246 0 0022.58-10.9c2.64-3.39 4.52-7.38 5.4-11.7 1.2-5.85 1.91-11.39 2.22-16.64.31-5.25.22-10.19-.2-14.84l-.27-3.03 3 .55c52.6 9.68 104.51 24.81 154.46 44.84 50.03 20.06 98.11 45.05 142.94 74.42l4.1 2.69-4.69 1.48c-20.18 6.36-40.44 13.34-60.62 20.74-20.14 7.38-40.18 15.18-59.96 23.19-36.8 15.46-73.39 31.52-109.18 48.9zm1399.06 77.15c-32.59-16.6-65.89-31.68-99.29-46.23-40.83-18.05-81.98-35.15-123.45-51.09-41.56-15.98-83.55-30.85-125.97-44.41-15.42-4.87-30.78-9.72-45.14-14.11-15.06-4.59-30.17-9.04-45.36-13.21-6.02-1.68-12.4-3.99-18.41-5.92-14.18-4.54-28.38-9.06-42.66-13.48-14.11-4.37-28.37-8.67-42.84-12.82l-4.93-1.41 4.31-2.78c36.1-23.27 74.17-44.12 113.66-62.26 39.29-18.05 79.96-33.4 121.48-45.74 52.33-15.58 106.14-26.45 160.2-32.5 54.16-6.07 108.58-7.3 162.02-3.6l3.35.23-1.39 3.05c-1.6 3.49-3.52 7.24-5.84 11.32-2.33 4.1-5.07 8.53-8.3 13.38a28.273 28.273 0 00-.62 30.32c2.84 4.68 6.91 8.33 11.64 10.66a28.247 28.247 0 0015.56 2.75c97.76-10.56 197.39-8.5 295.4 5.54 98.41 14.1 195.22 40.27 286.86 77.86l7.22 2.97-7.68 1.46c-94.01 17.92-185.72 48.22-272.16 89.52-86.38 41.27-167.53 93.54-240.47 155.4l-1.34 1.14-1.46-.99c-30.15-20.45-61.85-38.49-94.37-55.06zm199.31 1879.73c48.28-23.31 95.54-48.79 141.53-76.47 30.63-18.24 60.56-37.62 89.82-57.93 29.22-20.28 57.83-41.56 85.87-63.65l.03-.03c17.93-13.59 37.86-29.79 58.13-47.05 21.48-18.29 43.49-37.89 64-56.93l1.05-.98 1.33.49c22.64 8.36 44.11 20.68 63.74 36.45 19.5 15.68 37.18 34.78 52.36 56.85 17.96 26.1 31.47 55.23 39.91 85.29 8.45 30.09 11.87 61.15 9.66 91.11-4.39 59.71-28.58 118.54-66.93 169.08-38.31 50.5-90.78 92.73-151.77 119.29-52.31 22.78-109.76 34.28-167.24 34.47-57.47.19-114.99-10.92-167.45-33.35-43.2-18.47-83.22-44.72-118.1-76.69-35.18-32.24-65.13-70.31-87.84-112.06l-1.27-2.35 2.49-.94c51.14-19.33 101.46-40.86 150.66-64.62zm-2359.25 201.12c3.73-158.73-3.64-316.23-22.11-471.61l-.78-6.58 4.72 4.66c20.73 20.45 42.3 40.12 64.59 58.96a1186.62 1186.62 0 0069.79 54.61c28.73 20.68 58.95 39.11 89.99 56.14 31.06 17.05 62.94 32.69 94.95 47.79 28.95 13.62 58.15 27.05 87.87 39.82 29.56 12.7 59.38 24.64 89.59 35.27 24.82 7.82 49.92 14.55 75.15 20.64 25.22 6.08 50.69 11.56 76.18 16.86 14.72 3.13 29.43 6.14 44.12 9.04 14.95 2.96 29.7 5.77 44.22 8.44l1.66.3.22 1.68c15.29 115.07 17.82 231.87 7.76 347.53-10.05 115.55-32.64 230.02-67.57 340.53l-.12.35c-16.14 53.45-44.69 103.17-82.31 145.4-37.61 42.22-84.31 76.99-136.78 100.56-53.76 24.15-112.39 35.14-169.7 33.18-57.35-1.96-113.38-16.88-161.89-44.55-20.29-11.58-39.46-25.66-56.99-41.79-17.52-16.11-33.43-34.3-47.25-54.11-22.52-32.28-38.2-68.33-46.63-106.32-8.42-37.98-9.61-77.91-3.14-117.94 25.91-160.29 40.73-320.2 44.46-478.85zm-1146.49-339.8c7.18-96.45 6.75-193.49-1.35-290.42-.65-7.79-4.4-14.56-9.92-19.22-5.52-4.67-12.81-7.23-20.57-6.58l-.12.01c-7.74.67-14.47 4.41-19.12 9.9a28.131 28.131 0 00-6.58 20.59c7.19 86.15 8.14 172.39 2.87 258.22a1784.18 1784.18 0 01-34.43 255.87l-.59 2.8-2.61-1.15a28.155 28.155 0 00-8.04-2.18c-2.72-.32-5.52-.25-8.33.26l-4.15.75-.71-.39c-110.85-60.82-210.82-136.48-295.88-222.92-85.03-86.41-155.17-183.6-206.39-287.52-55.47-112.54-89.01-233.8-99.88-355.43-10.87-121.64.94-243.64 36.18-357.69a867.379 867.379 0 0124.61-69.05c9.26-22.91 19.55-45.62 30.81-68.06l.2-.39 30.28-27.17a28.13 28.13 0 009.05-16.64c.99-6.32-.16-12.94-3.52-18.66l-.7-1.2.71-1.18c23.7-39.29 50.48-77.48 80.12-114.25 29.48-36.57 61.8-71.71 96.73-105.1 60.24-57.57 127.85-109.76 200.79-155.3 72.93-45.54 151.22-84.45 232.81-115.45 74.75-28.4 154.22-51.56 237.82-69.35 83.59-17.79 171.33-30.22 262.62-37.16 70.9-5.39 144.25-7.64 220.9-6.73 76.67.92 156.54 4.99 240.45 12.23l2.03.18.08 2.05c.99 25.18 2.62 50.32 5.04 75.38 2.43 25.03 5.67 50.02 9.88 74.92 5.97 35.33 13.14 70.53 21.33 105.52 8.2 35.03 17.39 69.75 27.4 104.11 12.21 40.38 24.96 80.55 38.86 120.14 13.92 39.65 29.06 78.89 46.05 117.44l9.89 23.04 7.98 19.33-.98 1.08c-18.91 20.87-38.14 42.7-57.37 64.52-26.1 29.64-52.2 59.27-79.22 88.34l-2.16 2.35c-20 21.73-40.13 43.6-55.96 68.55-6.07 9.66-12.12 19.45-17.56 29.55-5.4 10.03-10.19 20.35-13.79 31.11-7.45 23.85-7.99 48.02-2.45 70.76 5.66 23.21 17.68 44.96 35.19 63.37l.03.03c2.99 3.24 6.1 6.35 9.31 9.35 3.25 3.04 6.58 5.95 9.95 8.75l3.9 3.25-14.72 2.43c-7.02 1.15-14.06 2.31-21.66 3.64-10.24 1.84-21.89 4.45-32.95 8.46-10.93 3.97-21.27 9.3-29.05 16.62l-2.53 2.37-1.24-3.24c-15.18-39.68-33.55-76.99-54.96-111.49-21.22-34.2-45.45-65.64-72.52-93.91-61.09-63.81-138.26-112.49-223.93-143.29-85.69-30.82-179.9-43.77-275.05-36.13-85.47 6.87-171.15 29.93-253.07 67.37-81.93 37.44-160.11 89.26-230.58 153.66l-.08.07a28.186 28.186 0 00-9.16 19.59c-.32 7.19 2.08 14.52 7.3 20.26l.07.08c5.26 5.76 12.37 8.84 19.59 9.16 7.23.32 14.58-2.1 20.34-7.36 65.86-60.2 138.76-108.64 214.98-143.61 76.27-34.99 155.88-56.52 235.14-62.88 86.72-6.97 172.47 4.7 250.35 32.53 77.91 27.84 147.97 71.88 203.27 129.64 54.09 56.5 95.71 127.22 123.5 208.25 27.76 80.96 41.74 172.24 40.58 269.94-1.5 126.13-26.51 251.8-52.98 384.85l-.02.08c-5.36 26.96-10.82 54.39-16.12 81.97-5.33 27.75-10.56 55.98-15.5 84.72-1.13 6.52.09 13.01 3.12 18.48 3.02 5.46 7.86 9.94 13.98 12.45 11.28 4.64 22.2 10.17 32.65 16.47 10.67 6.43 20.9 13.69 30.6 21.66l.33.27.21.36c1.55 2.67 3.52 5.08 5.83 7.11 2.27 2.01 4.88 3.66 7.74 4.86l.4.16.31.3c21.91 20.87 40.44 45.49 54.38 72.3 13.63 26.23 22.9 54.59 26.68 83.64l.66 5.6c3.45 32.5-.26 65.01-10.43 95.44-10.17 30.42-26.82 58.76-49.23 82.96-22.83 24.64-50.38 43.74-80.59 56.41a231.655 231.655 0 01-96.58 17.95c-105.43-3.12-212.15-10.69-319.39-22.63-107.28-11.95-215.13-28.26-322.81-48.87l-.36-.07-.33-.18c-28.95-16.13-55.07-37.59-76.92-62.74-21.82-25.12-39.4-53.95-51.29-84.84-11.56-30.05-17.99-63.16-19.08-93.69-1.09-30.66 3.2-58.79 13.07-78.73.48-.98.91-1.97 1.26-2.95.35-.97.66-2.01.91-3.08 22.36-94.65 37.17-190.54 44.35-286.98z"/><path class="fil3" d="M3006.72 3065.65c2.56-60.55 47.72-151.88 94.41-178.57 46.7-26.69 94.93 11.29 109.29 60.03 14.37 48.75-5.13 108.27-31.81 149.84-26.68 41.56-60.55 65.17-97.49 62.09-36.95-3.08-76.97-32.84-74.4-93.39z"/><path d="M571.94 2561.76c5.73 15 11.02 31.47 15.88 49.14-52.85-5.66-104.95-14.52-156.1-26.51-3.8-.89-7.58-1.8-11.36-2.72 3.91-49.56 9.48-88.42 22.28-110.21 27.71-47.21 89.28-14.37 129.31 90.31zm55.01 567.13c-7.92 94.14-27.02 172.6-63.57 225.63-52.69 76.44-141.64 100-189.87 73.32-48.23-26.69-55.75-103.61-40.01-221.1 7.7-57.49 20.98-124.7 34.45-195.06a1675.214 1675.214 0 00176.9 85.68c27.05 11.2 54.42 21.71 82.1 31.52z" fill="#995037"/><path class="fil4" d="M743.31 3613.24c26.48-60.09 48.64-123.53 65.59-189.18 19.49-75.51 32.07-153.95 39.18-233.1 43.26 9.08 86.73 16.46 130.32 22.12 71.75 9.32 143.91 14 216.08 14 6.82 0 12.45-.07 18.1-.14l4.51-.06.11 2.23c3.63 71.04 2.03 147.49-8.42 225.81-8.99 67.43-24.55 136.24-48.95 204.18l-.52 1.45-1.53.09c-139.5 8.19-280.15-8.53-414.47-47.41zm77.18-998.28c-18.08-108.93-41.16-207.45-65.59-298.31 57.74-12.25 114.51-29.29 169.54-51.1l2.11-.84 40.08 94.32c15.43 36.34 30.56 72.26 45.34 108.01 14.75 35.68 29.03 70.91 42.69 105.75l.95 2.42-2.52.67c-65.98 17.61-133.31 29.77-201.53 36.43-10.33 1.01-20.68 1.89-31.06 2.64zm-170.92-659.8c-23.69-87.19-40.93-169.49-43.79-251.59 39.71 10.21 80.64 15.85 121.85 16.56l1.76.03.45 1.71c9.57 36.89 20.14 73.57 31.52 110.04 11.37 36.45 23.54 72.65 36.3 108.59l.89 2.51-2.63.54c-44.18 8.96-89.7 12.95-135.54 11.95-3.6-.08-7.21-.19-10.82-.33zm40.84-622.56c15.81-35.41 32.36-68.38 48.28-97.74a924.253 924.253 0 00-8.92 36.41 968.89 968.89 0 00-13.47 73.46l-.46 3.16-2.86-1.41c-7.94-3.89-15.51-8.55-22.58-13.88zm137.66-186.8c-10.3 29.26-24.84 69.12-37.79 115.22 3.74-14.85 7.87-29.59 12.38-44.19a867.379 867.379 0 0124.61-69.05l.8-1.98zm-65.13 367.67c9.57 115.1 46.83 236.83 96.8 363.04 21.43 54.13 45.2 109.08 70.82 165.46-23.83-36.29-45.3-73.7-64.19-112.02-55.47-112.54-89.01-233.8-99.88-355.43-1.82-20.35-3-40.71-3.55-61.05zM2562.87 2210.79c5.68 71.18 9.01 142.85 10 214.91l.03 2.35c-52.19-.11-104.39-.13-156.58-.36l-.69-.77a491.26 491.26 0 01-6.29-7.13 431.32 431.32 0 01-6.16-7.26l-.81-1.09c-1.26-1.71-2.54-3.44-3.75-5.26a99.193 99.193 0 01-3.45-5.64c-1.1-1.93-2.12-3.87-3.09-5.81-.57-1.12-1.33-3.97-1.72-5.32-.52-1.78-1.04-3.58-1.47-5.29l-.05-.22-.01-.27c-.04-1.33-.04-2.67 0-4.01.04-1.43.12-2.76.23-4l.03-.21c3.88-21.94 8.53-43.73 13.19-65.51 4.25-19.9 8.5-39.8 12.12-59.53 6.69-36.73 12.97-73.68 18.62-110.93 5.62-37.12 10.57-74.3 14.59-111.5 2.37-23.2 4.28-46.48 5.61-69.8 1.32-23.35 2.07-46.7 2.1-69.99l.01-8.3 4.3 7.1a869.801 869.801 0 0019.22 30.38 803.673 803.673 0 0020.48 29.51c6.62 8.75 13.15 17.37 19.35 25.43 6.44 8.38 12.98 16.77 19.69 25.18l.39.49.09.62a3203.456 3203.456 0 0124.03 212.23zm2953.42-105.53c-50.05 12.22-118.88 28.65-187.79 74.44-85.69 56.95-171.49 159.34-162.56 238.23 8.93 78.89 112.58 134.31 220.85 115.84 53.56-9.14 108.26-36.36 156.26-67.52-4.59 7-9.44 13.88-14.54 20.6-38.31 50.5-90.78 92.73-151.77 119.29-52.31 22.78-109.76 34.28-167.24 34.47-57.47.19-114.99-10.92-167.45-33.35-43.2-18.47-83.22-44.72-118.1-76.69-35.18-32.24-65.13-70.31-87.84-112.06l-1.27-2.35 2.49-.94c51.14-19.33 101.46-40.86 150.66-64.62 48.28-23.31 95.54-48.79 141.53-76.47 30.63-18.24 60.56-37.62 89.82-57.93 29.22-20.28 57.83-41.56 85.87-63.65l.03-.03c17.1-12.96 36.01-28.28 55.29-44.64 32.12-18.33 63.73-35.78 92.52-49.62 14.13 7.19 27.67 15.98 40.44 26.24 7.91 6.36 15.52 13.28 22.78 20.74zM4296.51 238.12c41.96 7.12 118.93 39.96 217.45 53.3 98.52 13.34 218.59 7.18 363.81-8.72 135.59-14.86 293.09-38.2 399.01-48.75 30.97 8.93 61.56 19.1 91.64 30.47-36.84 12.79-86.04 29.9-132.49 54.2-11.09 5.8-22.03 12.02-32.8 18.52-26 10.13-51.62 21.22-76.8 33.25-78.92 37.7-153.46 84.59-221.37 139.58-10.1 1.48-20.38 2.39-31.02 2.79-3.51.13-7.07.21-10.66.23-24.13-15.24-49.1-29.13-74.59-42.11-32.59-16.6-65.89-31.68-99.29-46.23-40.83-18.05-81.98-35.15-123.45-51.09-41.56-15.98-83.55-30.85-125.97-44.41-15.42-4.87-30.78-9.72-45.14-14.11-15.06-4.59-30.17-9.04-45.36-13.21-6.02-1.68-12.4-3.99-18.41-5.92-14.18-4.54-28.38-9.06-42.66-13.48-14.11-4.37-28.37-8.67-42.84-12.82l-4.93-1.41 4.31-2.78a896.458 896.458 0 0146.46-28c1.79.19 3.51.42 5.1.69zm-719.14 32.58c-35.75 9.13-77.33 22.2-116.6 34.06-62.86 18.99-119.82 34.89-174.46 34.38-54.65-.52-106.99-17.45-157.79-40.28-50.8-22.83-100.05-51.57-150.86-78-50.8-26.42-103.13-50.54-159.32-66.45-23.81-6.74-48.29-12-70.79-15.76a909.178 909.178 0 00-84.2 14.64c2.58 2.5 5.7 5.25 9.34 8.26 42.99 9.37 83.45 23.38 120.6 39.71 51.37 22.59 96.37 49.59 132.87 74.88 49.2 34.07 94.72 72.53 137.92 113.16 43.23 40.65 84.13 83.48 124.05 126.27l1.44 1.54 1.67-1.28c15.06-11.51 30.39-22.73 46-33.6 15.66-10.92 31.48-21.4 47.46-31.4 33.99-20.92 69.14-39.7 104.95-57.09 35.79-17.38 72.38-33.44 109.18-48.9 19.78-8.01 39.82-15.81 59.96-23.19 20.18-7.4 40.44-14.38 60.62-20.74l4.69-1.48-4.1-2.69c-13.9-9.11-28.12-17.8-42.61-26.04zM1339.63 1301.82c21.76-37.42 98.02-112.01 220.37-166.62 124.61-55.62 297.02-90.51 440.69-88.46 143.68 2.05 258.62 41.05 338.15 56.96 79.54 15.91 123.66 8.72 160.11-18.27 36.44-26.99 65.19-73.79 69.44-127.07 2.09-26.23-1.75-54.02-4.79-74.11 2.43 7.16 4.9 14.3 7.4 21.42 13.92 39.65 29.06 78.89 46.05 117.44l9.89 23.04 7.98 19.33-.98 1.08c-18.91 20.87-38.14 42.7-57.37 64.52-26.1 29.64-52.2 59.27-79.22 88.34l-2.16 2.35c-20 21.73-40.13 43.6-55.96 68.55-6.07 9.66-12.12 19.45-17.56 29.55-5.4 10.03-10.19 20.35-13.79 31.11-7.45 23.85-7.99 48.02-2.45 70.76 5.66 23.21 17.68 44.96 35.19 63.37l.03.03c2.99 3.24 6.1 6.35 9.31 9.35 3.25 3.04 6.58 5.95 9.95 8.75l3.9 3.25-14.72 2.43c-7.02 1.15-14.06 2.31-21.66 3.64-10.24 1.84-21.89 4.45-32.95 8.46-10.93 3.97-21.27 9.3-29.05 16.62l-2.53 2.37-1.24-3.24c-15.18-39.68-33.55-76.99-54.96-111.49-21.22-34.2-45.45-65.64-72.52-93.91-61.09-63.81-138.26-112.49-223.93-143.29-85.69-30.82-179.9-43.77-275.05-36.13-85.47 6.87-171.15 29.93-253.07 67.37-49.13 22.45-96.91 50.07-142.49 82.48zm2022.28 1384.66c-38.16-43.01-88.85-102.75-157.32-137.47-115.05-58.34-280.28-46.03-374.18 52.49-93.9 98.52-116.48 283.25-124.18 413.58-7.7 130.33-.51 206.28 48.75 259.43 49.26 53.15 140.61 83.51 235.02 86.08 32.14.88 64.64-1.47 95.83-6.07-5.25 2.65-10.56 5.18-15.94 7.6-53.76 24.15-112.39 35.14-169.7 33.18-57.35-1.96-113.38-16.88-161.89-44.55-20.29-11.58-39.46-25.66-56.99-41.79-17.52-16.11-33.43-34.3-47.25-54.11-22.52-32.28-38.2-68.33-46.63-106.32-8.42-37.98-9.61-77.91-3.14-117.94 25.91-160.29 40.73-320.2 44.46-478.85 3.73-158.73-3.64-316.23-22.11-471.61l-.78-6.58 4.72 4.66c20.73 20.45 42.3 40.12 64.59 58.96a1186.62 1186.62 0 0069.79 54.61c28.73 20.68 58.95 39.11 89.99 56.14 31.06 17.05 62.94 32.69 94.95 47.79 28.95 13.62 58.15 27.05 87.87 39.82 29.56 12.7 59.38 24.64 89.59 35.27 24.82 7.82 49.92 14.55 75.15 20.64 25.22 6.08 50.69 11.56 76.18 16.86 14.72 3.13 29.43 6.14 44.12 9.04 14.95 2.96 29.7 5.77 44.22 8.44l1.66.3.22 1.68c11.39 85.68 15.69 172.33 13 258.75zm-2287.13-466.95c6.53 1.42 14.22 3.5 22.83 5.88 44.64 12.31 114.16 32.57 164.31 15.5 50.15-17.07 80.94-71.46 100.44-148.42 19.5-76.97 27.71-176.52 56.44-246.82 28.74-70.3 78-111.35 122.13-110.32 44.13 1.03 83.12 44.13 96.98 117.51 13.85 73.38 2.57 177.03 17.45 269.39 14.88 92.36 55.93 173.43 133.41 197.55 77.49 24.12 191.4-8.72 267.85-63.11 76.46-54.39 115.45-130.33 134.44-217.05 18.99-86.72 17.96-184.21-1.54-287.35-19.5-103.14-57.47-211.92-119.56-289.4-62.09-77.48-148.29-123.66-230.39-147.78-82.1-24.11-160.1-26.17-234.09-19.23-73.99 6.93-143.97 22.85-197.26 32.29-3.18.56-6.3 1.1-9.35 1.61 34.22-22.43 69.59-42.03 105.7-58.59 76.27-34.99 155.88-56.52 235.14-62.88 86.72-6.97 172.47 4.7 250.35 32.53 77.91 27.84 147.97 71.88 203.27 129.64 54.09 56.5 95.71 127.22 123.5 208.25 27.76 80.96 41.74 172.24 40.58 269.94-1.5 126.13-26.51 251.8-52.98 384.85l-.02.08c-5.36 26.96-10.82 54.39-16.12 81.97-5.33 27.75-10.56 55.98-15.5 84.72-1.13 6.52.09 13.01 3.12 18.48 3.02 5.46 7.86 9.94 13.98 12.45 11.28 4.64 22.2 10.17 32.65 16.47 10.67 6.43 20.9 13.69 30.6 21.66l.33.27.21.36c1.55 2.67 3.52 5.08 5.83 7.11 2.27 2.01 4.88 3.66 7.74 4.86l.4.16.31.3c21.91 20.87 40.44 45.49 54.38 72.3 13.63 26.23 22.9 54.59 26.68 83.64l.66 5.6c3.45 32.5-.26 65.01-10.43 95.44-10.17 30.42-26.82 58.76-49.23 82.96-22.83 24.64-50.38 43.74-80.59 56.41a231.655 231.655 0 01-96.58 17.95c-105.43-3.12-212.15-10.69-319.39-22.63-107.28-11.95-215.13-28.26-322.81-48.87l-.36-.07-.33-.18c-28.95-16.13-55.07-37.59-76.92-62.74-21.82-25.12-39.4-53.95-51.29-84.84-11.56-30.05-17.99-63.16-19.08-93.69-1.09-30.66 3.2-58.79 13.07-78.73.48-.98.91-1.97 1.26-2.95.35-.97.66-2.01.91-3.08 22.36-94.65 37.17-190.54 44.35-286.98 7.18-96.45 6.75-193.49-1.35-290.42-.65-7.79-4.4-14.56-9.92-19.22-5.52-4.67-12.81-7.23-20.57-6.58l-.12.01c-7.74.67-14.47 4.41-19.12 9.9a28.131 28.131 0 00-6.58 20.59c7.19 86.15 8.14 172.39 2.87 258.22a1784.18 1784.18 0 01-34.43 255.87l-.59 2.8-2.61-1.15a28.155 28.155 0 00-8.04-2.18c-2.72-.32-5.52-.25-8.33.26l-4.15.75-.71-.39c-109.97-60.34-209.22-135.28-293.84-220.86z"/><path class="fil1" d="M2664.42 153.07c18.63.45 39.44 2.22 59.94 5.59 47.59 7.83 93.52 24.25 134.82 42.46 41.31 18.22 78 38.23 98.39 49.26 20.4 11.03 24.5 13.08 21.93 8.21-2.56-4.88-11.8-16.68-7.31-18.6 4.49-1.93 22.71 6.03 39.26 18.6 16.55 12.57 31.43 29.76 45.28 46.95 13.85 17.19 26.68 34.38 33.74 38.74 7.06 4.36 8.34-4.1 16.03-2.56 7.69 1.54 21.81 13.09 35.15 27.97 13.34 14.88 25.92 33.1 38.87 50.03 12.96 16.93 26.3 32.58 36.56 46.43 5.63 7.6 10.33 14.65 12.68 21.32-13.04 9.23-25.88 18.69-38.53 28.36l-1.67 1.28-1.44-1.54c-39.92-42.79-80.82-85.61-124.05-126.27-43.2-40.63-88.72-79.08-137.92-113.16-36.5-25.29-81.5-52.29-132.87-74.88-40.99-18.02-86.04-33.22-134.05-42.48l-10.84-2.09 10.77-2.46 5.25-1.18zm2156.17 326.17c13.09-30.79 61.84-68.76 92.36-88 30.53-19.24 42.84-19.76 45.15-15.13 2.31 4.62-5.39 14.37 4.62 10.77 10.01-3.59 37.72-20.53 69.79-36.43 32.07-15.91 68.5-30.79 83.64-34.63 15.14-3.85 8.98 3.33 17.7 3.59 8.72.26 32.33-6.42 59.01-15.4 26.69-8.98 56.45-20.27 104.17-28.22 23.76-3.96 51.98-7.1 77.52-9.02 8.17 3.14 16.31 6.37 24.4 9.69l7.22 2.97-7.68 1.46c-94.01 17.92-185.72 48.22-272.16 89.52-86.38 41.27-167.53 93.54-240.47 155.4l-1.34 1.14-1.46-.99c-20.98-14.23-42.71-27.29-64.94-39.5.61-2.35 1.42-4.76 2.46-7.21z"/><path d="M5114.91 756.46c-18.17-24.25-36.99-48.04-56.72-71.15-4.81-5.6-9.61-11.08-14.39-16.42-4.73-5.29-9.63-10.63-14.67-16.03l-1.74-1.86 2.02-1.56c12.78-9.87 24.85-18.86 35.43-26 10.71-7.23 20.03-12.67 27.2-15.34 4.15-1.55 7.38-1.32 10.15-.18 2.65 1.08 4.65 2.91 6.66 4.73l.04.04c2.58 2.34 5.18 4.7 8.63 7.16 4.09 2.91 8.54 5.27 13.44 7.07 4.92 1.81 10.3 3.05 16.19 3.72 5.17.59 10.75.73 16.81.42 6.09-.31 12.7-1.08 19.88-2.31 5.96-1.02 12.47-2.41 19.12-3.82l.51-.11c9.28-1.98 18.92-4.03 27.24-5.2 8.59-1.2 15.79-1.43 19.81.4 1.12.52 1.81 1.83 2.07 3.95.16 1.33.23 3.25.22 5.76-.04 5.67-1.06 12.57-3.04 20.72-1.95 8.06-4.86 17.38-8.68 27.97-7.1 19.67-17.34 43.32-29.35 69.21-11.99 25.87-25.76 54.01-39.93 82.64l-1.76 3.55-2.24-3.27c-17.2-25.08-34.76-49.85-52.91-74.07zm-2177.19 1.78c-16.6 19.07-32.93 38.31-49.08 57.63-3.03 3.66-10.09 9.56-13.88 13.12-19.4 18.62-38.64 36.79-57.87 54.95l-23.91 22.6-1.39-2.81c-7.23-14.55-14.05-28.81-19.97-42.4-5.92-13.62-10.93-26.54-14.49-38.36-2.17-7.2-3.81-13.99-4.98-20.36-1.24-6.75-1.94-13-2.18-18.72-.24-5.75-.03-10.96.53-15.61.62-5.05 1.67-9.49 3.02-13.29 2.29-6.41 5.82-11.51 9.02-16.15 2.59-3.74 5.04-7.29 7.09-11.13 2.01-3.78 3.68-7.92 4.76-12.93.98-4.57 1.28-9.42 1.01-14.54-.28-5.18-1.14-10.68-2.46-16.5-1.13-5-2.6-10.27-4.33-15.8-1.76-5.66-3.74-11.51-5.87-17.62l-2.06-5.9c-3.71-10.61-7.74-22.09-10.9-33.31-3.19-11.36-5.53-22.56-5.84-32.52l-.03-1.05c-.07-4.36.22-8.43.96-11.97.72-3.46 1.86-6.47 3.48-8.86 1.27-1.87 3.06-3.39 5.46-4.43 2.11-.92 4.7-1.47 7.81-1.57l.59-.01c5.39-.08 11.84.92 19.12 2.9 7.31 1.99 15.55 5 24.5 8.91 9.58 4.2 19.85 9.44 30.56 15.61 10.61 6.11 21.59 13.1 32.71 20.84 11.22 7.81 22.71 16.5 34.4 25.86 11.76 9.41 23.49 19.3 35.21 29.5 8.62 7.5 17.02 14.96 25.27 22.4 8.12 7.31 16.13 14.62 24.06 21.92l1.71 1.57-1.58 1.71c-16.96 18.32-33.79 37.16-50.48 56.34z" fill="#903b1f"/><path class="fil1" d="M3024.7 429.87c41.22 38.72 80.51 79.73 118.91 120.83l1.67 1.79-1.89 1.58a1618.85 1618.85 0 00-28.94 24.72c-9.62 8.41-19.07 16.87-28.36 25.37a1476.046 1476.046 0 00-36.05 34.08 1631.082 1631.082 0 00-34.91 35.18l-1.58 1.64-1.67-1.54c-9.07-8.37-17.85-16.42-25.95-23.74-8.2-7.43-16.35-14.68-24.38-21.67-12.28-10.7-24.48-20.98-36.54-30.61-12.03-9.62-24.05-18.7-36.05-27.05-11.99-8.35-23.91-15.9-35.48-22.53-11.71-6.72-23.07-12.48-33.78-17.17-11.26-4.93-21.98-8.7-31.89-11.19-9.66-2.43-18.51-3.62-26.28-3.48l-.82.02c-9.3.29-17.21 2.33-23.85 5.77-7.06 3.66-12.72 8.95-17.13 15.44-3.66 5.39-6.28 11.53-7.97 18.16-1.83 7.15-2.59 14.84-2.44 22.76l.03 1.31c.79 25.35 10.39 52.75 18.63 76.26l2.07 5.94c1.98 5.68 3.79 11.01 5.3 15.85 1.55 4.95 2.85 9.55 3.81 13.77.76 3.33 1.29 6.36 1.54 9.04.26 2.79.2 5.21-.23 7.2-.36 1.7-1.27 3.58-2.47 5.6-1.11 1.86-2.5 3.87-3.95 5.96l-.01.03c-4.55 6.57-9.51 13.76-13.22 24.14-2.04 5.71-3.62 12.22-4.57 19.48-.89 6.81-1.23 14.31-.88 22.45.3 7.2 1.15 14.93 2.62 23.17 1.38 7.75 3.32 15.91 5.9 24.45 4.33 14.37 10.48 29.95 17.73 46.24 7.22 16.26 15.62 33.39 24.41 50.81l.77 1.54-1.24 1.19c-8.75 8.37-17.38 16.67-25.8 24.84-8.57 8.33-17.1 16.68-25.56 25.08l-2.14 2.13-1.51-2.62c-48.98-84.98-87.34-176.07-114.49-270.4-29.67-103.08-53.86-293.98-46.1-417.99 1.8-28.75 4.64-57.45 8.53-86.01l.27-2.01h2.03c58.77.09 114.61 11.95 165.37 29.77 66.13 23.21 123.65 56.55 167.83 87.15 46.25 32.04 89.48 68.53 130.73 107.28zm2107.42 157.05c-12.08-10.99-24.02-21.77-52.16-11.26-9.46 3.54-20.94 10.12-33.69 18.64-12.84 8.57-26.95 19.1-41.59 30.45l-1.6 1.24-1.44-1.43a941.423 941.423 0 00-33.72-31.76 887.579 887.579 0 00-34.55-29.4l-2.21-1.79 2.2-1.81c75.79-62.53 160.55-114.33 250.7-153.68 89.88-39.25 185.15-66.14 282.26-79 1.5-.27 2.98-.58 4.48-.89l.08 2.77c1.7 58.09-2.06 117.03-11.1 175.48-9.01 58.3-23.3 116.13-42.67 172.14-18.01 52.07-40.43 102.65-66.72 150.81-26.36 48.29-56.63 94.19-90.25 136.74l-1.99 2.52-19.49-29.71c-15.26-23.29-30.53-46.61-45.52-69.03l-.75-1.12.59-1.2c16.14-32.54 32.19-64.96 46.17-94.8 14.05-29.97 26.17-57.63 34.52-80.76 4.51-12.47 7.92-23.74 10.23-33.83 2.29-10.01 3.47-18.8 3.53-26.4.07-10.48-1.77-19.16-5.57-26.07-3.74-6.79-9.43-11.92-17.09-15.4-8.99-4.08-19.95-4.77-31.65-3.8-11.91.99-24.62 3.69-36.85 6.3l-.36.08c-6.2 1.32-12.27 2.61-17.91 3.58-5.51.94-10.48 1.55-14.96 1.82-4.52.28-8.53.21-12.09-.19-2.79-.32-5.27-.85-7.46-1.59-2.24-.76-4.19-1.75-5.89-2.95-1.52-1.08-3.47-2.85-5.39-4.6l-.11-.1z"/><path d="M4311.53 1813.7c20.07-6.88 39.93-17.16 59.22-30.69l1.49-1.05 1.37 1.2c15.62 13.7 34.11 24.07 53.87 30.5 19.6 6.37 40.46 8.85 61.02 6.85l5.6-.74.55 1.94c7.57 26.87 6.64 49.65 1.46 68.46-7.43 27.03-23.63 45.83-35.99 56.87-12.64 11.29-27.35 20.1-43.07 26.26-16.13 6.32-33.36 9.85-50.53 10.4l-3.39.11 1.12-3.19a54.81 54.81 0 001.93-6.84c.47-2.23.81-4.5.98-6.79.86-11.25-1.99-22.47-7.62-32.06-5.62-9.59-14.03-17.55-24.26-22.28-2.71-1.25-5.48-2.27-8.18-3.14-2.77-.89-5.45-1.62-7.97-2.31l-.08-.01c-7.3-2-13.59-3.73-17.29-7.47-2.44-2.46-4.22-6.26-6.29-10.66l-.04-.08c-.82-1.75-1.7-3.63-2.76-5.67-.99-1.91-2.1-3.87-3.38-5.79-5.13-7.72-12.53-13.77-20.93-17.55-8.41-3.79-17.84-5.33-27.03-4.06-2.2.3-4.37.77-6.5 1.37-2.24.63-4.43 1.42-6.54 2.32l-2.6 1.12-.58-2.78c-1.13-5.38-2.11-10.91-2.94-16.57-.82-5.62-1.49-11.35-1.99-17.17l-.26-2.98 2.95.49c1.84.3 3.68.59 5.51.84 1.84.25 3.68.48 5.52.66 2.84.28 5.71.5 8.57.64 2.78.14 5.66.2 8.62.2 20.12 0 40.37-3.49 60.4-10.36z" fill="#fa8eb1"/><path d="M4499.11 1875.47c-.7 5.15-1.71 10.05-3 14.71-7.43 27.03-23.63 45.83-35.99 56.87-12.64 11.29-27.35 20.1-43.07 26.26-16.13 6.32-33.36 9.85-50.53 10.4l-3.39.11 1.12-3.19a54.81 54.81 0 001.93-6.84c.47-2.23.81-4.5.98-6.79.86-11.25-1.99-22.47-7.62-32.06-5.62-9.59-14.03-17.55-24.26-22.28-2.71-1.25-5.48-2.27-8.18-3.14-2.77-.89-5.45-1.62-7.97-2.31l-.08-.01c-7.3-2-13.59-3.73-17.29-7.47-2.44-2.46-4.22-6.26-6.29-10.66l-.04-.08c-.82-1.75-1.7-3.63-2.76-5.67-.99-1.91-2.1-3.87-3.38-5.79-5.13-7.72-12.53-13.77-20.93-17.55-8.41-3.79-17.84-5.33-27.03-4.06-2.2.3-4.37.77-6.5 1.37-2.24.63-4.43 1.42-6.54 2.32l-2.6 1.12-.58-2.78c-1.13-5.38-2.11-10.91-2.94-16.57-.82-5.62-1.49-11.35-1.99-17.17l-.26-2.98 2.95.49c1.84.3 3.68.59 5.51.84 1.84.25 3.68.48 5.52.66 2.84.28 5.71.5 8.57.64 2.78.14 5.66.2 8.62.2 17.68 0 35.46-2.7 53.11-8.01 4.65 17.64 14.83 48.63 30.35 69.4 16.68 22.32 39.51 32.84 63.75 34.25 24.25 1.42 49.9-6.29 70.42-19.75 12.27-8.05 22.7-18.16 30.35-24.48z" fill="#fb809f"/><path class="fil5" d="M4359.39 1761.62c.1-8.67 7.22-15.62 15.89-15.52 8.67.1 15.62 7.21 15.52 15.88l-1.54 99.29c-.1 8.67-7.21 15.62-15.88 15.52-8.67-.1-15.62-7.22-15.52-15.89l1.54-99.29z"/><path d="M4297.94 1926.15c4.88 2.12 9.95 3.5 14.69 4.8 2.29.63 4.52 1.24 6.45 1.84 2.1.66 4.08 1.37 5.87 2.2 5.52 2.56 10.18 7.06 13.33 12.43 3.15 5.37 4.82 11.65 4.36 17.7-.46 6.06-3.06 12.01-6.99 16.85-3.92 4.83-9.21 8.58-15.05 10.27-.52.19-1.22.34-1.78.5-2.37.63-5.36 1.43-8.28 2.85-2.86 1.38-5.78 3.39-8.2 6.48-2.28 2.91-3.52 6.03-4.23 8.91-.72 2.95-.89 5.75-1.01 7.82l-5.95 98.51c-.21 3.6-1.03 8.57-2.62 13.89-1.26 4.24-3.04 8.75-5.41 13.04-1.7 3.09-4.37 5.71-7.15 7.37-3.03 1.81-6.31 2.51-8.89 1.56-3.34-1.25-5.8-4.96-7.24-10.62-1.3-5.09-1.85-11.98-1.54-20.19l2.87-75.65c.96-25.47 2.16-57.17-12.22-84.16-4.08-7.68-9.11-14.38-13.97-20.86l-.07-.09c-2.09-2.78-4.12-5.48-5.95-8.07-1.89-2.69-3.66-5.38-5.22-8.13-2.58-4.55-4.86-10.36-5.55-15.96-.58-4.73-.04-9.36 2.33-13.13l.11-.16c2.76-3.68 6.81-7.64 11.39-10.68 3.94-2.62 8.32-4.59 12.69-5.19 4.58-.62 9.35.18 13.58 2.09s7.98 4.94 10.53 8.78c.78 1.17 1.52 2.5 2.25 3.93.59 1.15 1.33 2.71 2.08 4.33l.03.05c2.67 5.67 5.69 12.11 11.12 17.59 4.16 4.2 8.85 7.02 13.64 9.1z" fill="#04d3fd"/><path d="M4290.07 2125.1a73.9 73.9 0 01-1.54 6.11c-1.26 4.24-3.04 8.75-5.41 13.04-1.7 3.09-4.37 5.71-7.15 7.37-3.03 1.81-6.31 2.51-8.89 1.56-3.34-1.25-5.8-4.96-7.24-10.62-1.3-5.09-1.85-11.98-1.54-20.19l2.87-75.65c.96-25.47 2.16-57.17-12.22-84.16-4.08-7.68-9.11-14.38-13.97-20.86l-.07-.09c-2.09-2.78-4.12-5.48-5.95-8.07-1.89-2.69-3.66-5.38-5.22-8.13-2.58-4.55-4.86-10.36-5.55-15.96-.58-4.73-.04-9.36 2.33-13.13l.11-.16c2.76-3.68 6.81-7.64 11.39-10.68 3.94-2.62 8.32-4.59 12.69-5.19.34-.05.68-.08 1.02-.11-3.61 3.47-6.65 7.81-7.46 13.85-1.61 12 5.59 30.7 12.91 44.1 7.32 13.4 14.76 21.48 18.8 32.32 4.04 10.84 4.68 24.44 4.17 51.76-.51 27.32-2.18 68.37-.14 89.32 2.05 20.95 7.8 21.8 11.91 18.59 1.65-1.3 3.04-3.24 4.14-5.02z" fill="#02bafa"/></g></g></svg>