<svg width="215" height="255" fill="none" xmlns="http://www.w3.org/2000/svg"><path fill-rule="evenodd" clip-rule="evenodd" d="M72.189 230.546a145 145 0 0015.847 3.624 131.283 131.283 0 0018.839 1.832c6.892.164 13.559-.258 19.956-1.26a96.399 96.399 0 0014.27-3.339l.065-.02.064-.021.065-.02.022-.007.042-.014.064-.021.065-.02.064-.021.043-.014.021-.007.065-.021.064-.021.064-.02.064-.021h.001l.063-.021.065-.021.064-.022.064-.021.064-.021.064-.021.064-.021.064-.022.043-.014.021-.007.064-.022.064-.021.064-.021.064-.022.064-.021.063-.022.064-.022.064-.022.022-.007.042-.014.064-.022.063-.022.064-.022.043-.015.021-.007.063-.022.064-.022.063-.022.064-.022.064-.022.063-.022.064-.023.063-.022.022-.007.042-.015.063-.023.063-.022.064-.023.042-.015.021-.007.064-.023.063-.022.063-.023.063-.023h.001l.063-.022.063-.023.063-.023.063-.023.021-.008.042-.015.063-.023.127-.046.042-.015.021-.008.126-.046.063-.024.062-.023a1.69 1.69 0 011.299.05 1.694 1.694 0 01.833 2.251 1.69 1.69 0 01-.952.882l-.518.189.098.048c.547.273 1.083.565 1.609.874a32.08 32.08 0 011.558.974l.002.001a28.242 28.242 0 015.318 4.109l.002.002a91 91 0 01.491.423l.587.509-.023-.13c-.255-1.452-.345-3.014-.265-4.671.079-1.645.324-3.384.738-5.202.849-3.722 2.364-7.581 4.445-11.393 2.081-3.812 4.729-7.577 7.842-11.112 3.113-3.534 6.514-6.635 10.033-9.181 3.519-2.545 7.156-4.535 10.74-5.846a32.462 32.462 0 013.378-1.033l.179-.044-.178-.047c-.185-.05-.37-.1-.555-.152-.184-.051-.366-.104-.549-.157l-.006-.002h-.007a20.366 20.366 0 00-6.769 1.115 20.171 20.171 0 00-5.997 3.278 1.698 1.698 0 11-2.117-2.654 23.236 23.236 0 013.933-2.526 24.175 24.175 0 014.41-1.721l.114-.032-.105-.054c-1.53-.801-2.901-1.69-4.094-2.655-1.189-.96-2.201-1.996-3.021-3.095l-.064-.086-.02.105c-.142.746-.291 1.498-.446 2.258-.154.756-.316 1.528-.485 2.315a1.689 1.689 0 01-.59.964 1.705 1.705 0 01-1.425.34l-.016-.003-.005-.001-.01-.003-.011-.002-.005-.002-.016-.003-.001-.001-.015-.003-.006-.002-.009-.003-.012-.003-.004-.001-.015-.005h-.001l-.014-.004-.007-.002-.009-.003-.012-.004-.003-.001-.015-.005h-.002l-.013-.005-.007-.002-.008-.003-.012-.005-.003-.001-.015-.005-.002-.001-.013-.005-.007-.003-.007-.002-.013-.006h-.002l-.014-.006-.004-.002-.011-.005-.014-.006-.013-.006h-.001l-.015-.007-.004-.002-.01-.004-.009-.005-.005-.002-.013-.007h-.001l-.014-.007-.004-.002-.01-.005-.009-.005-.004-.003-.014-.007-.014-.007-.004-.003-.009-.005-.01-.005-.003-.003-.014-.008h-.001l-.012-.008-.005-.003-.008-.004-.01-.007-.003-.002-.013-.008-.001-.001-.012-.007-.006-.004-.007-.005-.01-.007-.002-.002-.013-.008-.002-.002-.011-.007-.006-.005-.006-.004-.01-.008-.002-.001-.013-.009-.002-.002-.01-.008-.012-.009-.011-.008-.001-.001-.012-.01-.003-.002-.009-.008-.006-.005-.005-.004-.011-.01h-.001l-.011-.01-.012-.01-.007-.007-.004-.004-.011-.009v-.001l-.011-.01-.004-.003-.007-.008-.008-.007-.003-.003-.011-.011-.011-.01-.004-.004-.006-.007a1.693 1.693 0 01-.445-1.541c.388-1.81.743-3.554 1.061-5.248.317-1.692.597-3.331.835-4.927l.001-.005v-.005a1.696 1.696 0 01.1-.69l.002-.005.001-.005c.146-1.029.275-2.043.384-3.045.11-1.002.2-1.99.269-2.969l.029-.404-.12.387a50.326 50.326 0 01-1.369 3.826c-2.637 6.524-6.896 12.334-12.204 16.932-5.309 4.599-11.667 7.987-18.5 9.667h-.002c-.743.206-1.5.359-2.265.461-.778.104-1.565.155-2.355.155-2.827 0-5.673-.653-8.227-1.858-2.499-1.18-4.719-2.888-6.37-5.03a15.371 15.371 0 01-1.027-1.504c-2.17-3.603-2.734-7.78-1.88-11.672a16.481 16.481 0 016.627-9.96 42.166 42.166 0 007.829-7.124 40.69 40.69 0 005.716-8.758c.203-.423.558-.723.968-.866a1.694 1.694 0 012.164 1.04c.143.41.131.875-.072 1.297a44.112 44.112 0 01-6.187 9.482 45.54 45.54 0 01-8.465 7.705 13.094 13.094 0 00-5.262 7.883c-.683 3.078-.243 6.378 1.47 9.222a12.91 12.91 0 00.808 1.183c1.322 1.715 3.14 3.092 5.192 4.047a16.177 16.177 0 006.754 1.512c.635 0 1.267-.041 1.892-.124a13.019 13.019 0 001.804-.368l.053-.013c6.319-1.55 12.198-4.679 17.106-8.929 4.909-4.249 8.848-9.62 11.286-15.652 2.256-5.582 3.301-11.229 3.151-16.727a37.093 37.093 0 00-4.043-15.876l-.023-.045-.043.025a114.24 114.24 0 01-14.228 7.159 117.866 117.866 0 01-15.239 5.183 118.098 118.098 0 01-14.895 2.96 114.324 114.324 0 01-20.681.848 113.546 113.546 0 01-25.96-4.36 117.214 117.214 0 01-19.457-7.597 119.44 119.44 0 01-6.146-3.276 117.52 117.52 0 01-5.905-3.607l-.043-.028-.024.044a40.128 40.128 0 00-2.815 6.442v.001a88.493 88.493 0 00-1.25 4.533v.001a42.604 42.604 0 00-.83 12.415c.33 4.077 1.254 8.104 2.79 11.905 2.439 6.032 6.378 11.403 11.287 15.652 4.908 4.25 10.788 7.379 17.106 8.928l.053.014c2.753.77 5.81.61 8.605-.296 2.796-.906 5.33-2.557 7.037-4.771a13.212 13.212 0 00.808-1.183c1.713-2.844 2.153-6.145 1.47-9.222a13.097 13.097 0 00-5.262-7.883 45.554 45.554 0 01-8.465-7.706 44.073 44.073 0 01-6.186-9.481 1.692 1.692 0 01-.072-1.297c.143-.41.443-.766.866-.968a1.692 1.692 0 011.297-.072c.41.143.765.443.968.865a40.679 40.679 0 005.716 8.759 42.174 42.174 0 007.829 7.124 16.477 16.477 0 016.627 9.96c.854 3.892.29 8.069-1.88 11.672a16.596 16.596 0 01-1.027 1.504c-1.65 2.142-3.87 3.85-6.37 5.029a19.411 19.411 0 01-8.227 1.859c-.79 0-1.578-.051-2.356-.155a16.778 16.778 0 01-2.264-.461h-.001c-6.834-1.68-13.192-5.068-18.5-9.667-5.309-4.598-9.568-10.408-12.205-16.932a41.291 41.291 0 01-1.06-2.934l-.105-.323.013.339a85.206 85.206 0 00.376 5.509l.001.008.004.008a1.719 1.719 0 01.183.894 9.633 9.633 0 01-.029.315l-.013.131v.004a93.48 93.48 0 00.637 4.544c.234 1.416.501 2.838.802 4.267l.001.005.001.005.001.005.001.005.002.005v.005l.002.005v.006l.002.005v.005l.002.005.001.005.001.005.001.005.001.005.002.006v.005l.002.005v.005l.002.005v.005l.002.004v.001l.001.006.001.005.001.005.001.005.001.005.002.005v.005l.002.005v.005l.002.006v.005l.002.005.001.005.001.005.001.005.001.006.002.005v.005l.002.005v.005l.002.005v.005l.002.005.001.006.001.005.001.005.002.005v.005l.002.005v.005l.002.005v.006l.002.005.001.005.001.005.001.005.001.005.001.005.002.005v.006l.002.005v.005h.001a1.693 1.693 0 01-1.303 2.015 1.617 1.617 0 01-.358.038 1.694 1.694 0 01-1.658-1.342 104.555 104.555 0 01-.601-3.023l-.02-.108-.065.089a14.48 14.48 0 01-2.9 2.965c-1.145.887-2.47 1.673-3.974 2.357l-.114.052.12.036a24.003 24.003 0 014.178 1.697 23.124 23.124 0 013.732 2.423c.367.292.58.705.629 1.137a1.69 1.69 0 01-.36 1.248 1.692 1.692 0 01-2.385.269 20.177 20.177 0 00-6.336-3.392 20.279 20.279 0 00-7.13-.984l-.324.014.314.079a30.972 30.972 0 013.219.992c3.584 1.311 7.221 3.301 10.74 5.847 3.52 2.545 6.92 5.647 10.034 9.181 3.113 3.534 5.76 7.3 7.842 11.112 2.08 3.812 3.596 7.67 4.444 11.392.446 1.956.696 3.821.754 5.574.058 1.768-.08 3.424-.407 4.95l-.031.143.108-.098c1.5-1.364 3.067-2.776 4.747-4.081 1.679-1.304 3.47-2.499 5.415-3.43l.112-.054-.12-.034a157.261 157.261 0 01-3.782-1.126 1.694 1.694 0 01-1.115-2.126 1.696 1.696 0 012.125-1.115l.05.016.05.015.051.016.05.016.051.015.046.015.004.001.05.016.102.031.05.015.05.016.043.013.008.002.05.016.101.031.05.015.051.015.039.012.011.004.05.015.051.015.05.016.05.015.052.016.034.01.016.005.05.015.05.015.051.015.05.016.051.015.03.009.02.006.05.015.051.015.05.015.101.03.027.008.024.008.05.015.05.015.051.014.05.015.05.015.024.007.027.008.05.015.051.015.05.015.05.015.051.015.02.005.03.009.051.015.05.015.051.015.05.014.05.015.016.005.035.01.05.015.051.014.05.015.05.015.051.014.011.003.04.012.05.014.05.015.05.014.051.015h-.002zm86.656 9.179c-.458-2.466-.326-5.392.419-8.658.786-3.451 2.203-7.043 4.156-10.603 1.952-3.56 4.439-7.088 7.368-10.412 2.928-3.325 6.114-6.238 9.399-8.624 3.285-2.385 6.669-4.244 9.994-5.46a27.232 27.232 0 014.012-1.146 18.86 18.86 0 013.672-.386c1.265 0 2.443.154 3.518.462a9.395 9.395 0 012.893 1.372l.003.003a18.81 18.81 0 011.265 1.19 1.758 1.758 0 00.29.239l.006.003.004.006c1.269 1.491 2.067 3.438 2.378 5.754.31 2.305.137 4.976-.535 7.924-.787 3.451-2.203 7.043-4.156 10.603-1.952 3.559-4.439 7.087-7.368 10.412-2.928 3.325-6.114 6.238-9.399 8.623-3.285 2.386-6.669 4.245-9.994 5.461-2.524.923-4.881 1.427-7.007 1.516-2.14.09-4.047-.242-5.658-.99l-.001-.001a13.626 13.626 0 01-.745-.409 18.963 18.963 0 01-.755-.47l-.002-.001a7.828 7.828 0 01-.624-.5c-1.622-1.428-2.673-3.437-3.133-5.908zm-100.579.665c-.46 2.47-1.51 4.479-3.132 5.907-1.622 1.429-3.748 2.219-6.256 2.362-2.504.144-5.39-.356-8.537-1.507-2.12-.776-4.264-1.813-6.392-3.081a50.223 50.223 0 01-6.336-4.507 60.035 60.035 0 01-8.1-8.417c-2.427-3.064-4.562-6.358-6.29-9.748a47.232 47.232 0 01-2.964-7.161c-.75-2.369-1.252-4.689-1.5-6.929v-.003c-.074-1.768.078-3.385.45-4.824.372-1.437.964-2.696 1.771-3.75l.005-.007.008-.005a1.792 1.792 0 00.327-.261 19.61 19.61 0 012.295-2.02l.005-.003a9.865 9.865 0 012.591-1 13.161 13.161 0 013.035-.336c1.154 0 2.382.129 3.672.386 1.28.255 2.62.637 4.013 1.146 3.324 1.216 6.708 3.075 9.993 5.461 3.285 2.385 6.47 5.298 9.4 8.623 2.928 3.325 5.416 6.853 7.368 10.412 1.952 3.56 3.369 7.152 4.155 10.603.745 3.267.877 6.192.419 8.658v.001z" fill="#903B1F"/><path fill-rule="evenodd" clip-rule="evenodd" d="M8.814 207.772c.433-1.78 1.32-3.843 3.042-4.895 2.63-1.605 7.21-.851 12.296 2.405 5.086 3.256 10.679 9.015 14.776 14.054 4.098 5.039 6.7 9.358 9.454 10.766 2.753 1.408 5.657-.096 6.468-3.296.227-.894.29-1.921.185-3.045 1.269 2.687 2.22 5.369 2.813 7.971.745 3.266.877 6.192.418 8.658-.46 2.47-1.51 4.479-3.133 5.908-1.621 1.428-3.747 2.218-6.255 2.362-2.504.143-5.39-.357-8.537-1.508-2.12-.776-4.264-1.812-6.392-3.081a50.121 50.121 0 01-6.336-4.507 60.035 60.035 0 01-8.1-8.417c-2.427-3.064-4.562-6.358-6.29-9.747a47.316 47.316 0 01-2.964-7.161c-.7-2.207-1.182-4.371-1.445-6.467zm167.131-37.727c-.055.054-.11.111-.166.17a49.792 49.792 0 01-1.29 3.578c-2.637 6.524-6.896 12.333-12.205 16.932-5.309 4.598-11.666 7.986-18.5 9.667h-.001c-.743.206-1.5.359-2.265.461-.778.104-1.565.155-2.355.155a19.41 19.41 0 01-8.227-1.859c-2.499-1.179-4.719-2.887-6.37-5.029a15.64 15.64 0 01-1.027-1.505 15.699 15.699 0 01-1.47-3.206 12.01 12.01 0 002.089 4.248c4.14 5.298 9.273 7.539 14.604 11.153 5.669 3.964 5.544 7.948 4.174 14.251-1.629 7.214-4.552 10.726-9.843 14.496a92.84 92.84 0 0012.084-3.554 1.697 1.697 0 012.132 2.301c-.181.394-.513.72-.953.883l-.517.188.098.049a27.4 27.4 0 011.609.873c.527.308 1.046.635 1.557.974l.002.001a28.138 28.138 0 015.319 4.109l.002.003c.167.142.33.283.491.422l.586.51-.023-.131c-.255-1.452-.344-3.014-.265-4.671.079-1.645.325-3.384.739-5.202.849-3.722 2.363-7.581 4.444-11.392 2.082-3.812 4.729-7.578 7.842-11.112 3.113-3.534 6.515-6.636 10.034-9.182a54.566 54.566 0 011.662-1.155c-.874-.362-1.563-.837-2.108-1.404a1.692 1.692 0 01-2.063-1.845c.043-.381.214-.748.505-1.029-.26-.919-.403-1.925-.494-2.986a32.6 32.6 0 01-.036-1.326l.004-.14a1.68 1.68 0 01-1.144.157 1.694 1.694 0 01-1.069-.738 1.692 1.692 0 01-.235-1.278c.388-1.809.743-3.554 1.06-5.247.318-1.693.598-3.331.836-4.928l.001-.005v-.005a1.704 1.704 0 01.1-.69l.002-.004.001-.005c.146-1.03.275-2.044.384-3.045.107-.981.196-1.95.265-2.908zm-35.812 27.532a55.917 55.917 0 01-4.76-.496c-.15-.022-.299-.046-.446-.071 1.394.39 2.841.596 4.274.597.311 0 .622-.01.932-.03zm1.562-42.196l-.028-.021c-1.622-1.176-6.079-.563-6.665 1.999-.559 2.437.642 3.764-.942 7.006-.839 1.716-2.59 3.649-4.364 5.582a42.036 42.036 0 006.418-6.087 40.684 40.684 0 005.58-8.479h.001zm60.74 68.513c-6.354 4.539-14.612 6.539-22.24 4.379-9.373-3.563-10.791-10.568-6.516-19.101 2.883-5.754 6.002-5.256 9.191-9.332.114-.146.205-.278.274-.4a48.39 48.39 0 00-2.957 1.988c-3.285 2.386-6.471 5.299-9.4 8.624-2.928 3.324-5.416 6.852-7.367 10.412-1.953 3.56-3.37 7.152-4.156 10.603-.745 3.266-.877 6.192-.419 8.658.459 2.47 1.511 4.479 3.133 5.908a9.005 9.005 0 00.624.499l.002.002c.252.165.504.322.755.47.252.148.5.285.744.409l.002.001c1.611.748 3.518 1.079 5.658.99 2.126-.089 4.482-.593 7.007-1.517 3.325-1.216 6.709-3.074 9.994-5.46s6.47-5.298 9.399-8.623c2.406-2.732 4.514-5.6 6.272-8.511v.001zM35.472 197.049c-.405-.88-.401-1.586-.095-2.273a19.752 19.752 0 012.977 1.96c.367.292.817.408 1.249.359a1.693 1.693 0 00.868-3.013 23.028 23.028 0 00-2.851-1.94c1.145-1.066 2.442-2.201 3.281-3.417l.015-.022a1.687 1.687 0 001.213.195 1.694 1.694 0 001.07-.738 1.69 1.69 0 00.234-1.277c-.33-1.54-.62-3.071-.871-4.595a93.477 93.477 0 01-.628-4.466l-.008-.099.011-.115a9.57 9.57 0 00.03-.314 1.678 1.678 0 00-.133-.786c-.134-1.935-.172-3.606.153-4.201l.013.037c.176.486.36.969.554 1.449 2.637 6.523 6.896 12.333 12.205 16.932 3.87 3.351 8.296 6.06 13.058 7.933-1.695.252-3.542.832-4.525 2.239-2.048 2.935-.332 9.469 2.519 15.203 2.85 5.734 6.834 10.668 12.814 14.212 2.322 1.375 4.945 2.541 7.639 3.546-.541-.099-1.083-.201-1.624-.307l-.196-.038-.068-.014-.128-.025-.142-.028-.054-.011-.196-.039-.02-.004-.176-.036-.093-.018-.103-.021-.167-.035-.029-.005-.196-.041-.045-.009-.15-.032-.12-.024-.077-.016-.193-.041-.003-.001-.196-.041-.071-.015-.125-.027-.145-.031-.051-.011-.196-.043-.023-.005-.173-.037-.097-.021-.1-.022-.17-.038-.026-.006-.196-.043-.049-.011-.147-.033-.123-.027-.073-.017-.197-.044v-.001l-.196-.044-.075-.017-.12-.028-.15-.034-.047-.012-.196-.045-.027-.006-.17-.04-.1-.024-.096-.022-.383-.091-.01-.002-.052-.013-.144-.034-.127-.031-.07-.017-.196-.047-.004-.001-.192-.047-.079-.019-.117-.029-.153-.038-.044-.011-.196-.049-.03-.007-.166-.042-.105-.026-.092-.023-.178-.045-.018-.005-.197-.05-.056-.014-.14-.036-.13-.033-.066-.017-.197-.051-.008-.002-.188-.049-.083-.022-.114-.03-.156-.041-.04-.01-.197-.052-.034-.009-.162-.043-.108-.029-.088-.024-.183-.049-.014-.004-.196-.053-.06-.016-.137-.037-.134-.037-.062-.017-.197-.054-.012-.003-.184-.051-.086-.024-.11-.031-.161-.044-.036-.011-.197-.055-.038-.01-.158-.045-.112-.032-.085-.024-.186-.053-.01-.003-.197-.056-.064-.018-.132-.039a153.933 153.933 0 01-3.115-.934 1.689 1.689 0 00-1.294.117c-.385.202-.692.55-.832.998a1.693 1.693 0 001.116 2.125 143.574 143.574 0 003.782 1.127l.12.033-.113.054c-1.945.931-3.736 2.127-5.414 3.431-1.68 1.304-3.248 2.717-4.747 4.08l-.108.099.03-.143c.328-1.526.465-3.182.407-4.95-.057-1.754-.307-3.618-.753-5.574-.849-3.722-2.363-7.581-4.444-11.393-2.081-3.812-4.73-7.577-7.843-11.112-3.113-3.534-6.514-6.635-10.033-9.181a51.462 51.462 0 00-3.366-2.242v.001z" fill="#68281A"/><path fill-rule="evenodd" clip-rule="evenodd" d="M38.53 35.146a41.661 41.661 0 012.557-8.605l.106-.252.264.066a9.47 9.47 0 014.065 2.171c1.143 1.035 2.058 2.363 2.681 3.932a1.014 1.014 0 00.675.601h.001a1.013 1.013 0 00.887-.178l2.413-1.886.199.214a18.193 18.193 0 012.925 4.235 18.189 18.189 0 011.634 4.88l.029.158-.11.117a64.98 64.98 0 00-7.254 9.281 239.836 239.836 0 01-3.683 5.53 267.74 267.74 0 01-3.773 5.359l-.322.444-.227-.5a41.987 41.987 0 01-2.693-8.005 43.53 43.53 0 01-.374-17.562z" fill="#903B1F"/><path fill-rule="evenodd" clip-rule="evenodd" d="M148.508 93.239c-1.932.49-3.899.733-5.86.67a19.649 19.649 0 01-5.755-1.069 20.321 20.321 0 01-5.257-2.722.461.461 0 00-.602.036.464.464 0 00-.09.597 12.761 12.761 0 004.831 4.663c2.09 1.159 4.484 1.769 6.927 1.854 2.467.086 4.931-.371 7.131-1.376 2.071-.946 3.908-2.377 5.293-4.297a.457.457 0 00-.029-.588.465.465 0 00-.585-.111c-1.931 1.017-3.948 1.82-6.004 2.343zM99.812 104.407c-2.475 1.23-3.967 3.111-3.374 5.635.304 1.296 1.762 2.695 3.635 3.875 2.088 1.315 4.689 2.356 6.788 2.68l.041.007c-.04 1.364-.083 2.728-.125 4.091l-.037.007a7.688 7.688 0 00-4.537 2.638 7.639 7.639 0 00-1.787 4.918c0 2.116.861 4.036 2.251 5.426a7.653 7.653 0 005.426 2.251 7.653 7.653 0 005.426-2.251 7.65 7.65 0 002.252-5.426 7.638 7.638 0 00-1.809-4.943 7.68 7.68 0 00-4.579-2.624l-.04-.007c.043-1.363.084-2.726.125-4.089l.039-.005c2.138-.317 4.762-1.293 6.838-2.75 1.698-1.193 3.028-2.707 3.421-4.444.526-2.326-.838-4.047-3.133-5.166-2.209-1.076-5.277-1.597-8.362-1.566-3.084.031-6.185.613-8.458 1.743zM85.308 90.037a.46.46 0 00-.384.08 20.326 20.326 0 01-5.257 2.723 19.651 19.651 0 01-5.755 1.069c-1.962.063-3.928-.18-5.86-.67-2.056-.522-4.073-1.326-6.004-2.343a.463.463 0 00-.375-.032.496.496 0 00-.323.37.456.456 0 00.084.361c1.385 1.92 3.222 3.351 5.293 4.297 2.2 1.005 4.664 1.462 7.131 1.376 2.443-.085 4.837-.695 6.927-1.854a12.76 12.76 0 004.83-4.663.461.461 0 00.048-.39.497.497 0 00-.355-.324z" fill="#EC7B1D"/><path fill-rule="evenodd" clip-rule="evenodd" d="M60.017 23.934a50.633 50.633 0 00-13.17-12.511 49.826 49.826 0 00-6.98-3.812l-.169-.075.184-.015c5.466-.439 10.84.027 15.861 1.347 4.992 1.312 9.637 3.468 13.68 6.418.38.277.834.373 1.263.306.43-.067.833-.298 1.11-.676.194-.267.36-.521.505-.764a7.73 7.73 0 00.365-.693l.02-.043.042.02c2.344 1.086 4.407 2.524 6.108 4.231 1.698 1.706 3.035 3.681 3.926 5.845l.019.046-.047.017a78.65 78.65 0 00-6.065 2.41c-2.028.908-4 1.922-5.913 3.038a62.637 62.637 0 00-5.577 3.667l-.046.035-.024-.053a48.767 48.767 0 00-5.092-8.738zm77.44-6.24c1.706-1.72 3.779-3.166 6.134-4.258l.043-.02.02.043c.101.22.222.45.365.693.144.243.311.497.506.764.276.378.68.61 1.109.676.429.067.884-.03 1.262-.305 4.005-2.921 8.598-5.064 13.534-6.379 4.967-1.323 10.282-1.81 15.694-1.41l.202.015-.188.076c-5.618 2.248-10.763 5.626-15.101 9.835-4.313 4.186-7.828 9.195-10.214 14.732l-.023.053-.047-.032a56.911 56.911 0 00-2.175-1.402 80.84 80.84 0 00-7.343-3.966 79.723 79.723 0 00-7.677-3.169l-.046-.016.018-.046c.887-2.178 2.224-4.167 3.927-5.884z" fill="#82351C"/><path fill-rule="evenodd" clip-rule="evenodd" d="M58.266 240.39c-.46 2.47-1.51 4.479-3.132 5.907-1.622 1.429-3.748 2.219-6.256 2.362-2.504.144-5.39-.356-8.537-1.507-2.12-.776-4.264-1.813-6.392-3.081a50.223 50.223 0 01-6.336-4.507 60.035 60.035 0 01-8.1-8.417c-2.427-3.064-4.562-6.358-6.29-9.748a47.232 47.232 0 01-2.964-7.161c-.75-2.369-1.252-4.689-1.5-6.929v-.003c-.074-1.768.078-3.385.45-4.824.372-1.437.964-2.696 1.771-3.75l.005-.007.008-.005a1.792 1.792 0 00.327-.261 19.61 19.61 0 012.295-2.02l.005-.003a9.865 9.865 0 012.591-1 13.161 13.161 0 013.035-.336c1.154 0 2.382.129 3.672.386 1.28.255 2.62.637 4.013 1.146 3.324 1.216 6.708 3.075 9.993 5.461 3.285 2.385 6.47 5.298 9.4 8.623 2.928 3.325 5.416 6.853 7.368 10.412 1.952 3.56 3.369 7.152 4.155 10.603.745 3.267.877 6.192.419 8.658v.001zM158.845 239.725c-.458-2.466-.326-5.392.419-8.658.786-3.451 2.203-7.043 4.156-10.603 1.952-3.56 4.439-7.088 7.368-10.412 2.928-3.325 6.114-6.238 9.399-8.624 3.285-2.385 6.669-4.244 9.994-5.46a27.232 27.232 0 014.012-1.146 18.86 18.86 0 013.672-.386c1.265 0 2.443.154 3.518.462a9.395 9.395 0 012.893 1.372l.003.003a18.81 18.81 0 011.265 1.19 1.758 1.758 0 00.29.239l.006.003.004.006c1.269 1.491 2.067 3.438 2.378 5.754.31 2.305.137 4.976-.535 7.924-.787 3.451-2.203 7.043-4.156 10.603-1.952 3.559-4.439 7.087-7.368 10.412-2.928 3.325-6.114 6.238-9.399 8.623-3.285 2.386-6.669 4.245-9.994 5.461-2.524.923-4.881 1.427-7.007 1.516-2.14.09-4.047-.242-5.658-.99l-.001-.001a14.306 14.306 0 01-.745-.408 18.999 18.999 0 01-.755-.471l-.002-.001a7.828 7.828 0 01-.624-.5c-1.622-1.428-2.673-3.437-3.133-5.908z" fill="#68281A"/><path fill-rule="evenodd" clip-rule="evenodd" d="M31.592 143.991c-2.22.003-4.44.247-6.611.73l-.284.063.25-.149a38.035 38.035 0 017.106-3.313 36.363 36.363 0 017.526-1.743l.072-.009-.021.069a94.56 94.56 0 00-1.373 5.031l-.01.045-.045-.01a30.568 30.568 0 00-6.61-.713v-.001zM20.913 163.471c-4.737 1.645-9.188 4.115-13.061 7.313l-.092.076.016-.118a37.338 37.338 0 011.162-5.605 35.43 35.43 0 011.986-5.263l.005-.01.01-.007a30.398 30.398 0 015.982-3.487 32.06 32.06 0 016.727-2.11 32.277 32.277 0 016.43-.614c2.14.013 4.256.244 6.312.69l.042.01-.005.043a94.701 94.701 0 00-.66 6.675l-.003.045-.045-.001c-5.027-.105-10.06.715-14.806 2.363zM27.04 184.336a43.088 43.088 0 00-6.137 2.584l-.006.003-.006.002c-.594.112-1.191.231-1.787.365-.596.133-1.192.28-1.787.447a21.341 21.341 0 00-3.614 1.369 17.195 17.195 0 00-3.051 1.901l-.048.037-.024-.055a36.51 36.51 0 01-1.389-3.732l-.008-.027.02-.021c3.582-3.501 7.736-6.43 12.232-8.68a49.382 49.382 0 0114.345-4.623l.05-.008.004.051a93.497 93.497 0 00.299 3.251c.108.982-.099 1.943-.529 2.843-.474.99-1.22 1.905-2.117 2.692l-.01.009-.013.002a42.024 42.024 0 00-6.423 1.591v-.001zM57.313 137.256a108.004 108.004 0 01-15.379-10.535 108.183 108.183 0 01-12.62-12.157c-3.838-4.354-7.298-9-10.357-13.912l-.032-.052.152-.046c1.456-.436 2.665-.797 3.727-1.19 1.06-.39 1.974-.813 2.84-1.368a1.698 1.698 0 00-.31-3.015c-.82-.312-1.517-1.058-2.007-1.944-.535-.968-.821-2.105-.743-3.025l.001-.015.01-.011c4.646-5.394 9.65-11.334 14.68-17.762 5.028-6.427 10.082-13.344 14.825-20.69A61.596 61.596 0 0163.538 38.34a59.078 59.078 0 0114.517-9.257 74.745 74.745 0 0114.541-4.783 72.356 72.356 0 0115.049-1.685 72.196 72.196 0 019.317.559c3.103.388 6.184.977 9.227 1.761l.004.001a51.745 51.745 0 012.589.998 2.695 2.695 0 001.459.173l.011-.001.01.003a75.852 75.852 0 018.47 3.276 77.587 77.587 0 018.082 4.288 50.599 50.599 0 015.21 3.641 52.287 52.287 0 014.771 4.305l.005.006.004.006a1.3 1.3 0 00.552.575l.007.004.005.006a52.747 52.747 0 012.939 3.368 51.07 51.07 0 012.617 3.573 347.856 347.856 0 0015.349 21.186 369.924 369.924 0 0017.219 20.417l.023.025-.017.03a44.059 44.059 0 01-1.68 2.629 2.694 2.694 0 00-.397.884l-.004.014-.011.01a6.515 6.515 0 01-.82.625 1.697 1.697 0 00.7 3.108c.666.088 1.296.17 1.963.313.668.144 1.373.347 2.189.676l.044.018-.018.044a76.748 76.748 0 01-7.991 14.566 80.18 80.18 0 01-11.051 12.737 80.179 80.179 0 01-14.194 10.577c-5.066 2.964-10.42 5.338-15.92 7.041-13.294 4.115-26.355 6.244-38.836 6.381-12.48.138-24.381-1.716-35.354-5.565a104.71 104.71 0 01-16.805-7.619v.001z" fill="#EC7B1D"/><path fill-rule="evenodd" clip-rule="evenodd" d="M52.687 50.643a61.489 61.489 0 0110.851-12.302 59.078 59.078 0 0114.517-9.257 74.745 74.745 0 0114.542-4.783 72.363 72.363 0 0115.049-1.686 72.191 72.191 0 019.316.56c3.103.388 6.185.977 9.227 1.76l.004.002a52.207 52.207 0 012.589.997 2.705 2.705 0 001.459.174l.011-.001.011.003c2.872.917 5.7 2.01 8.47 3.276a77.674 77.674 0 018.081 4.288 50.614 50.614 0 015.21 3.641 52.274 52.274 0 014.771 4.305l.006.006.003.006a1.301 1.301 0 00.552.575l.007.004.005.005a53.078 53.078 0 012.94 3.369 51.72 51.72 0 012.617 3.573 347.033 347.033 0 0015.349 21.186c.596.762 1.196 1.522 1.8 2.281-1.804-1.626-4.384-4.37-6.964-7.4-5.095-5.98-10.189-13.068-14.128-18.22-3.939-5.154-6.722-8.373-11.041-11.197-4.32-2.824-10.174-5.253-17.559-6.994-7.385-1.74-16.3-2.793-24.08-2.793-7.78 0-14.425 1.053-20.488 2.935-6.063 1.883-11.545 4.596-17.331 8.915-5.787 4.32-11.877 10.245-14.535 12.1-.567.395-.977.605-1.261.672z" fill="#F09448"/><path fill-rule="evenodd" clip-rule="evenodd" d="M41.927 7.399c2.647.765 6.643 1.527 10.608 2.634 5.205 1.453 10.355 3.502 14.148 5.523 3.793 2.021 6.23 4.015 7.267 4.36 1.039.347.679-.954.499-1.799-.18-.844-.18-1.232.775-.221.955 1.01 2.866 3.419 4.028 5.191.358.545.645 1.03.899 1.443a78.667 78.667 0 012.583-.955l.047-.017-.019-.046c-.89-2.163-2.228-4.139-3.926-5.845-1.7-1.707-3.764-3.145-6.107-4.23l-.043-.02-.02.042c-.101.22-.221.45-.365.693a9.6 9.6 0 01-.505.764c-.277.378-.68.61-1.11.676-.429.067-.883-.03-1.262-.305-4.044-2.95-8.689-5.107-13.68-6.419-4.395-1.154-9.057-1.656-13.816-1.47zM136.233 24.639c.919-1.115 1.922-2.88 3.03-4.155 1.204-1.384 2.533-2.187 3.447-2.16.913.029 1.412.887 2.408.9.997.014 2.492-.816 4.776-2.186 2.284-1.371 5.358-3.281 8.735-4.555 3.378-1.274 7.06-1.91 10.061-2.633 3-.722 5.318-1.529 6.163-2.221.081-.067.149-.133.203-.198-5.042-.265-9.986.24-14.626 1.477-4.936 1.315-9.529 3.458-13.534 6.379a1.691 1.691 0 01-1.262.305 1.692 1.692 0 01-1.109-.676 9.449 9.449 0 01-.506-.764 7.667 7.667 0 01-.365-.693l-.02-.042-.043.02c-2.355 1.091-4.428 2.538-6.134 4.257-1.703 1.717-3.04 3.706-3.927 5.884l-.018.046.046.016c.897.317 1.788.65 2.675.999z" fill="#903B1F"/><path fill-rule="evenodd" clip-rule="evenodd" d="M142.007 162.931c-3.282 5.723-5.992 7.703-10.518 12.126-4.964 4.849-6.427 10.304-2.373 16.379 4.219 6.321 11.701 5.955 12.332 6.719-1.706 1.258-10.176-1.106-12.257-1.977-5.99-2.504-7.552-6.881-7.157-13.066.663-10.386 7.329-10.528 13.692-16.708 2.534-2.461 4.508-5.469 6.939-7.801 3.114-2.989-.324 3.726-.658 4.328zM72.969 157.751c3.204 9.171 8.01 11.879 13.545 19.051 5.821 7.624 2.25 15.74-6.331 18.879-3.167 1.046-6.57 1.288-9.87.887-.701-.093-1.394-.188-2.097-.272-3.627-.41 5.257 3.122 5.828 3.302 7.221 2.039 11.734-.916 15.678-6.877 3.967-6.4 4.3-15.308-1.758-20.585-4.882-4.169-6.373-3.856-10.145-9.977-.68-1.103-1.334-2.221-2.015-3.325-.57-.914-1.26-2.004-2.193-2.583-.601-.312-1.03.005-.642 1.5z" fill="#9B4F35"/><path fill-rule="evenodd" clip-rule="evenodd" d="M37.55 139.883l.023-.004.05-.009.045-.008h.003l.049-.009.049-.008.019-.004.03-.005.048-.008.034-.006.007-.001.008-.001.049-.009-.415.072zM11.192 185.375c1.977.817 4.955 1.218 8.041.926 3.603-.342 7.355-1.629 10.182-3.438 5.554-3.555 4.516-3.284 4.063-8.535.764-.16 1.532-.3 2.302-.422l.05-.008.004.051a93.335 93.335 0 00.299 3.251c.107.982-.099 1.943-.53 2.842a6.783 6.783 0 01-.367.669c-.04-.029.168 1.474.128 1.438-.328.486-.484 1.082-1.119 1.616-.634.534-.14.118-.213.178-1.944.355-5.112-.231-6.991.393a43.085 43.085 0 00-6.138 2.584l-.005.003-.007.002c-.594.112-1.191.231-1.787.365-.595.133-1.192.28-1.787.447a21.341 21.341 0 00-3.614 1.369 17.195 17.195 0 00-3.051 1.901l-.048.037-.024-.055a36.5 36.5 0 01-1.388-3.732l-.009-.027.02-.021a46.747 46.747 0 011.99-1.834zM57.313 137.256a108.004 108.004 0 01-15.379-10.535 108.101 108.101 0 01-12.62-12.157c-3.838-4.354-7.298-9-10.357-13.912l-.032-.052.152-.046c1.456-.436 2.665-.797 3.727-1.19 1.06-.39 1.974-.813 2.84-1.368a1.698 1.698 0 00-.31-3.015c-.82-.312-1.517-1.058-2.007-1.944-.535-.968-.821-2.105-.743-3.025l.001-.015.01-.011c4.646-5.394 9.65-11.334 14.68-17.762 4.015-5.133 8.047-10.578 11.924-16.305-2.265 5.647-6.822 14.528-10.497 21.233-5.408 9.867-8.906 15.02-7.355 21.553 1.55 6.535 8.148 14.45 15.387 20.554 7.238 6.103 15.118 10.395 21.54 13.607 6.424 3.211 11.391 5.343 18.858 7.461 7.468 2.118 17.435 4.222 28.842 4.001 11.406-.222 24.253-2.769 35.878-7.151s22.028-10.598 30.711-17.571c2.516-2.02 4.886-4.103 6.976-5.998l-.066.095a80.18 80.18 0 01-11.051 12.737 80.179 80.179 0 01-14.194 10.577c-5.066 2.964-10.42 5.338-15.92 7.041-27.877 8.365-54.184 9.477-81.393-2.061-3.286-1.44-6.454-3.024-9.602-4.742v.001zM38.013 139.803l.048-.008.05-.008.034-.006.014-.002.049-.008.049-.008.007-.001.005-.001h.005l.11-.018.02-.003.097-.015h.002l.047-.007.05-.007.022-.004.026-.004.049-.007.045-.006.004-.001.098-.014.017-.003.032-.004.049-.007.039-.005.01-.002.098-.013.012-.001.037-.006.082-.01.016-.002.05-.007.048-.006.006-.001.008-.001.085-.01.027-.004.022-.003.098-.012.071-.008-.02.069c-.254.835-.494 1.67-.721 2.505l-.003.009-.002.009-.003.009-.002.009-.001.003-.002.006-.002.009-.003.009-.002.009-.002.006v.003l-.003.009-.003.009-.002.009-.003.009-.002.009-.002.009-.003.01-.002.008-.001.004-.002.006-.002.009-.003.009-.002.009-.002.006v.003l-.003.009-.002.009-.003.009-.002.009-.003.009-.002.009-.003.009-.002.009-.002.009-.003.009-.002.009-.003.01-.002.009-.003.009-.002.009-.003.009-.002.009v.001l-.002.008-.003.009-.002.009-.003.009v.004l-.002.005-.002.009-.003.009-.002.009-.002.007v.002l-.003.009-.003.009-.002.01-.003.008v.002l-.002.008-.002.009-.003.009-.002.009-.001.004-.002.005-.002.009-.002.009-.003.009-.002.009-.003.009-.002.009-.002.009a88.894 88.894 0 00-.496 1.947l-.01.045-.046-.01a30.568 30.568 0 00-6.61-.713c-2.22.002-4.44.246-6.611.729l-.284.063.25-.149a38.037 38.037 0 017.106-3.313 36.71 36.71 0 014.403-1.224l.001-.001.048-.01.048-.01.048-.01.05-.01.048-.01.02-.004.028-.006.049-.01.048-.009.098-.02.014-.003.034-.006.049-.01.048-.009.098-.019.009-.002.04-.007.048-.009.03-.006.019-.003.097-.018-.632.121 1.217-.224zM32.14 153.727c.572 2.03.76 4.609.853 7.415a41.294 41.294 0 012.726-.034l.045.001.002-.045a94.517 94.517 0 01.66-6.675l.006-.043-.042-.01a30.285 30.285 0 00-4.25-.609z" fill="#E16338"/><path fill-rule="evenodd" clip-rule="evenodd" d="M53.016 220.705c-2.09-2.159-6.2-7.375-10.373-11.422-4.173-4.047-8.41-6.926-12.147-8.768-3.738-1.841-6.977-2.644-9.676-2.796-2.7-.152-4.86.346-6.534 1.108-1.675.761-2.866 1.785-3.631 2.438-.766.654-1.106.936-.967.16.044-.248.138-.606.27-1.018.29-.604.63-1.164 1.022-1.675l.005-.007.008-.005a1.767 1.767 0 00.327-.261 19.713 19.713 0 012.295-2.02l.005-.003a9.866 9.866 0 012.592-1 13.162 13.162 0 013.034-.335c1.154 0 2.382.128 3.672.385 1.28.255 2.62.637 4.013 1.146 3.324 1.216 6.708 3.075 9.993 5.461 3.285 2.385 6.471 5.298 9.4 8.623 2.928 3.324 5.416 6.853 7.368 10.412l.24.442a11.632 11.632 0 01-.917-.865zM173.748 207.8c2.88-1.882 8.72-6.016 12.97-8.249 4.249-2.233 6.907-2.566 9.44-2.427 2.533.138 4.942.747 6.52 1.758 1.578 1.01 2.326 2.422 2.824 4.001.498 1.578.748 3.322.845 4.748.097 1.426.041 2.533.193 2.339.153-.193.513-1.689.623-3.46.111-1.772-.027-3.821-.636-6.23a19.958 19.958 0 00-.889-2.728 1.589 1.589 0 01-.095-.089 18.659 18.659 0 00-1.264-1.19l-.003-.003a9.395 9.395 0 00-2.893-1.372c-1.076-.308-2.253-.462-3.518-.462-1.154 0-2.382.129-3.672.386-1.279.255-2.62.637-4.012 1.146-3.325 1.216-6.709 3.074-9.994 5.46-2.94 2.136-5.801 4.693-8.469 7.591.39-.184 1.032-.566 2.03-1.219zm3.799-24.785c.119.251.288.532.49.819.665.942 1.689 1.938 2.7 2.921.946.921 1.881 1.83 2.667 2.499.44-.152.884-.29 1.332-.416l.114-.032-.105-.055c-1.531-.801-2.902-1.69-4.095-2.654-1.188-.961-2.201-1.997-3.02-3.096l-.064-.086-.019.1zm9.005 8.858c.28.355.494.749.566 1.181.026.153.033.31.021.472a36.342 36.342 0 011.875-.746c.575-.21 1.143-.401 1.703-.572a30.317 30.317 0 011.675-.461l.179-.043-.178-.048a38.27 38.27 0 01-1.104-.309l-.006-.002h-.007a20.207 20.207 0 00-4.724.528z" fill="#9B4F35"/><path fill-rule="evenodd" clip-rule="evenodd" d="M43.364 186.554l.087.187.028.132a1.744 1.744 0 01-3.41.731 105.268 105.268 0 01-.602-3.025c-1.58 2.186-3.88 3.967-6.893 5.337a23.676 23.676 0 017.926 4.129 1.744 1.744 0 11-2.175 2.727c-3.758-2.996-8.634-4.576-13.435-4.365 1.05.262 2.125.592 3.223.993 7.178 2.626 14.563 7.968 20.794 15.041 6.23 7.074 10.598 15.073 12.296 22.525.897 3.934 1.002 7.499.347 10.544 3-2.728 6.274-5.652 10.173-7.518a154.492 154.492 0 01-3.784-1.127 1.744 1.744 0 111.038-3.33c1.033.322 2.065.631 3.098.929l.114.082a151.38 151.38 0 01-3.226-.966 1.689 1.689 0 00-1.294.117c-.384.202-.692.55-.831.998a1.693 1.693 0 001.115 2.125 143.587 143.587 0 003.782 1.127l.12.034-.112.053c-1.945.931-3.736 2.127-5.415 3.431-1.68 1.304-3.247 2.717-4.746 4.08l-.109.099.031-.143c.328-1.526.465-3.182.407-4.95-.058-1.754-.308-3.618-.753-5.574-.849-3.722-2.364-7.581-4.445-11.392-2.08-3.813-4.729-7.578-7.842-11.113-3.113-3.534-6.514-6.635-10.034-9.181-3.518-2.545-7.155-4.535-10.74-5.846a32.301 32.301 0 00-3.219-.993l-.313-.078.323-.014a20.257 20.257 0 017.13.984 20.176 20.176 0 016.336 3.392c.367.292.817.408 1.249.359a1.693 1.693 0 00.868-3.013 23.124 23.124 0 00-3.733-2.423 24.087 24.087 0 00-4.178-1.698l-.12-.036.114-.052c1.504-.683 2.829-1.469 3.975-2.356a14.473 14.473 0 002.9-2.966l.064-.089.02.108a102.837 102.837 0 00.601 3.024 1.697 1.697 0 002.015 1.304h.001a1.694 1.694 0 001.303-2.015v-.001a74.766 74.766 0 01-.07-.328zm97.951 44.732a89.799 89.799 0 003.846-1.327 1.746 1.746 0 011.212 3.272l-.415.151a29.747 29.747 0 013.178 1.855 28.158 28.158 0 015.317 4.108c.331.283.657.566.981.848-.509-2.898-.359-6.235.474-9.891 1.699-7.452 6.066-15.451 12.297-22.525 6.231-7.074 13.615-12.415 20.793-15.041a31.734 31.734 0 013.383-1.034c-.373-.1-.742-.203-1.105-.31-4.574-.035-9.162 1.533-12.737 4.384a1.745 1.745 0 01-2.175-2.728c2.459-1.961 5.327-3.404 8.359-4.255-3.061-1.602-5.484-3.555-7.131-5.764-.285 1.488-.596 3.01-.931 4.575a1.745 1.745 0 01-2.943.863l.022-.044a1.692 1.692 0 001.217.513 1.695 1.695 0 001.658-1.342c.168-.787.33-1.559.484-2.316.155-.76.304-1.512.447-2.258l.02-.105.064.086c.819 1.099 1.832 2.135 3.02 3.096 1.194.965 2.564 1.853 4.095 2.654l.105.055-.114.032a24.04 24.04 0 00-4.411 1.721 23.104 23.104 0 00-3.932 2.526 1.69 1.69 0 00-.628 1.137 1.692 1.692 0 001.496 1.876 1.69 1.69 0 001.248-.359 20.126 20.126 0 015.997-3.278 20.399 20.399 0 016.77-1.116h.007l.006.002a35.075 35.075 0 001.104.309l.178.048-.179.043c-.552.135-1.11.288-1.675.461-.56.171-1.128.362-1.703.572-3.585 1.311-7.221 3.301-10.74 5.847-3.519 2.545-6.921 5.647-10.034 9.181-3.113 3.534-5.761 7.3-7.842 11.112-2.081 3.812-3.596 7.67-4.444 11.392a29.888 29.888 0 00-.739 5.202c-.079 1.657.01 3.22.265 4.671l.023.131-.586-.51-.491-.422-.003-.003a28.073 28.073 0 00-5.318-4.108l-.002-.002a33.68 33.68 0 00-1.557-.974c-.526-.308-1.063-.6-1.61-.873l-.097-.049.517-.188a1.69 1.69 0 00.953-.883c.181-.394.212-.858.049-1.298a1.69 1.69 0 00-.883-.953 1.692 1.692 0 00-1.298-.049 90.502 90.502 0 01-4.076 1.399l.213-.117h.001zM8.806 207.302c.492 4.455 1.992 9.234 4.46 14.076 3.468 6.805 8.58 13.223 14.395 18.165 4.11 3.41 8.452 6.012 12.697 7.565 6.28 2.298 11.517 1.997 14.745-.846 3.227-2.843 4.186-7.999 2.699-14.52-1.572-6.894-5.66-14.35-11.513-20.995-5.853-6.644-12.733-11.641-19.374-14.07-2.79-1.021-5.375-1.529-7.669-1.529-2.145 0-4.036.444-5.603 1.329a19.677 19.677 0 00-2.29 2.015 1.729 1.729 0 01-.335.268c-1.608 2.101-2.36 5.021-2.212 8.542zm198.835 4.076c1.344-5.894.689-10.674-1.832-13.637a1.78 1.78 0 01-.299-.245c-.402-.415-.824-.81-1.261-1.188-1.704-1.214-3.869-1.824-6.384-1.824-2.293 0-4.877.507-7.668 1.528-6.641 2.429-13.521 7.426-19.374 14.071-5.853 6.644-9.942 14.1-11.513 20.994-1.487 6.521-.528 11.678 2.699 14.521a8.7 8.7 0 00.62.497 15.77 15.77 0 001.496.876c3.199 1.486 7.575 1.321 12.629-.528 6.641-2.429 13.521-7.426 19.374-14.07 5.853-6.645 9.942-14.101 11.513-20.995zm-48.796 28.347c-.458-2.466-.326-5.392.419-8.658.787-3.451 2.203-7.043 4.156-10.603 1.952-3.56 4.439-7.088 7.367-10.412 2.929-3.325 6.115-6.238 9.4-8.624 3.285-2.385 6.669-4.244 9.994-5.46a27.232 27.232 0 014.012-1.146 18.86 18.86 0 013.672-.386c1.265 0 2.443.155 3.518.462a9.395 9.395 0 012.893 1.372l.003.003a18.81 18.81 0 011.265 1.19 1.758 1.758 0 00.29.239l.006.003.005.006c1.268 1.491 2.066 3.438 2.377 5.754.31 2.305.137 4.976-.535 7.924-.787 3.451-2.203 7.043-4.156 10.603-1.952 3.559-4.439 7.087-7.368 10.412-2.928 3.325-6.114 6.238-9.399 8.623-3.285 2.386-6.669 4.244-9.994 5.461-2.524.923-4.881 1.427-7.007 1.516-2.14.09-4.047-.242-5.658-.99l-.001-.001a13.626 13.626 0 01-.745-.409 17.872 17.872 0 01-.755-.47l-.002-.001a7.828 7.828 0 01-.624-.5c-1.622-1.428-2.673-3.437-3.133-5.908zm-100.579.665c-.459 2.47-1.51 4.479-3.132 5.907-1.622 1.429-3.748 2.219-6.256 2.362-2.504.144-5.39-.356-8.537-1.507-2.12-.776-4.264-1.813-6.392-3.081a50.223 50.223 0 01-6.336-4.507 60.04 60.04 0 01-8.1-8.417c-2.427-3.064-4.562-6.358-6.29-9.747a47.285 47.285 0 01-2.964-7.162c-.75-2.369-1.252-4.689-1.5-6.929v-.003c-.074-1.768.078-3.385.45-4.824.372-1.437.964-2.696 1.771-3.75l.005-.007.008-.005a1.767 1.767 0 00.327-.261 19.678 19.678 0 012.295-2.02l.005-.003a9.866 9.866 0 012.591-1 13.162 13.162 0 013.035-.335c1.154 0 2.382.128 3.672.385 1.28.255 2.62.637 4.012 1.146 3.325 1.216 6.71 3.075 9.994 5.461 3.285 2.385 6.47 5.298 9.4 8.623 2.928 3.324 5.416 6.853 7.368 10.412 1.952 3.56 3.369 7.152 4.155 10.603.745 3.267.877 6.192.419 8.658v.001z" fill="#903B1F"/><path fill-rule="evenodd" clip-rule="evenodd" d="M20.623 206.788c4.218-3.91 13.094-.393 19.825 7.855 6.73 8.249 8.767 18.106 4.549 22.016-4.219 3.91-13.095.393-19.826-7.855-6.73-8.249-8.767-18.106-4.548-22.016zm173.518 0c-4.219-3.91-13.095-.393-19.826 7.855-6.73 8.249-8.767 18.106-4.548 22.016 4.218 3.91 13.094.393 19.825-7.855 6.731-8.249 8.767-18.106 4.549-22.016z" fill="#C9A296"/><path fill-rule="evenodd" clip-rule="evenodd" d="M168.039 226.806c1.525 2.191 3.862 3.893 6.608 4.712 4.062 1.211 9.02.491 13.734-1.306-6.55 7.228-14.645 10.127-18.614 6.447-2.192-2.032-2.695-5.67-1.728-9.853z" fill="#B6775C"/><path fill-rule="evenodd" clip-rule="evenodd" d="M189.449 228.976c-3.078.357-6.216.157-9.254-.703-5.554-2.111-8.314-5.431-8.752-9.561-4.35 7.193-5.217 14.665-1.676 17.947 4.189 3.883 12.969.442 19.682-7.683z" fill="#B6775C"/><path fill-rule="evenodd" clip-rule="evenodd" d="M189.449 228.976c-3.078.357-6.216.157-9.254-.703-5.554-2.111-8.314-5.431-8.752-9.561-4.35 7.193-5.217 14.665-1.676 17.947 4.189 3.883 12.969.442 19.682-7.683zM20.623 206.788c.948-.879 2.133-1.382 3.475-1.54l.054.034c5.086 3.256 10.679 9.015 14.776 14.054 3.474 4.271 5.873 8.025 8.2 9.927.291 3.129-.382 5.774-2.131 7.396-4.219 3.91-13.095.393-19.826-7.855-6.73-8.249-8.767-18.106-4.548-22.016z" fill="#C9A296"/><path fill-rule="evenodd" clip-rule="evenodd" d="M57.313 137.256a108.09 108.09 0 01-15.379-10.535 109.546 109.546 0 01-6.831-6.088 107.2 107.2 0 01-6.246-6.591l-.014-.016.002-.02c.16-1.579.526-3.176 1.05-4.652.524-1.479 1.206-2.837 1.997-3.935a21.087 21.087 0 014.858-4.856c1.768-1.257 3.74-2.216 5.837-2.746h.002c.6-.128 1.157-.207 1.717-.254.558-.046 1.12-.06 1.731-.057h.001c4.253.145 8.127.87 12.042 1.604 2.356.442 4.728.886 7.202 1.207 6.246.811 12.338-1.005 18.37-2.804 2.132-.635 4.255-1.269 6.38-1.784 6.277-1.523 13.075-2.65 19.811-2.693 6.737-.044 13.413.996 19.443 3.808 2.405 1.12 4.341 1.936 6.345 2.524 2.004.587 4.079.947 6.761 1.159 1.883.149 3.703.151 5.515.035a49.683 49.683 0 005.474-.68c1.311-.237 2.723-.542 4.187-.858 5.415-1.17 11.546-2.494 16.354-1.2 1.496.402 2.823.979 4.057 1.716 1.233.736 2.375 1.633 3.501 2.675h.001c1.973 1.868 3.465 4.285 4.177 6.885.659 2.409.65 4.975-.266 7.406a23.502 23.502 0 01-1.736 3.584 34.228 34.228 0 01-2.555 3.73l-.003.004a82.517 82.517 0 01-2.676 2.617 80.173 80.173 0 01-14.194 10.576c-5.066 2.964-10.419 5.338-15.919 7.041-13.295 4.116-26.356 6.244-38.837 6.382-12.48.137-24.381-1.717-35.354-5.565a104.807 104.807 0 01-16.805-7.619zm42.5-32.849c-2.476 1.23-3.968 3.111-3.375 5.635.304 1.296 1.762 2.695 3.635 3.875 2.088 1.315 4.689 2.356 6.788 2.68l.041.007c-.04 1.364-.083 2.728-.125 4.091l-.037.007a7.688 7.688 0 00-4.537 2.638 7.639 7.639 0 00-1.787 4.918c0 2.116.861 4.036 2.251 5.426a7.653 7.653 0 005.426 2.251 7.653 7.653 0 005.426-2.251 7.65 7.65 0 002.252-5.426 7.638 7.638 0 00-1.809-4.943 7.68 7.68 0 00-4.579-2.624l-.04-.007c.043-1.363.084-2.726.125-4.089l.039-.005c2.138-.317 4.762-1.293 6.838-2.75 1.698-1.193 3.028-2.707 3.421-4.444.526-2.326-.838-4.047-3.134-5.166-2.208-1.076-5.276-1.597-8.361-1.566-3.084.031-6.185.613-8.458 1.743z" fill="#fff"/><path fill-rule="evenodd" clip-rule="evenodd" d="M57.313 137.256a108.004 108.004 0 01-15.379-10.535 109.544 109.544 0 01-6.831-6.088 107.169 107.169 0 01-6.246-6.591l-.014-.016.002-.02c.16-1.579.526-3.176 1.05-4.652.524-1.479 1.206-2.837 1.997-3.935.437-.608.91-1.197 1.412-1.76 2.833 5.314 7.947 10.977 13.43 15.6 7.238 6.103 15.118 10.395 21.54 13.607 6.424 3.211 11.391 5.343 18.858 7.461 7.468 2.118 17.435 4.222 28.842 4.001 11.407-.222 24.253-2.769 35.878-7.151 11.625-4.381 22.028-10.598 30.711-17.571.799-.641 1.582-1.288 2.347-1.934a25.08 25.08 0 01-1.254 2.418 34.37 34.37 0 01-2.555 3.73l-.004.004a78.273 78.273 0 01-2.675 2.616 80.179 80.179 0 01-14.194 10.577c-5.066 2.964-10.42 5.338-15.92 7.041-13.294 4.115-26.356 6.244-38.836 6.381-12.48.138-24.381-1.716-35.354-5.565a104.794 104.794 0 01-16.805-7.618z" fill="#E6E6E6"/><path fill-rule="evenodd" clip-rule="evenodd" d="M162.742 43.372a55.612 55.612 0 00-3.276-3.712l-.059-.061.019-.084a18.153 18.153 0 011.646-4.41 17.95 17.95 0 012.71-3.83l.099-.106 2.298 1.796a1.17 1.17 0 001.808-.49c.614-1.546 1.516-2.855 2.64-3.872a9.304 9.304 0 013.998-2.135l.131-.033.053.126a41.441 41.441 0 012.547 8.572 43.415 43.415 0 01-.271 17.036 42.046 42.046 0 01-2.415 7.595l-.11.256-.165-.225a347.282 347.282 0 01-4.483-6.242 328.385 328.385 0 01-4.257-6.217 54.698 54.698 0 00-2.913-3.964z" fill="#903B1F"/><path fill-rule="evenodd" clip-rule="evenodd" d="M162.829 43.302a55.777 55.777 0 00-3.282-3.72l-.018-.017.006-.025a18.071 18.071 0 011.636-4.384 17.858 17.858 0 012.693-3.804l.029-.032.874.683-.001.024c-.014.77.001 1.889.132 3.112.093.874.247 1.801.491 2.693a12.1 12.1 0 001.288 3.05c.523.864 1.142 1.589 1.823 2.088a4.65 4.65 0 002.061.854 4.49 4.49 0 002.2-.21c.458-.168.86-.41 1.199-.613.23-.139.431-.26.602-.33.286-.117.493-.098.612.194.172.422.135 1.461.096 2.562-.024.703-.05 1.431-.023 2.036.03.679.127 1.201.287 1.542.073.154.158.27.256.345a.477.477 0 00.321.103.76.76 0 00.287-.079c.266-.125.58-.402.889-.675l.236-.207.093-.08-.016.122a43.078 43.078 0 01-1.14 5.727 41.766 41.766 0 01-1.893 5.459l-.033.076-.049-.067a345.057 345.057 0 01-4.482-6.24 328.86 328.86 0 01-4.256-6.216 54.473 54.473 0 00-2.918-3.97zM50.08 32.635l2.068-1.616c.046.03.094.061.142.095l.088.095a18.193 18.193 0 012.925 4.235 18.185 18.185 0 011.634 4.88l.029.158-.11.117a64.977 64.977 0 00-7.254 9.281 239.836 239.836 0 01-3.683 5.53 267.74 267.74 0 01-3.773 5.359l-.322.444-.227-.5a41.99 41.99 0 01-2.693-8.005 43.53 43.53 0 01-.953-13.163c.236 1.752.42 4.193.713 5.961.346 2.084.845 3.233 1.51 3.911.664.678 1.494.886 2.56-.02 1.066-.907 2.367-2.929 3.025-4.735.658-1.807.671-3.399.727-4.09.055-.693.152-.485.512 0 .36.484.983 1.245 1.564 1.557.582.311 1.122.173 1.717-.45s1.246-1.73 1.149-3.371c-.097-1.64-.942-3.814-1.26-5.226a7.435 7.435 0 01-.087-.447z" fill="#82351C"/><path fill-rule="evenodd" clip-rule="evenodd" d="M50.998 134.916c9.402 6.586 17.22 10.656 23.453 12.21-8.55-12.166-5.71-28.791 8.53-49.413-3.34 1.029-7.918 2.299-13.859 2.794-12.178 6.683-19.322 20.57-18.124 34.409zm114.279 2.554c-9.403 6.586-17.938 8.102-24.171 9.656 8.55-12.166 5.705-28.559-8.534-49.182 3.341 1.644 7.592 2.355 13.424 2.695 12.178 6.682 20.479 22.992 19.281 36.831z" fill="#903B1F"/><path fill-rule="evenodd" clip-rule="evenodd" d="M50.998 134.916c9.402 6.586 17.22 10.656 23.453 12.21-2.833-4.033-4.415-8.556-4.745-13.552-.47-.23-.947-.466-1.431-.709-4.912-2.456-10.676-5.543-16.353-9.59a35.766 35.766 0 00-.924 11.641zm93.795 4.653a112.127 112.127 0 007.059-2.392 110.752 110.752 0 0013.339-6.074c.23 2.151.266 4.287.086 6.367-9.403 6.586-17.938 8.102-24.171 9.656a26.052 26.052 0 003.687-7.557z" fill="#68281A"/><path fill-rule="evenodd" clip-rule="evenodd" d="M172.882 12.875a41.39 41.39 0 019.033-3.644l.035-.01.018.032a55.368 55.368 0 011.733 3.367v.001a61.066 61.066 0 013.942 12.137 64.39 64.39 0 011.407 12.908c.046 5.58-.617 11.018-1.952 16.177-1.336 5.161-3.345 10.043-5.992 14.508l-.035.06-.042-.055a362.107 362.107 0 01-4.728-6.18l-.017-.022.012-.026a44.195 44.195 0 003.011-8.67 45.752 45.752 0 00.351-19.34 43.64 43.64 0 00-3.036-9.533 1.28 1.28 0 00-1.352-.74 11.898 11.898 0 00-5.13 2.004c-1.5 1.046-2.755 2.448-3.691 4.146l-.026.048-1.846-1.442a1.278 1.278 0 00-1.668.076 20.339 20.339 0 00-5.465 8.748l-.022.07-.055-.05a55.821 55.821 0 00-3.714-3.164l-.028-.022.014-.033a41.499 41.499 0 014.632-8.385 43.638 43.638 0 016.508-7.249 43.669 43.669 0 018.103-5.717z" fill="#FDFDFC"/><path fill-rule="evenodd" clip-rule="evenodd" d="M111.707 124.644a5.097 5.097 0 011.5 3.614 5.1 5.1 0 01-1.5 3.614 5.096 5.096 0 01-3.614 1.499 5.096 5.096 0 01-3.614-1.499 5.1 5.1 0 01-1.5-3.614c0-1.41.574-2.688 1.5-3.614a5.097 5.097 0 013.614-1.5c1.41 0 2.688.574 3.614 1.5z" fill="#FF8FB4"/><path fill-rule="evenodd" clip-rule="evenodd" d="M45.778 25.85a11.901 11.901 0 00-5.13-2.005 1.28 1.28 0 00-1.352.74 43.65 43.65 0 00-3.036 9.532 45.822 45.822 0 00.462 19.801 43.951 43.951 0 003.302 9.041l.013.026-.017.023a309.363 309.363 0 01-4.678 6.174l-.042.054-.036-.059a57.575 57.575 0 01-6.103-14.316 61.912 61.912 0 01-2.198-15.795 61.965 61.965 0 011.804-15.62 57.654 57.654 0 015.632-14.279l.02-.033.036.012c2.989.995 5.9 2.327 8.664 3.955a47.205 47.205 0 0114.406 13.183 45.177 45.177 0 014.83 8.57l.013.032-.027.022a63.375 63.375 0 00-3.592 3.215l-.057.054-.02-.076a20.346 20.346 0 00-2.185-5.107 20.234 20.234 0 00-3.478-4.317 1.278 1.278 0 00-1.667-.076l-1.847 1.442-.026-.048c-.936-1.698-2.191-3.1-3.69-4.146z" fill="#FDFDFC"/><path fill-rule="evenodd" clip-rule="evenodd" d="M162.848 20.42l.371-.35c3.538-3.293 6.985-5.423 9.837-5.77 2.852-.345 5.108 1.092 6.512 3.541 1.405 2.45 1.959 5.91 2.665 9.91.706 4.002 1.564 8.542 1.827 12.612.263 4.07-.069 7.67.36 9.317.429 1.647 1.62 1.342 2.99.789.164-.067.331-.137.498-.207a60.426 60.426 0 01-.81 3.58c-1.336 5.162-3.345 10.044-5.992 14.51l-.035.058-.042-.054a362.092 362.092 0 01-4.728-6.18l-.017-.022.012-.026a44.196 44.196 0 003.011-8.67 45.754 45.754 0 00.351-19.341 43.642 43.642 0 00-3.036-9.532 1.278 1.278 0 00-1.352-.74 11.898 11.898 0 00-5.13 2.004c-1.5 1.046-2.755 2.448-3.691 4.146l-.026.048-1.846-1.442a1.28 1.28 0 00-1.668.076 20.338 20.338 0 00-5.465 8.747l-.022.072-.055-.051a56.053 56.053 0 00-3.714-3.164l-.028-.022.014-.033a41.502 41.502 0 014.632-8.385 43.561 43.561 0 014.577-5.421zM36.049 35.259a45.761 45.761 0 00.672 18.66 43.949 43.949 0 003.303 9.04l.013.026-.017.023a310.498 310.498 0 01-4.678 6.174l-.042.054-.036-.059a57.576 57.576 0 01-6.103-14.316 61.916 61.916 0 01-2.198-15.795c-.032-3.016.148-6 .535-8.927.488 1.165 1.145 2.302 2.182 3.15 1.533 1.254 3.894 1.878 6.37 1.97zm17.93-13.352a47.078 47.078 0 013.547 4.377 45.166 45.166 0 014.829 8.57l.013.032-.027.022a63.112 63.112 0 00-3.592 3.215l-.056.054-.021-.076a20.343 20.343 0 00-2.185-5.107 20.227 20.227 0 00-3.478-4.317 1.28 1.28 0 00-1.667-.076l-1.847 1.442-.026-.048c-.204-.37-.424-.727-.658-1.069 1.691-2.97 2.625-6.723 4.638-7.016.17-.025.347-.025.53-.003z" fill="#E4E4E3"/><path fill-rule="evenodd" clip-rule="evenodd" d="M103.313 129.984c.311-.2.657-.83 1.647-1.204s2.623-.491 3.932-.377c1.308.114 2.291.46 2.896.865.537.359.777.763.948 1.133a5.093 5.093 0 00.471-2.143l-.001-.107c-.529-.504-1.337-.918-2.207-1.195-1.249-.398-2.627-.515-3.672-.484-1.045.031-1.758.211-2.409.393-.652.183-1.241.369-1.657.607-.089.052-.17.105-.244.162a5.138 5.138 0 00.268 2.367.419.419 0 00.028-.017z" fill="#FF81A2"/><path fill-rule="evenodd" clip-rule="evenodd" d="M35.58 167.512c.008 1.591.056 3.183.146 4.774l.002.043-.042.006a50.931 50.931 0 00-14.475 4.559c-4.555 2.221-8.781 5.113-12.457 8.575l-.058.055-.02-.077a38.466 38.466 0 01-.92-4.849 39.373 39.373 0 01-.215-7.454l.001-.019.014-.013c3.794-3.424 8.245-6.08 13.023-7.856 4.799-1.784 9.928-2.682 15.052-2.582l.048.001-.002.048a94.57 94.57 0 00-.097 4.789zm-5.548-15.432a33.745 33.745 0 00-6.687.643c-1.91.376-3.765.911-5.546 1.592a32.7 32.7 0 00-5.128 2.493l-.163.098.098-.162a34.074 34.074 0 013.488-4.75 36.187 36.187 0 014.324-4.179l.007-.005.035-.011.03-.009a28.538 28.538 0 018.53-2.116 29.073 29.073 0 018.824.557l.047.01-.01.046a95.6 95.6 0 00-1.218 6.457l-.007.049-.049-.01a32.18 32.18 0 00-6.575-.703z" fill="#903B1F"/><path fill-rule="evenodd" clip-rule="evenodd" d="M35.58 167.512c.008 1.591.056 3.183.146 4.774l.002.043-.042.006c-.778.121-1.553.26-2.324.418-.17-2.679-.235-5.738-.296-8.678l-.03-1.366a40.08 40.08 0 012.595-.035l.048.001-.002.048a94.57 94.57 0 00-.097 4.789zM9.74 184.565a48.53 48.53 0 00-.987.904l-.058.054-.02-.077c-.25-.97-.462-1.954-.636-2.948.346.592.799 1.384 1.701 2.067zm4.604-30.404c1.297-.933 2.688-1.877 4.106-2.659 4.569-2.52 9.419-3.352 11.9-1.055.482.446.874 1.011 1.195 1.675 1.71.086 3.404.307 5.061.661l.049.01.007-.049a94.093 94.093 0 011.217-6.457l.01-.046-.046-.01a29.041 29.041 0 00-8.824-.557c-2.924.262-5.81.968-8.53 2.116a.555.555 0 01-.03.009l-.035.01-.007.006a36.256 36.256 0 00-4.324 4.178 35.1 35.1 0 00-1.75 2.168z" fill="#68281A"/><path fill-rule="evenodd" clip-rule="evenodd" d="M105.683 126.403a11.11 11.11 0 00-2.553.993l-.086.046.017-.096a5.118 5.118 0 011.759-3.014 5.087 5.087 0 013.273-1.188 5.122 5.122 0 014.956 3.853l.024.095-.089-.04a11.052 11.052 0 00-4.579-.986c-.915 0-1.829.112-2.722.337z" fill="#E4357A"/><path fill-rule="evenodd" clip-rule="evenodd" d="M104.764 124.379l.056-.047a5.087 5.087 0 013.273-1.188 5.122 5.122 0 014.956 3.853l.025.095-.089-.04a11.061 11.061 0 00-4.58-.986c-.328 0-.657.014-.984.043a2.245 2.245 0 01-.212-.128c-.671-.464-.723-1.162-1.313-1.431-.294-.134-.723-.162-1.132-.171z" fill="#CD306E"/><path fill-rule="evenodd" clip-rule="evenodd" d="M136.726 70.064c-2.725 1.894.712 4.615 2.635 5.41 3.583 1.382 7.589 2.117 11.343 3.351 1.998.657 5.194 1.358 6.401-1.006 1.42-2.781-6.19-6.438-8.254-7.25-3.717-1.463-8.448-2.668-12.125-.505zm-61.7 0c2.725 1.894-.711 4.615-2.635 5.41-3.583 1.382-7.589 2.117-11.342 3.351-1.998.657-5.194 1.358-6.401-1.006-1.42-2.781 6.19-6.438 8.253-7.25 3.718-1.463 8.449-2.668 12.126-.505z" fill="#fff"/><path d="M37.82 38.682c.092.524.175 1.167.254 1.868a43.305 43.305 0 00-.051 3.627c.158 5.705 1.447 11.317 3.74 16.364a252.746 252.746 0 007.447-10.874 65.596 65.596 0 017.29-9.328 18.023 18.023 0 00-4.48-8.955l-1.898 1.483c-.25-1.264-.036-1.861.496-2.104.56-.256 1.474-.118 2.796 1.405 1.322 1.523 3.053 4.43 4.077 6.943.606 1.485.964 2.833 1.035 4.169a62.25 62.25 0 00-6.386 8.28 253.49 253.49 0 01-6.717 9.867c-1.979 1.04-3.958 1.616-5.517 1.657l.076-.104c-2.838-5.707-4.434-12.163-4.616-18.73a44.798 44.798 0 01-.01-.433c.071-.565.143-1.103.214-1.605.395-2.79.755-4.45 1.142-5.067.388-.616.803-.187 1.108 1.537zm126.901-6.708l-.001.052-.822-.642a18.051 18.051 0 00-4.317 8.166 55.506 55.506 0 016.206 7.697 337.006 337.006 0 008.737 12.455 42.4 42.4 0 003.03-11.174c.44-.378.843-.665 1.065-.398.416.498.194 2.934-.415 5.952s-1.606 6.617-3.35 8.804a6.276 6.276 0 01-1.36 1.29 342.99 342.99 0 01-10.609-14.992 52.082 52.082 0 00-5.551-6.935 1.326 1.326 0 01-.572-.596 67.21 67.21 0 00-.412-.415 40.445 40.445 0 01-.074-1.248 34.417 34.417 0 01.005-3.592c.377.332.75.67 1.118 1.012a20.36 20.36 0 015.478-8.767 1.327 1.327 0 011.017-.357c.292.419.498.88.633 1.238.332.886.221 1.135.193 2.45h.001z" fill="#550A01"/><path fill-rule="evenodd" clip-rule="evenodd" d="M102.917 105.261c1.101-.208 3.233-.485 5.378-.499 2.146-.013 4.306.236 5.586.499 1.281.263 1.682.54 1.474.685-.207.145-1.024.159-2.422.09-1.398-.069-3.378-.221-5.108-.235-1.731-.014-3.212.11-4.195.124-.983.014-1.467-.083-1.675-.2-.208-.118-.138-.257.962-.464z" fill="#fff"/><path fill-rule="evenodd" clip-rule="evenodd" d="M66.896 31.196c-.561-1.913-1.597-5.178-2.22-6.31-.623-1.132.008 3.133-.448 2.966-.399-.145-1.39-3.77-8.69-11.69-.912-.99-.754-.062-1.553-.65-.798-.588-2.712-2.519-5.52-4.195-2.809-1.677-6.513-3.098-7.627-3.186-1.115-.088.36 1.158 1.957 2.466 1.597 1.308 3.317 2.677 5.011 4.116 1.695 1.44 3.362 2.95 4.924 4.459 1.563 1.51 3.02 3.02 4.433 5.02 1.413 2.002 2.782 4.494 3.625 6.135.842 1.641 1.158 2.431 1.615 3.318.456.886 1.053 1.87 1.948 1.983.895.114 2.089-.64 2.642-1.298.553-.659.465-1.22-.097-3.134zM150.031 31.056c.105-1.72 1.088-4.564 1.562-5.556s.439-.132.773-.36c.333-.228 1.035-1.545 2.422-3.546 1.387-2.001 3.458-4.687 4.476-5.714 1.019-1.027.983-.395 1.369-.456.387-.062 1.194-.816 2.283-1.633 1.088-.816 2.457-1.694 2.958-1.966.5-.272.131.062.767-.247.637-.31 2.278-1.262 4.332-2.174 2.053-.913 4.52-1.787 5.2-1.89.68-.103-.426.564-2.719 1.866-2.293 1.302-5.773 3.24-8.753 5.478-2.98 2.239-5.458 4.778-7.422 7.83-1.964 3.05-3.412 6.613-4.294 8.579-.882 1.965-1.198 2.334-1.742 2.22-.545-.114-1.317-.711-1.212-2.432z" fill="#FDFDFC"/><path d="M113.16 128.258a5.072 5.072 0 01-5.067 5.066 5.072 5.072 0 01-5.058-4.781 10.172 10.172 0 015.37-1.528c1.635 0 3.27.392 4.754 1.175l.001.068zm-10.053-.904a5.076 5.076 0 014.986-4.163 5.076 5.076 0 014.911 3.818 11.17 11.17 0 00-9.897.345zM10.623 190.97c1.801-1.416 4.065-2.543 6.681-3.278 1.19-.334 2.39-.59 3.58-.814a42.702 42.702 0 0112.572-4.178c1.701-1.492 2.855-3.447 2.63-5.495a92.547 92.547 0 01-.298-3.252c-9.914 1.569-19.381 6.28-26.551 13.29a36.708 36.708 0 001.386 3.727zm25.056-18.681a94.13 94.13 0 01-.05-9.568c-10.213-.199-20.447 3.57-28.041 10.426a39.303 39.303 0 00-.085 2.487 38.876 38.876 0 001.219 9.801c7.368-6.94 16.946-11.592 26.957-13.146zm.04-11.227c.142-2.234.363-4.462.662-6.679-4.1-.891-8.435-.923-12.724-.077-4.688.925-9.027 2.844-12.69 5.588-1.59 3.37-2.652 7.033-3.145 10.854 7.76-6.408 17.84-9.896 27.898-9.686zm.898-8.325c.33-2.166.737-4.321 1.217-6.46-5.755-1.266-11.872-.744-17.327 1.556-.02.008-.04.012-.059.018-3.078 2.52-5.742 5.527-7.802 8.917a33.265 33.265 0 0110.69-4.091c4.471-.882 8.994-.854 13.28.06zm1.596-8.078c.41-1.69.868-3.368 1.372-5.033-5.138.619-10.152 2.378-14.614 5.049a30.694 30.694 0 0113.242-.016zm72.811 11.578c-3.791 0-7.58-.19-11.358-.57-13.75-1.384-27.127-5.264-39.763-11.534a118.229 118.229 0 01-12.056-6.887 40.449 40.449 0 00-2.812 6.435 86.112 86.112 0 00-1.249 4.53c-1.745 8.057-1.137 16.632 1.96 24.292 4.87 12.05 15.737 21.458 28.36 24.553l.053.014c5.489 1.533 12.192-.639 15.593-5.051.288-.373.558-.77.804-1.179 3.413-5.666 1.754-13.152-3.778-17.041-6.318-4.443-11.39-10.393-14.667-17.206a1.745 1.745 0 013.144-1.512c3.019 6.278 7.697 11.763 13.53 15.864 7.022 4.938 9.113 14.467 4.76 21.695-.315.522-.661 1.03-1.03 1.508-3.348 4.343-9.027 6.906-14.635 6.907a17.34 17.34 0 01-4.632-.618c-13.68-3.364-25.458-13.565-30.737-26.626a42.573 42.573 0 01-1.062-2.938 86.8 86.8 0 00.376 5.506c.14.274.212.588.189.918-.011.149-.028.294-.042.442a96.025 96.025 0 001.507 9.134 1.744 1.744 0 01-3.41.731 105.268 105.268 0 01-.602-3.025c-1.58 2.186-3.88 3.967-6.893 5.337a23.676 23.676 0 017.926 4.129 1.744 1.744 0 11-2.175 2.727c-3.758-2.996-8.634-4.576-13.435-4.365 1.05.262 2.125.592 3.223.993 7.178 2.626 14.563 7.968 20.794 15.041 6.23 7.074 10.597 15.073 12.296 22.525.897 3.934 1.002 7.499.347 10.544 3-2.728 6.274-5.652 10.173-7.518a154.63 154.63 0 01-3.784-1.127 1.744 1.744 0 111.038-3.33c12.73 3.968 25.481 6.128 37.899 6.421 13.783.328 26.664-1.693 38.285-5.997a1.746 1.746 0 011.212 3.272l-.415.151a29.747 29.747 0 013.178 1.855 28.158 28.158 0 015.317 4.108c.331.283.657.566.981.848-.509-2.898-.359-6.235.474-9.891 1.699-7.452 6.066-15.451 12.297-22.525 6.231-7.074 13.615-12.415 20.793-15.041a31.734 31.734 0 013.383-1.034c-.373-.1-.742-.203-1.105-.31-4.574-.035-9.162 1.533-12.737 4.384a1.745 1.745 0 01-2.175-2.728c2.459-1.961 5.327-3.404 8.359-4.255-3.061-1.602-5.484-3.555-7.131-5.764-.285 1.488-.596 3.01-.931 4.575a1.745 1.745 0 01-3.411-.731c.776-3.623 1.419-6.978 1.896-10.172a1.734 1.734 0 01.103-.71 85.75 85.75 0 00.653-6.01 49.064 49.064 0 01-1.37 3.83c-5.279 13.062-17.055 23.262-30.737 26.626a17.336 17.336 0 01-4.632.618c-5.608 0-11.287-2.563-14.634-6.907-.37-.479-.716-.986-1.031-1.508-4.353-7.228-2.262-16.757 4.761-21.695 5.832-4.101 10.51-9.586 13.53-15.864a1.745 1.745 0 013.144 1.512c-3.278 6.814-8.349 12.763-14.667 17.206-5.532 3.889-7.192 11.375-3.779 17.041.246.409.517.805.805 1.179 2.665 3.459 7.361 5.54 11.909 5.541a13.714 13.714 0 003.737-.504c12.623-3.095 23.49-12.503 28.36-24.553 4.515-11.168 4.174-22.597-.891-32.565-9.117 5.417-18.996 9.558-29.478 12.347-9.885 2.631-19.903 3.952-29.905 3.952zm67.891-22.016a2.26 2.26 0 01-.499.491c-.397.283-.796.564-1.196.842-.598.456-1.201.903-1.809 1.339 6.56 11.524 8.838 25.635 6.291 39.26 2.832 5.556 8.853 9.02 15.925 9.1 7.079.079 12.456 3.561 15.142 9.805 2.432 5.653 2.581 13.298.419 21.526-2.116 8.058-6.15 15.592-11.358 21.215-6.945 7.498-15.591 12.868-25.003 15.53a24.687 24.687 0 01-6.717.945c-6.779 0-13.068-2.909-17.055-8.174a31.967 31.967 0 01-.32-.431c-2.964-3.9-7.32-6.829-12.051-8.127-19.638 7.339-40.584 7.738-60.686 1.159-7.513 2.193-14.099 6.023-19.088 11.109a2.733 2.733 0 01-.27.241c-4.378 3.416-9.849 4.788-15.82 3.969-5.213-.716-10.861-3.11-16.336-6.924-8.143-5.673-15.47-14.139-20.103-23.229-4.945-9.702-6.437-19.38-4.248-27.396-6-13.544-5.324-29.349 1.83-41.497 6.886-11.689 19.66-19.68 33.147-20.95-11.86-10.105-21.29-22.162-27.382-35.042a2.74 2.74 0 011.535-3.745c.902-.331 1.753-.619 2.57-.88-1.208-3.265-.856-6.728 1.123-9.204.184-.23.404-.429.65-.589 4.567-2.96 8.757-7.19 11.93-12.019-5.602-9.941-8.554-21.48-8.552-33.483.001-12.716 3.332-24.852 9.63-35.098a2.74 2.74 0 011.617-1.21c12.355-3.35 25.313-1.618 36.057 4.728a2.742 2.742 0 013.238-1.337c6.668 2.078 12.53 6.785 16.075 12.81 13.613-3.92 28.206-3.562 40.769.989 3.316-6.623 9.234-11.857 16.266-14.266a2.74 2.74 0 012.994.838c4.634-2.586 9.848-4.406 15.274-5.318 6.598-1.108 13.58-.885 20.189.643a2.736 2.736 0 011.72 1.24c6.224 10.172 9.568 22.116 9.672 34.54.098 11.782-2.724 23.01-8.177 32.596a141.135 141.135 0 0014.68 17.949 2.74 2.74 0 01.426 3.233c-.294.531-.592 1.069-.917 1.632l2.618.497a2.742 2.742 0 012.058 3.647 88.54 88.54 0 01-12.98 23.385c-4.002 5.179-8.451 9.753-13.278 13.661zm14.46-39.904a2.73 2.73 0 01.404-.899 43.319 43.319 0 001.678-2.626c-12.054-13.294-23.009-27.288-32.571-41.608a52.09 52.09 0 00-5.552-6.935 1.326 1.326 0 01-.572-.596 51.514 51.514 0 00-9.972-7.938 76.719 76.719 0 00-16.542-7.56 2.742 2.742 0 01-1.484-.177 51.825 51.825 0 00-2.589-.997 72.807 72.807 0 00-18.529-2.319c-10.011.052-20.237 2.287-29.571 6.465C67.54 33.842 58.572 41.599 52.14 51.559c-9.488 14.694-20.217 27.67-29.509 38.457-.148 1.742 1.027 4.275 2.72 4.921a1.744 1.744 0 01.32 3.098c-1.74 1.116-3.666 1.692-6.58 2.564l-.094.028c6.114 9.817 13.832 18.575 22.967 26.057 9.723 7.964 20.546 14.069 32.17 18.146 21.935 7.694 47.58 7.411 74.161-.817 10.993-3.403 21.4-9.492 30.095-17.607 8.283-7.73 14.838-17.136 19.03-27.287-1.625-.656-2.811-.812-4.14-.987a1.744 1.744 0 01-.719-3.194 6.87 6.87 0 00.814-.62zm-12.309-25.99c5.287-8.92 8.029-19.506 7.937-30.66-.073-8.795-1.905-17.317-5.345-25.027a55.92 55.92 0 00-1.731-3.364c-6.219 1.68-12.127 4.905-17.117 9.352-4.903 4.368-8.734 9.752-11.128 15.616a55.441 55.441 0 013.717 3.166 20.36 20.36 0 015.478-8.767 1.33 1.33 0 011.729-.08l1.802 1.41c1.874-3.4 5.023-5.618 8.855-6.175a1.328 1.328 0 011.402.768c2.733 6.039 4.077 12.845 3.887 19.684-.173 6.25-1.627 12.399-4.214 17.898 1.549 2.07 3.124 4.13 4.728 6.18zM8.806 207.303c.492 4.455 1.991 9.234 4.46 14.076 3.468 6.805 8.58 13.223 14.395 18.165 4.11 3.411 8.452 6.012 12.697 7.565 6.28 2.298 11.517 1.997 14.745-.846 3.227-2.843 4.186-7.999 2.699-14.52-1.572-6.894-5.66-14.35-11.513-20.995-5.853-6.644-12.733-11.641-19.374-14.07-2.79-1.021-5.375-1.529-7.67-1.529-2.144 0-4.035.445-5.602 1.329a19.584 19.584 0 00-2.29 2.016 1.761 1.761 0 01-.335.267c-1.609 2.101-2.36 5.021-2.212 8.542zm76.85-116.527c.29-.488-.298-1.027-.759-.695-3.21 2.312-7.074 3.656-10.987 3.782-4.038.13-8.102-1.038-11.84-3.007-.488-.257-.996.32-.674.768 2.866 3.972 7.657 5.86 12.464 5.692 4.724-.165 9.268-2.289 11.796-6.54zm57.044 6.54c4.807.167 9.598-1.72 12.464-5.692.323-.447-.186-1.025-.674-.768-3.739 1.969-7.802 3.136-11.84 3.007-3.913-.126-7.777-1.47-10.987-3.782-.461-.332-1.049.207-.759.695 2.528 4.251 7.072 6.375 11.796 6.54zm64.941 114.063c1.344-5.894.689-10.673-1.832-13.637a1.78 1.78 0 01-.299-.245c-.402-.415-.824-.81-1.261-1.188-1.704-1.214-3.869-1.824-6.384-1.824-2.293 0-4.877.507-7.668 1.528-6.641 2.429-13.521 7.426-19.374 14.071-5.853 6.644-9.942 14.1-11.513 20.994-1.487 6.521-.528 11.678 2.699 14.521a8.7 8.7 0 00.62.497 15.77 15.77 0 001.496.876c3.199 1.486 7.575 1.321 12.629-.528 6.641-2.429 13.521-7.426 19.374-14.07 5.853-6.645 9.941-14.101 11.513-20.995zM41.763 60.541a252.746 252.746 0 007.447-10.874 65.596 65.596 0 017.29-9.328 18.023 18.023 0 00-4.48-8.955l-2.183 1.706a1.33 1.33 0 01-2.054-.557c-1.211-3.052-3.56-5.162-6.528-5.91-2.285 5.431-3.4 11.476-3.232 17.554.158 5.705 1.447 11.317 3.74 16.365zM27.01 39.066c.116 10.855 2.98 21.223 8.295 30.087a316.843 316.843 0 004.677-6.173c-2.838-5.707-4.434-12.163-4.616-18.73-.19-6.839 1.154-13.645 3.887-19.684a1.33 1.33 0 011.402-.768c3.832.557 6.981 2.775 8.855 6.174l1.803-1.408a1.328 1.328 0 011.728.079 20.357 20.357 0 015.676 9.446 63.778 63.778 0 013.594-3.217c-2.543-5.975-6.493-11.504-11.452-16.009-4.795-4.356-10.452-7.685-16.419-9.673-4.98 8.89-7.545 19.174-7.43 29.876zm42.386-23.742c-8.102-5.91-18.62-8.63-29.51-7.756a50.407 50.407 0 0113.32 8.713c5.091 4.627 9.2 10.264 11.946 16.372a62.29 62.29 0 0111.497-6.71 77.633 77.633 0 016.07-2.413c-1.779-4.319-5.336-7.885-10.01-10.051a8.628 8.628 0 01-.876 1.465 1.744 1.744 0 01-2.437.38zm74.215-1.845c-4.697 2.177-8.268 5.768-10.037 10.117a80.403 80.403 0 0115.029 7.138 53.98 53.98 0 012.177 1.404c4.79-11.117 14.124-20.105 25.34-24.593-10.778-.796-21.171 1.926-29.196 7.78a1.745 1.745 0 01-2.437-.381 8.654 8.654 0 01-.876-1.465zm22.176 33.768a337.006 337.006 0 008.737 12.455c2.061-4.827 3.222-10.135 3.372-15.525.168-6.078-.948-12.123-3.233-17.554-2.968.748-5.316 2.858-6.528 5.91a1.33 1.33 0 01-2.054.557l-2.183-1.706a18.05 18.05 0 00-4.317 8.166 55.506 55.506 0 016.206 7.697zm-58.933 69.397l-.123 4.012c-3.611.645-6.362 3.807-6.362 7.602 0 4.259 3.465 7.724 7.724 7.724s7.725-3.465 7.725-7.724c0-3.817-2.784-6.994-6.427-7.614l.123-4.008c3.903-.578 9.42-3.346 10.298-7.23 2.104-9.314-25.684-8.997-23.42.647.649 2.763 6.463 5.973 10.462 6.591z" fill="#550A01"/></svg>