<svg width="194.559" height="48.034" viewBox="0 0 51.477 12.709" xmlns="http://www.w3.org/2000/svg" xmlns:i="&amp;ns_ai;"><path d="M13.918 2.433c-.116 0-.222.095-.222.211v7.684a.23.23 0 00.222.222h1.291c.117 0 .201-.105.201-.222V2.644c0-.116-.084-.211-.2-.211zm4.964 1.968c-.699 0-1.44.127-1.831.223-.127.031-.201.116-.201.233v.856c0 .138.084.191.19.191h.053c.328-.032 1.08-.074 1.757-.074.497 0 .794.127.794.73v.381h-.572c-1.81 0-2.603.55-2.603 1.789v.095c0 1.376.889 1.82 1.81 1.82.634 0 1.058-.18 1.47-.476v.17c0 .116.096.211.212.211h1.185a.213.213 0 00.212-.212V6.56c0-1.545-.953-2.159-2.477-2.159zm7.08 0c-.678 0-1.143.138-1.725.55v-.253a.212.212 0 00-.212-.212H22.84a.212.212 0 00-.212.212v5.63a.23.23 0 00.222.222h1.28c.117 0 .213-.105.213-.222v-4.17c.36-.19.687-.339.994-.339.646 0 .784.244.784.985v3.524c0 .117.095.222.211.222h1.28a.23.23 0 00.223-.222V6.804c0-1.334-.339-2.403-1.873-2.403zm18.447 0c-1.715 0-2.657 1.07-2.657 2.752v.74c0 1.683.942 2.753 2.657 2.753s2.645-1.07 2.645-2.752v-.74c0-1.684-.93-2.753-2.645-2.753zm6.858 0c-.508 0-1.038.18-1.43.508v-.211a.212.212 0 00-.211-.212h-1.26a.212.212 0 00-.21.212v5.63a.23.23 0 00.221.222h1.28c.117 0 .212-.105.212-.222V6.19c.392-.212.847-.37 1.366-.37h.084c.096 0 .159-.106.159-.202V4.613a.212.212 0 00-.211-.211zm-19.59.085c-1.852 0-2.646.804-2.646 2v.085c0 .423.149.963.487 1.26-.264.21-.466.507-.466.899 0 .349.16.773.54.984-.455.35-.635.752-.635 1.186v.084c0 1.112.931 1.725 2.688 1.725 1.863 0 2.773-.56 2.773-1.725V10.9c0-1.016-.635-1.302-2.477-1.705l-1.195-.264c-.254-.053-.318-.127-.318-.296 0-.096.032-.17.149-.244.211.085.602.159 1.1.159 1.65 0 2.614-.603 2.614-1.98v-.084c0-.254-.106-.592-.233-.783l.328-.106c.127-.042.19-.084.19-.232V4.76a.27.27 0 00-.264-.275zm3.99 0a.23.23 0 00-.223.222v3.525c0 1.333.34 2.402 1.874 2.402.677 0 1.143-.138 1.725-.55v.253c0 .117.095.212.212.212h1.185a.212.212 0 00.211-.212v-5.63a.23.23 0 00-.222-.222h-1.28c-.117 0-.212.106-.212.222v4.17c-.36.19-.688.339-.994.339-.646 0-.784-.244-.784-.984V4.708c0-.116-.095-.222-.212-.222zm-3.99 1.238c.751 0 .942.328.942.762v.085c0 .455-.201.74-.942.74-.805 0-.963-.38-.963-.74v-.085c0-.434.211-.762.963-.762zm12.732.138c.614 0 .942.434.942 1.291v.74c0 .858-.328 1.302-.942 1.302s-.953-.444-.953-1.301v-.74c0-.858.339-1.292.953-1.292zM19.073 7.957h.603v1.165c-.254.127-.55.232-.868.232-.444 0-.667-.085-.667-.53V8.73c0-.519.19-.773.932-.773zm11.726 2.223l.783.17c.952.211 1.09.348 1.09.55v.084c0 .317-.159.54-1.027.54-.815 0-1.058-.18-1.058-.54v-.085c0-.37.085-.54.212-.72z" fill="#fffffd"/><switch transform="matrix(.05514 0 0 .05514 -1.414 -1.22)"><g i:extraneous="self"><path class="st0" d="M100.33 116.27V59.41c-.04-20.61-16.75-37.3-37.37-37.3-1.29 0-2.56.07-3.81.19-18.81 1.91-33.49 17.8-33.49 37.11v11.04c0-.11 0-.21.01-.31 0 0-.32 26.66 30.73 41.01 17.63 8.14 32.12 4.9 43.93 5.12z"/><linearGradient id="SVGID_1_" x1="43.42" x2="72.433" y1="121.18" y2="66.22" gradientUnits="userSpaceOnUse"><stop offset=".059"/><stop stop-color="#0F0F0F" stop-opacity=".966" offset=".09"/><stop stop-color="#4D4D4D" stop-opacity=".809" offset=".238"/><stop stop-color="#848484" stop-opacity=".654" offset=".385"/><stop stop-color="#B0B0B0" stop-opacity=".504" offset=".526"/><stop stop-color="#D2D2D2" stop-opacity=".36" offset=".661"/><stop stop-color="#EBEBEB" stop-opacity=".225" offset=".788"/><stop stop-color="#FAFAFA" stop-opacity=".102" offset=".904"/><stop stop-color="#fff" stop-opacity="0" offset="1"/></linearGradient><path d="M100.33 116.27V59.41c-.01-3.51-.53-6.9-1.44-10.12H27.06c-.91 3.22-1.4 6.61-1.4 10.12v11.04c0-.11 0-.21.01-.31 0 0-.32 26.66 30.73 41.01 17.63 8.14 32.12 4.9 43.93 5.12z" fill="url(#SVGID_1_)" opacity=".6"/><path class="st0" d="M124.77 140.69h56.86c20.61.04 37.3 16.75 37.3 37.37 0 1.29-.07 2.56-.19 3.81-1.91 18.81-17.8 33.49-37.11 33.49H170.6c.11 0 .21 0 .31-.01 0 0-26.66.32-41.01-30.73-8.15-17.62-4.92-32.12-5.13-43.93z"/><linearGradient id="SVGID_2_" x1="120.98" x2="188.92" y1="195.58" y2="162.32" gradientUnits="userSpaceOnUse"><stop offset=".059"/><stop stop-color="#0F0F0F" stop-opacity=".966" offset=".09"/><stop stop-color="#4D4D4D" stop-opacity=".809" offset=".238"/><stop stop-color="#848484" stop-opacity=".654" offset=".385"/><stop stop-color="#B0B0B0" stop-opacity=".504" offset=".526"/><stop stop-color="#D2D2D2" stop-opacity=".36" offset=".661"/><stop stop-color="#EBEBEB" stop-opacity=".225" offset=".788"/><stop stop-color="#FAFAFA" stop-opacity=".102" offset=".904"/><stop stop-color="#fff" stop-opacity="0" offset="1"/></linearGradient><path d="M124.77 140.69h56.86c3.51.01 6.9.53 10.12 1.44v71.82c-3.22.91-6.61 1.4-10.12 1.4H170.6c.11 0 .21 0 .31-.01 0 0-26.66.32-41.01-30.73-8.15-17.61-4.92-32.11-5.13-43.92z" fill="url(#SVGID_2_)" opacity=".6"/><path class="st0" d="M129.9 184.63c-8.15-17.63-4.91-32.12-5.13-43.93-.12-6.69-1.34-12.52-6.38-17.56-.08-.08-.18-.15-.26-.23l-.01.01c-.08-.08-.14-.18-.23-.26-5.04-5.04-10.88-6.25-17.56-6.38-11.81-.21-26.3 3.02-43.93-5.13-31.05-14.36-30.74-41.02-30.74-41.02 0 .11 0 .21-.01.31v66.6c0 25.11 9.02 43.57 21.88 56.46l.01-.01c12.89 12.86 31.34 21.88 56.46 21.88h66.6c.11 0 .21-.01.31-.01 0 0-26.66.31-41.01-30.73z"/></g></switch><style>.st0{fill:#fff}</style></svg>