<svg width="193.28" height="193.26" viewBox="0 0 51.139 51.133" version="1.1" id="svg5" xmlns="http://www.w3.org/2000/svg" xmlns:i="&amp;ns_ai;"><g id="layer1" transform="translate(-36.32 -75.947)"><switch id="switch1222" transform="matrix(.26458 0 0 .26458 29.533 70.097)"><g i:extraneous="self" id="g1220"><g id="g1218"><g id="g1216"><g id="g1166"><path class="st0" d="M100.33 116.27V59.41c-.04-20.61-16.75-37.3-37.37-37.3-1.29 0-2.56.07-3.81.19-18.81 1.91-33.49 17.8-33.49 37.11v11.04c0-.11 0-.21.01-.31 0 0-.32 26.66 30.73 41.01 17.63 8.14 32.12 4.9 43.93 5.12z" id="path1164"/></g><linearGradient id="SVGID_1_" gradientUnits="userSpaceOnUse" x1="43.42" y1="121.181" x2="72.433" y2="66.22"><stop offset=".059" id="stop1168" stop-color="#000"/><stop offset=".09" id="stop1170" stop-color="#0f0f0f" stop-opacity=".966"/><stop offset=".238" id="stop1172" stop-color="#4d4d4d" stop-opacity=".809"/><stop offset=".385" id="stop1174" stop-color="#848484" stop-opacity=".654"/><stop offset=".526" id="stop1176" stop-color="#b0b0b0" stop-opacity=".504"/><stop offset=".661" id="stop1178" stop-color="#d2d2d2" stop-opacity=".36"/><stop offset=".788" id="stop1180" stop-color="#ebebeb" stop-opacity=".225"/><stop offset=".904" id="stop1182" stop-color="#fafafa" stop-opacity=".102"/><stop offset="1" id="stop1184" stop-color="#fff" stop-opacity="0"/></linearGradient><path d="M100.33 116.27V59.41c-.01-3.51-.53-6.9-1.44-10.12H27.06c-.91 3.22-1.4 6.61-1.4 10.12v11.04c0-.11 0-.21.01-.31 0 0-.32 26.66 30.73 41.01 17.63 8.14 32.12 4.9 43.93 5.12z" id="path1187" opacity=".6" fill="url(#SVGID_1_)"/><g id="g1191"><path class="st0" d="M124.77 140.69h56.86c20.61.04 37.3 16.75 37.3 37.37 0 1.29-.07 2.56-.19 3.81-1.91 18.81-17.8 33.49-37.11 33.49H170.6c.11 0 .21 0 .31-.01 0 0-26.66.32-41.01-30.73-8.15-17.62-4.92-32.12-5.13-43.93z" id="path1189"/></g><linearGradient id="SVGID_2_" gradientUnits="userSpaceOnUse" x1="120.984" y1="195.578" x2="188.919" y2="162.319"><stop offset=".059" id="stop1193" stop-color="#000"/><stop offset=".09" id="stop1195" stop-color="#0f0f0f" stop-opacity=".966"/><stop offset=".238" id="stop1197" stop-color="#4d4d4d" stop-opacity=".809"/><stop offset=".385" id="stop1199" stop-color="#848484" stop-opacity=".654"/><stop offset=".526" id="stop1201" stop-color="#b0b0b0" stop-opacity=".504"/><stop offset=".661" id="stop1203" stop-color="#d2d2d2" stop-opacity=".36"/><stop offset=".788" id="stop1205" stop-color="#ebebeb" stop-opacity=".225"/><stop offset=".904" id="stop1207" stop-color="#fafafa" stop-opacity=".102"/><stop offset="1" id="stop1209" stop-color="#fff" stop-opacity="0"/></linearGradient><path d="M124.77 140.69h56.86c3.51.01 6.9.53 10.12 1.44v71.82c-3.22.91-6.61 1.4-10.12 1.4H170.6c.11 0 .21 0 .31-.01 0 0-26.66.32-41.01-30.73-8.15-17.61-4.92-32.11-5.13-43.92z" id="path1212" fill="url(#SVGID_2_)" opacity=".6"/><path class="st0" d="M129.9 184.63c-8.15-17.63-4.91-32.12-5.13-43.93-.12-6.69-1.34-12.52-6.38-17.56-.08-.08-.18-.15-.26-.23l-.01.01c-.08-.08-.14-.18-.23-.26-5.04-5.04-10.88-6.25-17.56-6.38-11.81-.21-26.3 3.02-43.93-5.13-31.05-14.36-30.74-41.02-30.74-41.02 0 .11 0 .21-.01.31v66.6c0 25.11 9.02 43.57 21.88 56.46l.01-.01c12.89 12.86 31.34 21.88 56.46 21.88h66.6c.11 0 .21-.01.31-.01 0 0-26.66.31-41.01-30.73z" id="path1214"/></g></g></g></switch></g><style type="text/css" id="style824">.st0{fill:#fff}</style><style type="text/css" id="style1162">.st0{fill:#fff}</style></svg>